<mxfile host="65bd71144e">
    <diagram id="AuVscACfn827lHOYN4G0" name="Summary">
        <mxGraphModel dx="941" dy="369" grid="1" gridSize="10" guides="1" tooltips="1" connect="1" arrows="1" fold="1" page="1" pageScale="1" pageWidth="850" pageHeight="1100" math="0" shadow="0">
            <root>
                <mxCell id="0"/>
                <mxCell id="1" parent="0"/>
                <mxCell id="2" value="GENERAL DASHBOARD" style="rounded=1;whiteSpace=wrap;html=1;" parent="1" vertex="1">
                    <mxGeometry x="40" y="40" width="630" height="60" as="geometry"/>
                </mxCell>
                <mxCell id="5" value="&lt;ul&gt;&lt;li&gt;Top trending Teams (most positive, most négative)&lt;/li&gt;&lt;ul&gt;&lt;li&gt;&lt;b style=&quot;background-color: initial;&quot;&gt;&lt;font color=&quot;#ff8000&quot;&gt;Leaderboard -&amp;gt; bar chart&amp;nbsp;&lt;/font&gt;&lt;/b&gt;&lt;/li&gt;&lt;/ul&gt;&lt;li&gt;Most teams talked about (most articles wrote about)&lt;/li&gt;&lt;ul&gt;&lt;li&gt;&lt;b style=&quot;background-color: initial;&quot;&gt;&lt;font color=&quot;#ff8000&quot;&gt;ranking table&lt;/font&gt;&lt;/b&gt;&lt;/li&gt;&lt;/ul&gt;&lt;li&gt;&lt;span style=&quot;background-color: initial;&quot;&gt;Sentiment distribution for the entire league (positive, négative, neutral)&lt;/span&gt;&lt;/li&gt;&lt;ul&gt;&lt;li&gt;&lt;b&gt;&lt;font color=&quot;#ff8000&quot;&gt;Pie chart or stacked bar chart&lt;/font&gt;&lt;/b&gt;&lt;/li&gt;&lt;/ul&gt;&lt;li&gt;recent articles and sentiment scores&lt;/li&gt;&lt;ul&gt;&lt;li&gt;&lt;b&gt;&lt;font color=&quot;#ff8000&quot;&gt;Table with filtering&lt;/font&gt;&lt;/b&gt;&lt;/li&gt;&lt;/ul&gt;&lt;li&gt;&lt;font style=&quot;&quot; color=&quot;#ffffff&quot;&gt;Most common words in positive/negative sentiment&lt;/font&gt;&lt;/li&gt;&lt;ul&gt;&lt;li&gt;&lt;b&gt;&lt;font color=&quot;#ff8000&quot;&gt;Word cloud&lt;/font&gt;&lt;/b&gt;&lt;/li&gt;&lt;/ul&gt;&lt;/ul&gt;&lt;div style=&quot;width: 12px; z-index: 1; touch-action: none; top: 69px; left: 212px; bottom: 37px;&quot; class=&quot;geHsplit&quot;&gt;&lt;/div&gt;" style="text;html=1;strokeColor=none;fillColor=none;align=left;verticalAlign=middle;whiteSpace=wrap;rounded=0;" parent="1" vertex="1">
                    <mxGeometry x="40" y="170" width="640" height="90" as="geometry"/>
                </mxCell>
                <mxCell id="6" value="TEAM DASHBOARD" style="rounded=1;whiteSpace=wrap;html=1;" parent="1" vertex="1">
                    <mxGeometry x="40" y="340" width="630" height="60" as="geometry"/>
                </mxCell>
                <mxCell id="7" value="&lt;ul&gt;&lt;li&gt;Sentiment trend for each team throughout the season OK&lt;/li&gt;&lt;ul&gt;&lt;li&gt;&lt;b&gt;&lt;font color=&quot;#ff8000&quot;&gt;Line chart showing season-long trend&lt;/font&gt;&lt;/b&gt;&lt;br&gt;&lt;/li&gt;&lt;/ul&gt;&lt;li&gt;League-wide sentiment over time&lt;/li&gt;&lt;ul&gt;&lt;li&gt;&lt;b&gt;&lt;font color=&quot;#ff8000&quot;&gt;Area chart or stacked bar chart&lt;/font&gt;&lt;/b&gt;&lt;/li&gt;&lt;/ul&gt;&lt;li&gt;Most négative articles and titles OK&lt;/li&gt;&lt;ul&gt;&lt;li&gt;&lt;b&gt;&lt;font color=&quot;#ff8000&quot;&gt;Text&lt;/font&gt;&lt;/b&gt;&lt;/li&gt;&lt;/ul&gt;&lt;li&gt;Most positive articles and titles OK&lt;/li&gt;&lt;ul&gt;&lt;li&gt;&lt;b&gt;&lt;font color=&quot;#ff8000&quot;&gt;Text&lt;/font&gt;&lt;/b&gt;&lt;/li&gt;&lt;/ul&gt;&lt;li&gt;(Match by match sentiment score)&lt;/li&gt;&lt;li&gt;Sentiment breakdown for a team OK&lt;/li&gt;&lt;ul&gt;&lt;li&gt;&lt;b&gt;&lt;font color=&quot;#ff8000&quot;&gt;Bar chart or pie chart&lt;/font&gt;&lt;/b&gt;&lt;/li&gt;&lt;/ul&gt;&lt;li&gt;Word cloud for each team OK&lt;/li&gt;&lt;ul&gt;&lt;li&gt;&lt;b&gt;&lt;font color=&quot;#ff8000&quot;&gt;Word cloud&lt;/font&gt;&lt;/b&gt;&lt;/li&gt;&lt;/ul&gt;&lt;/ul&gt;&lt;div style=&quot;width: 12px; z-index: 1; touch-action: none; top: 69px; left: 212px; bottom: 37px;&quot; class=&quot;geHsplit&quot;&gt;&lt;/div&gt;" style="text;html=1;strokeColor=none;fillColor=none;align=left;verticalAlign=middle;whiteSpace=wrap;rounded=0;" parent="1" vertex="1">
                    <mxGeometry x="40" y="505" width="640" height="90" as="geometry"/>
                </mxCell>
                <mxCell id="8" value="COMPARE DASHBOARD" style="rounded=1;whiteSpace=wrap;html=1;" parent="1" vertex="1">
                    <mxGeometry x="40" y="740" width="630" height="60" as="geometry"/>
                </mxCell>
                <mxCell id="9" value="&lt;ul&gt;&lt;li&gt;&lt;span style=&quot;background-color: initial;&quot;&gt;Compare sentiment trends of two teams&lt;/span&gt;&lt;br&gt;&lt;/li&gt;&lt;ul&gt;&lt;li&gt;&lt;b&gt;&lt;font color=&quot;#ff8000&quot;&gt;Side-by-side bar chart or radar chart&lt;br&gt;&lt;/font&gt;&lt;/b&gt;&lt;/li&gt;&lt;/ul&gt;&lt;li&gt;Comparison of rival teams&lt;br&gt;&lt;/li&gt;&lt;ul&gt;&lt;li&gt;&lt;b&gt;&lt;font color=&quot;#ff8000&quot;&gt;Side-by-side line chart&lt;/font&gt;&lt;/b&gt;&lt;br&gt;&lt;/li&gt;&lt;/ul&gt;&lt;/ul&gt;&lt;div style=&quot;width: 12px; z-index: 1; touch-action: none; top: 69px; left: 212px; bottom: 37px;&quot; class=&quot;geHsplit&quot;&gt;&lt;/div&gt;" style="text;html=1;strokeColor=none;fillColor=none;align=left;verticalAlign=middle;whiteSpace=wrap;rounded=0;" parent="1" vertex="1">
                    <mxGeometry x="40" y="819" width="640" height="90" as="geometry"/>
                </mxCell>
            </root>
        </mxGraphModel>
    </diagram>
    <diagram id="Nn9RaAirMaF4PfeUVRE3" name="General">
        <mxGraphModel dx="960" dy="343" grid="1" gridSize="10" guides="1" tooltips="1" connect="1" arrows="1" fold="1" page="1" pageScale="1" pageWidth="850" pageHeight="1100" math="0" shadow="0">
            <root>
                <mxCell id="0"/>
                <mxCell id="1" parent="0"/>
                <mxCell id="T-R7eJndgKi0dFgzMBl2-1" value="" style="rounded=1;whiteSpace=wrap;html=1;fontColor=#FF6666;fillColor=none;" parent="1" vertex="1">
                    <mxGeometry x="40" y="75" width="310" height="145" as="geometry"/>
                </mxCell>
                <mxCell id="T-R7eJndgKi0dFgzMBl2-2" value="" style="rounded=0;whiteSpace=wrap;html=1;fontColor=#FF6666;fillColor=none;" parent="1" vertex="1">
                    <mxGeometry x="50" y="90" width="250" height="20" as="geometry"/>
                </mxCell>
                <mxCell id="T-R7eJndgKi0dFgzMBl2-3" value="" style="rounded=0;whiteSpace=wrap;html=1;fontColor=#FF6666;fillColor=none;" parent="1" vertex="1">
                    <mxGeometry x="50" y="120" width="110" height="20" as="geometry"/>
                </mxCell>
                <mxCell id="T-R7eJndgKi0dFgzMBl2-4" value="" style="rounded=0;whiteSpace=wrap;html=1;fontColor=#FF6666;fillColor=none;" parent="1" vertex="1">
                    <mxGeometry x="50" y="150" width="290" height="20" as="geometry"/>
                </mxCell>
                <mxCell id="T-R7eJndgKi0dFgzMBl2-5" value="" style="ellipse;whiteSpace=wrap;html=1;aspect=fixed;fontColor=#FF6666;fillColor=none;" parent="1" vertex="1">
                    <mxGeometry x="555" y="80" width="140" height="140" as="geometry"/>
                </mxCell>
                <mxCell id="T-R7eJndgKi0dFgzMBl2-6" value="" style="rounded=0;whiteSpace=wrap;html=1;fontColor=#FF6666;fillColor=none;" parent="1" vertex="1">
                    <mxGeometry x="50" y="180" width="250" height="20" as="geometry"/>
                </mxCell>
                <mxCell id="T-R7eJndgKi0dFgzMBl2-7" value="" style="endArrow=none;html=1;fontColor=#FF6666;exitX=0.5;exitY=1;exitDx=0;exitDy=0;" parent="1" source="T-R7eJndgKi0dFgzMBl2-5" edge="1">
                    <mxGeometry width="50" height="50" relative="1" as="geometry">
                        <mxPoint x="580" y="195" as="sourcePoint"/>
                        <mxPoint x="630" y="145" as="targetPoint"/>
                    </mxGeometry>
                </mxCell>
                <mxCell id="T-R7eJndgKi0dFgzMBl2-8" value="" style="endArrow=none;html=1;fontColor=#FF6666;entryX=0;entryY=0;entryDx=0;entryDy=0;" parent="1" target="T-R7eJndgKi0dFgzMBl2-5" edge="1">
                    <mxGeometry width="50" height="50" relative="1" as="geometry">
                        <mxPoint x="630" y="145" as="sourcePoint"/>
                        <mxPoint x="680" y="95" as="targetPoint"/>
                    </mxGeometry>
                </mxCell>
                <mxCell id="T-R7eJndgKi0dFgzMBl2-9" value="" style="endArrow=none;html=1;fontColor=#FF6666;entryX=1;entryY=0.5;entryDx=0;entryDy=0;" parent="1" target="T-R7eJndgKi0dFgzMBl2-5" edge="1">
                    <mxGeometry width="50" height="50" relative="1" as="geometry">
                        <mxPoint x="630" y="145" as="sourcePoint"/>
                        <mxPoint x="680" y="95" as="targetPoint"/>
                    </mxGeometry>
                </mxCell>
                <mxCell id="T-R7eJndgKi0dFgzMBl2-10" value="&lt;font color=&quot;#99ff33&quot;&gt;&lt;b&gt;Teams with most artcicles wrote about them&lt;/b&gt;&lt;/font&gt;" style="text;html=1;strokeColor=none;fillColor=none;align=center;verticalAlign=middle;whiteSpace=wrap;rounded=0;fontColor=#FF6666;" parent="1" vertex="1">
                    <mxGeometry x="60" y="40" width="180" height="30" as="geometry"/>
                </mxCell>
                <mxCell id="T-R7eJndgKi0dFgzMBl2-11" value="&lt;font color=&quot;#99ff33&quot;&gt;&lt;b&gt;Sentiment distribution (pos, neg, neu)&lt;/b&gt;&lt;/font&gt;" style="text;html=1;strokeColor=none;fillColor=none;align=center;verticalAlign=middle;whiteSpace=wrap;rounded=0;fontColor=#FF6666;" parent="1" vertex="1">
                    <mxGeometry x="535" y="45" width="215" height="30" as="geometry"/>
                </mxCell>
                <mxCell id="hxQh7-q6kZ63sMDYHQgO-1" value="" style="rounded=1;whiteSpace=wrap;html=1;fontColor=#FF6666;fillColor=none;" parent="1" vertex="1">
                    <mxGeometry x="40" y="300" width="420" height="260" as="geometry"/>
                </mxCell>
                <mxCell id="hxQh7-q6kZ63sMDYHQgO-2" value="" style="rounded=0;whiteSpace=wrap;html=1;fontColor=#FF6666;fillColor=none;" parent="1" vertex="1">
                    <mxGeometry x="70" y="320" width="20" height="230" as="geometry"/>
                </mxCell>
                <mxCell id="hxQh7-q6kZ63sMDYHQgO-3" value="" style="rounded=0;whiteSpace=wrap;html=1;fontColor=#FF6666;fillColor=none;" parent="1" vertex="1">
                    <mxGeometry x="110" y="320" width="20" height="230" as="geometry"/>
                </mxCell>
                <mxCell id="hxQh7-q6kZ63sMDYHQgO-4" value="" style="rounded=0;whiteSpace=wrap;html=1;fontColor=#FF6666;fillColor=none;" parent="1" vertex="1">
                    <mxGeometry x="190" y="320" width="20" height="230" as="geometry"/>
                </mxCell>
                <mxCell id="hxQh7-q6kZ63sMDYHQgO-5" value="" style="rounded=0;whiteSpace=wrap;html=1;fontColor=#FF6666;fillColor=none;" parent="1" vertex="1">
                    <mxGeometry x="150" y="320" width="20" height="230" as="geometry"/>
                </mxCell>
                <mxCell id="hxQh7-q6kZ63sMDYHQgO-6" value="" style="rounded=0;whiteSpace=wrap;html=1;fontColor=#FF6666;fillColor=none;" parent="1" vertex="1">
                    <mxGeometry x="230" y="320" width="20" height="230" as="geometry"/>
                </mxCell>
                <mxCell id="hxQh7-q6kZ63sMDYHQgO-7" value="" style="rounded=0;whiteSpace=wrap;html=1;fontColor=#FF6666;fillColor=none;" parent="1" vertex="1">
                    <mxGeometry x="270" y="320" width="20" height="230" as="geometry"/>
                </mxCell>
                <mxCell id="hxQh7-q6kZ63sMDYHQgO-8" value="" style="rounded=0;whiteSpace=wrap;html=1;fontColor=#FF6666;fillColor=none;" parent="1" vertex="1">
                    <mxGeometry x="310" y="320" width="20" height="230" as="geometry"/>
                </mxCell>
                <mxCell id="hxQh7-q6kZ63sMDYHQgO-9" value="" style="rounded=0;whiteSpace=wrap;html=1;fontColor=#FF6666;fillColor=none;" parent="1" vertex="1">
                    <mxGeometry x="350" y="320" width="20" height="230" as="geometry"/>
                </mxCell>
                <mxCell id="hxQh7-q6kZ63sMDYHQgO-10" value="" style="rounded=0;whiteSpace=wrap;html=1;fontColor=#FF6666;fillColor=none;" parent="1" vertex="1">
                    <mxGeometry x="390" y="320" width="20" height="230" as="geometry"/>
                </mxCell>
                <mxCell id="hxQh7-q6kZ63sMDYHQgO-11" value="" style="rounded=0;whiteSpace=wrap;html=1;fontColor=#FF6666;fillColor=none;" parent="1" vertex="1">
                    <mxGeometry x="425" y="320" width="20" height="230" as="geometry"/>
                </mxCell>
                <mxCell id="hxQh7-q6kZ63sMDYHQgO-14" value="&lt;b&gt;&lt;font color=&quot;#99ff33&quot;&gt;Sentiment distribution for each team in the league (stacked bar chart -&amp;gt; POS, NEG, NEU)&lt;/font&gt;&lt;/b&gt;" style="text;html=1;strokeColor=none;fillColor=none;align=center;verticalAlign=middle;whiteSpace=wrap;rounded=0;fontColor=#FF5555;" parent="1" vertex="1">
                    <mxGeometry x="110" y="260" width="266.25" height="30" as="geometry"/>
                </mxCell>
                <mxCell id="QGDNpqtIFJkDJvM_XlY_-1" value="" style="shape=image;verticalLabelPosition=bottom;labelBackgroundColor=default;verticalAlign=top;imageAspect=0;image=https://www.uxforthemasses.com/wp-content/uploads/2011/06/Word-cloud-min.jpg;" parent="1" vertex="1">
                    <mxGeometry x="480" y="320" width="270" height="240" as="geometry"/>
                </mxCell>
                <mxCell id="QGDNpqtIFJkDJvM_XlY_-2" value="" style="shape=image;verticalLabelPosition=bottom;labelBackgroundColor=default;verticalAlign=top;imageAspect=0;image=https://turbologo.com/articles/wp-content/uploads/2020/01/Premier-League-logo.png;" parent="1" vertex="1">
                    <mxGeometry x="390" y="80" width="123.75" height="120" as="geometry"/>
                </mxCell>
            </root>
        </mxGraphModel>
    </diagram>
    <diagram id="4p2a-AoPFRBymBV7I0kW" name="Team">
        <mxGraphModel dx="941" dy="280" grid="1" gridSize="10" guides="1" tooltips="1" connect="1" arrows="1" fold="1" page="1" pageScale="1" pageWidth="850" pageHeight="1100" math="0" shadow="0">
            <root>
                <mxCell id="0"/>
                <mxCell id="1" parent="0"/>
                <mxCell id="UkpUkvpY188wfxYDAW5G-1" value="&lt;b style=&quot;&quot;&gt;&lt;font color=&quot;#99ff33&quot;&gt;Sentiment trend for each team throughout the season&lt;/font&gt;&lt;/b&gt;" style="text;html=1;strokeColor=none;fillColor=none;align=center;verticalAlign=middle;whiteSpace=wrap;rounded=0;fontColor=#FF6666;" parent="1" vertex="1">
                    <mxGeometry x="35" y="100" width="320" height="20" as="geometry"/>
                </mxCell>
                <mxCell id="iVkFy3QDmQK3W-l8h3lg-1" value="" style="ellipse;whiteSpace=wrap;html=1;aspect=fixed;fontColor=#FF6666;fillColor=none;" parent="1" vertex="1">
                    <mxGeometry x="60" y="410" width="170" height="170" as="geometry"/>
                </mxCell>
                <mxCell id="iVkFy3QDmQK3W-l8h3lg-2" value="" style="endArrow=none;html=1;fontColor=#FF6666;exitX=0.5;exitY=1;exitDx=0;exitDy=0;" parent="1" source="iVkFy3QDmQK3W-l8h3lg-1" edge="1">
                    <mxGeometry width="50" height="50" relative="1" as="geometry">
                        <mxPoint x="85" y="525" as="sourcePoint"/>
                        <mxPoint x="135" y="475" as="targetPoint"/>
                    </mxGeometry>
                </mxCell>
                <mxCell id="iVkFy3QDmQK3W-l8h3lg-3" value="" style="endArrow=none;html=1;fontColor=#FF6666;entryX=0;entryY=0;entryDx=0;entryDy=0;" parent="1" target="iVkFy3QDmQK3W-l8h3lg-1" edge="1">
                    <mxGeometry width="50" height="50" relative="1" as="geometry">
                        <mxPoint x="135" y="475" as="sourcePoint"/>
                        <mxPoint x="185" y="425" as="targetPoint"/>
                    </mxGeometry>
                </mxCell>
                <mxCell id="iVkFy3QDmQK3W-l8h3lg-4" value="" style="endArrow=none;html=1;fontColor=#FF6666;entryX=1;entryY=0.5;entryDx=0;entryDy=0;" parent="1" target="iVkFy3QDmQK3W-l8h3lg-1" edge="1">
                    <mxGeometry width="50" height="50" relative="1" as="geometry">
                        <mxPoint x="135" y="475" as="sourcePoint"/>
                        <mxPoint x="185" y="425" as="targetPoint"/>
                    </mxGeometry>
                </mxCell>
                <mxCell id="iVkFy3QDmQK3W-l8h3lg-5" value="&lt;font color=&quot;#99ff33&quot;&gt;&lt;b&gt;Sentiment distribution for each team (pos, neg, neu)&lt;/b&gt;&lt;/font&gt;" style="text;html=1;strokeColor=none;fillColor=none;align=center;verticalAlign=middle;whiteSpace=wrap;rounded=0;fontColor=#FF6666;" parent="1" vertex="1">
                    <mxGeometry x="40" y="375" width="215" height="30" as="geometry"/>
                </mxCell>
                <mxCell id="sD3LUV9xb6JT_d3dm7e5-1" value="" style="shape=image;verticalLabelPosition=bottom;labelBackgroundColor=default;verticalAlign=top;imageAspect=0;image=https://www.uxforthemasses.com/wp-content/uploads/2011/06/Word-cloud-min.jpg;" parent="1" vertex="1">
                    <mxGeometry x="460" y="410" width="230" height="170" as="geometry"/>
                </mxCell>
                <mxCell id="sD3LUV9xb6JT_d3dm7e5-2" value="Word cloud for a team depending on a sentiment" style="text;html=1;strokeColor=none;fillColor=none;align=center;verticalAlign=middle;whiteSpace=wrap;rounded=0;fontColor=#FF6666;" parent="1" vertex="1">
                    <mxGeometry x="460" y="370" width="215" height="30" as="geometry"/>
                </mxCell>
                <mxCell id="pgSRg7DyGo8qi-8O6_78-1" value="" style="shape=image;verticalLabelPosition=bottom;labelBackgroundColor=default;verticalAlign=top;imageAspect=0;image=data:image/png,iVBORw0KGgoAAAANSUhEUgAAAlMAAADZCAYAAAAE9bV/AAAAAXNSR0IArs4c6QAAAARnQU1BAACxjwv8YQUAAAAJcEhZcwAAEnQAABJ0Ad5mH3gAAHC9SURBVHhe7Z0HYBzF2YZf6dR7lyX33m2Muw2YbtNJIIHQEkihJ5AGCQkpBPjTQw+EUBICJPRmerdNsY3BvXe5SpZk9Xr/987sSidx6u1O+h57tXOzs7O7s7vzvTs1BIBXFkVRFEVRFKUdhDprRVEURVEUpR2omFIURVEURekAKqYURVEURVE6gIopRVEURVGUDqBiSlEURVEUpQOomFIURVEURekAKqYURVEURVE6gIopRVEURVGUDqBiSlEURVGCGQ6/rfQoKqYURVEUJUgJT4hG9plTEDs0XUSVqqqeQsWUoiiKogQhIaEhyDp9MlJnj8Cgi2ab30rPoGJKURRFUYKRkBBExEchxBNqSqg6FdVlbULFlKIoiqIEISEippKyE5xfQicJoLDYSKRMHmjEmtI6VEwpiqIoShASmRKDqLiIOg2VdvSoDgsglnKN/NYcDL9wJoZ+bar5rbSMppKiKIqiBCEZUwYi1KedVFS/pA63m+L+8YNTzDq6X4K2w2olKqYURVEUJdgQjTPguNGmJCrS4zVe8aP7mXVHSBmTAY+HAspdlNagYkpRFEVRggnROLFZSU4VnBflOQXGOzQsFFGZPm2o2kHGpP5aGtUOVEwpiqIoShBhGp4PT0OoJwTeGi/W/v19uyE0FJ7YSOtuB2Ex4UgdnakFUu1AxZSiKIqiBBMiprJmD3NKkLwiqGpRlpNfVzJFfwquNiHhEwYmi6CKcH5zQNAoLaVqJSqmFEVRFCVICPGEYOhJo5E4IFF0lBe7390Ib20tImqqkBblxdC5QzDhW7MwZP7YNgkhaq+4rER4IjwId5RBZHKsqAQVU61BxZSiKIqiBAOia/pNHYSh88cZjVOyIw87Xl9rqvoiQ7xGXCUMSELGlAEYdup49Js+2Kqk1iDBsmYMbhi8lbsqKqYURVEUJShgSVPWlP6mOq+mohqf/30Raqtq4K31Ytd7G3F45yGUHixmzZ/BExXWKi3FKsHUsf2QMDCp9eJLaYCKKUVRFEUJAihzUqJr4QnxwptXYKr3DF4vclftxYp7PsCWl1bJT6umWi2LJGBWVpTVUbLvoQ0H6gSZaXvV6oj6LiqmFEVRFCVIiI2oxZj0KmTEVDfQOBRQNeXVqK2sMYKorVAzjUyuxvDEKoTlF6K2WuIRMo8ZJcdRNdUSKqYURVEUJRgwRUeUNt4m5U0DGdWGKjuGDPcAkWFATUWV6SFo/O0hlRZQMaUoiqIoQQAbnWcOTzLu4kNlpq1UY4p35Vt/CTvgqOGtElQMEZscZX8o7ULFlKIoiqIEAyKMouMiTPFTUa6IKT/VeVWllY6rDUi8w47sZ0RVbW0tdnxxwPorrUbFlKIoiqIEGUZGfVlLGdrcZIoqyi3Akn1ryqvqSr3ihqYZsaU0j4opRVEURQkCQlnP5yN6WtRMDN4OHVSRV2KGXCBxg1Prj6k0iYopRVEURQkChk/vJ+KIzc+B/L3F1rMRLJUq2HLQuMOiwhGVGmvcbcFUH7ajR2BfRsWUoiiKogQBsUnOJMaic9hmym/RlIig4pwC4+Qgnx520WuBmIRIRESHmRKoqgoOreBsUFqNiilFURRFCRacKjdvM4qnrlCpldVzUXHhCIuwomvt+zudkinz08QRFuOIOKVJVEwpiqIowQVFQiuFQm+CpUx1l23ETtOCytKWRKoPSy21f/Fm42a1Yky/BONWmkbFlKIoihI8iM1PHZKMuPS2twUKdoZPzzLihiIqb1eRfyklnuW5JcbpifQgMinGuFuigewyJVM+sbdFk/VRVEwpiqIowYEY9YyRaTj5Z8di/s/mIXlgYp8y9NHxEeZ6qXNKCsqNcGoMq+hy1+417tAwD8Kiw427OTzhoRLWJmQ1p6NR2oyKKUVRFCVoGDErG6GeEETGRyI2LVa0Rd8sNvEtOOooCekxiIwVoSZsWba34cjqpiTsy2nMxu3pw1Nw9OXTMWByP/M7kAn1hCJrbHqrGuS3BxVTiqIoSo8RkxyN1MFJdca8OWiu4yO9CAv1muquSI4G3kfwhIVaXdNWWrEPBakbd0VxlRFqVUXl1kP8I9PirNvBCKlhyTju2lkYOmsApp0/MeDF1LTzJuDEH87BN+4+DeHsudjJqJhSFEVRegQKqOOvnYlTbzoG078x0fFtHgqpqDCx9mK7s8ZntEosBAMUh/ULPay/QdyJ/WIRHhlmqvG2LLXVeK0hKinaCB3b1qqVyDHyVuwyTu4XkRjtuO3vQVOycOL1s0UIR5nfcSwhDHAxNXLuIFMqFSqiNHVQkrmWzkTFlKIoitLt0JixeimxXxzCRCQMmz3Q2dI8ialRCBcxRSM+ePoAhEd1filDd8O0GDqjP444czSyx6Wb6qj49FgRKTHmOmn3w1gyRYstOvLwwVKzX1PUVFSjaFe+CTt83jB85dYTsOCncxER03L7KX+wTRXPZ/C0bMy7fJoRwFFxkWbi5WCA1+3pmtq9OlRMKYqi9GXEILJUwVQjdbN1jBBR5B6ytUcePSMDiVG1Nrz8yZqQaQWHLGxLxZIHuoMFnirF07wrpmHKV8Zi/k/mGuFz6g1zcdqNR+HIr4yxgdqI26YqNTMaSdkJ5hgDJtm08oX3vP/YVOMuL65ETXWtcTNUcmQthidWY8bx/XGqnMu8703D8NkDzOmwhKzWt21VgMLrzR6dijARhF2JiilFUZQ+DEXUVDHYF96xABMXDO92QRXqWiE5bBR7qzWLBBLjyGo+T6gVYv0nikAQERWbEoX518/Ceb8/ESkDE6waCApCEJ8cgfAwKwZZ+kQBkJAei4TMWAyemoWouAh4IqxIpHxxhVKLhHgR6WEpHt1AOHv2NUoXbjPpLnEW5ZU16M3XL6YGcRFeJEna8nzCwj2orfZix7I9+PAfy7Fd1maAz0BGri91UIJ5zl0P29auUUJ0EBVTiqIofZjYlGiMOmogohMjMeWM0XYy3W4kPtI13iFIMW1Zmjm+bHK3xkfUIjrci4FjUxCXGo25F00yJS8UICPmsvSke6+j3chp0s4nR9cgOaoaW97djDVvbEHhgRIjcHgZFLhJcl1hkR6jpDYsyXF2bg4RnLKvaV9mCMEg9rprIllMqAa6yIv8bXmorWEJVK2sa7HkX5/j5ds+wAcPLseWj3ahvKiibp9ATW1eb8bwFIQ51Xz8nTSg88W2iilFUZQ+DEtEIsOtZSk7LMax2xDx1C8GEZGhrbNrEig+2Wdak8pKUzKV3C8Ox19+JIZOz6oTguWF3XkdHYPGvf+oZNOwPiykFjtX7MOnT67Cwa2HRKfUqxvbmy/ElEqVtnB9tdW1KM8rETFlG+uHsXRK/KOTokw1aGugiHrjrx/j7bs+wcOXvYCHZFn/7jZzXlVl1SbMoR3uHIBAv7Hpxh1osFRv6NSuH7pBxZSiKEovgsaZ1UWtbQPFEJHh1mgnZMTIzl1rdOqQw0THhSM6wh6P581xi5pSVvTOHpFo3Kxa2vjhThTuLTaCI2t0mhFS7q7xGbEmvmAhIS3aXCCF0s61IqJkbcZ6kv/s8WhKpNqAt6YWVaVVSIysNfGGMiJZRydEIibJ9sxzoUBjqRdhuvLYLuVFldj+2V4jrOq2udtlXVrgirqQgByRns/E9HPGmmvk4+A+2l1RaqliSlEUpZdAI+GJ8OCkK6fi2/efgsnzhyF1YEKzoio2KRJJSbaXF8MNPqKfcXcXMRHW4JPme+bZRuYGMeSF+4vxyh+WYP272414qBDxkLuz0GxmjzgJbNyBDgeTDItwTLFRUVyA7UvZHskKIKaL6YnHS3KCtIbESBtXRVEFaiprEBVPMRXlbLUwTdMGce49L3J3FaGyrMpucGnFsUxSB2By83kePiXDuCkGyw6Xm/PMHJXW6Y+HiilFUZQgx3x5i+HgUAMX/N9xGDGrPyLF+M69YDy+ctNcDJvmzun2ZSKiPIiOtqaAYRIy2lbCwGibirtF2rKbOY5dE69osMMHSrD4sVX46Mk1ePPupVjz1lZjNJkO7T6nbiYqNtyWTMmFbVq2v04o2bX8MdfNHmkp5tLzdhe1asqX2PBaRHhkf4lo4+LdKM4rFdHmMQNWml6PIuK4sPG+Eds8nnvwXkRSTA0SImuQGl2Fgpwi42cfjc59PlRMKYqiBDE0tEOPzMTRF03Aeb87xrQh8oiBLCusMFV90QkRGHPUgBZtBxtz06imsHFuK2H8FGqDJ6UbQ91WomLDjGFjeyGeX2J2vDXsfqBv/5FJZk3BlLu72PhXV9Tgi4WbseuL/di96oDVHxLHkKndW8LWXnj9bhVlZXmNuTZSU1Vjqtd45UmSLh7OnSf/a6olTCuGJIiqqTRrRle4r9hU2YWEeDH9q2Nw7q+PxjX/ORPXynLJn08woqo3Eh7pQZi8C7GRtaaRf1eiYkpRFCVIoZDKGpmMU38wHVNOGYbo+EhjjNe+twNP/eoDHNxRaAywsdh+oBEfPdOKDiNohMTsOETGtm5wx0GTMnDKNVOx4NpptuTE/2H8wqCDxySbfSKdHmdsH9RkFLIhLsk2QKdA2Lk+37hd6FdyqMwUsJhSqbacTA9Cg0/Bay5cLoLXwXZgxXllqCimAGK1VIoN3FokkvWLdmHvpnxsXbYXG8TN6WFi2ftxVBL6jbT3ikt8WnS7kornSFHH8yWBWBKYkhWD8Cgr8j9duN2Mi8XzjE2NMX6diYopRVGUYEXs15AJqaaBMm3ZzlUH8Nkrm7H0+Y2mJMIdgLFJZB93MMNwR0xFRIe1ejLYweNSTIkUqxTjU21VVauRoKxucmHZDI/drGV3N/FUHSPuCw37vg15xj14SnCUTLE9VGyCFYlrF++xFyGYEirnGikAEk31qyQA/Rz/puCuh3YdxrO/XYTX7lhqqgWrS8plb8bpNSVVW5fuFdG9EwV7i43IYJRl8sw4h28ZCbdn9X7j4PmNPHqw9Q8gTImf8zyx1G/f+lzj5mjudc9SJ6FiSlEUJUihPYgMq0VKTDWSIqux8pWNWPSfNSjcX2KNsQ9N2Q5Xu9hBML3G0BhR0wrCGcw34nYYKO4SE24boSf1T2heS9VtM+UijrshpfllZm2MaDNxBQrmmtzzlEsyt81ZzBXyMmShaGWwkoIK1NS0IJIFxsOxoYxQkuAr39qOA9sKsGHxbjz58/ex8G9L8dYDK/CEuDd/sgf7t+Rj7fs7nRNoJW5Y32sIINi5wv1YsL0jfc63k1ExpSiKEqyIUUhMizJjCZmqMh9DSONRVV4tQUKQnBXn14Dwy33IhDQJDBTllqGiVMKL5U4bmtQqgzPrzGFWtHQE2d2NwrSXaiK6yJgwZA3lYIsh2LEu3wiELyHXsXd9nkmG5Ox403stkGHaZQ6xbdSqq2plqW9YzirLihJW84VgzHFD0X9QNCI8tWaoghoJ2xYorA9uL8TjIpxeu3u56fnIUku2yaL7FRFWT/7iA+TuPOz7CAU9HJfM7Sm55IVtIiyNs0tQMaUoihKk0NBOPibbuDlKNUWGS1VlDQr2lRhxkpwtYsofsi0uKUI0iBf7txagJL/cCJvMES230bFVKLKWheth7WjwPWZGhrkGGnC3JC1jZKrxa47SQlZH+bf65YfLzXAL6RnhiHTaywQqvMx+w0W4ChyIszi/fjBOVs1x8E3CXnlsQB0RWmvaUSnto+RQqS2hEiYsGNlkZ4f2oGJKURQliKnTHY21hfnteDZhM1hq5UZAbVJdVIqk6FpMnJNp2/E0tZ/4D52UZjazh5jjaCq4XxiHK5rythegtqoW4SIaMimmHKH2Jfx6+iKysLoGHm8t4pMiccKlEzB4QpoZ9Zs9DwdPTMOss0cgOYuDerblbLsIkwayliQ02tC5XXU4v80QBwKFwJYVB407EDBnVXfOAZCePvAZSutvh/koL6ky4ptVwK6Y6uzTVTGlKIoSpJgG3I4osKNUG2eryRwSX2fMWe2TkBAuNsaLxNQoTDphoCl98ovslJptG/G6IZoM2wp4zPSYaqTG1GD8kSk4+rxRplG7b8kBJ9lltQ3P1wwZ4Oda6VV4sBTFh8rN79Ez+uH8m2fhhEvG4ZwbpuO8X87CsRePw4LvTZK4TZAexZQsnjDIuFndVlbSsNRp46KdRgTERtiL3b2hoM33uKvJ3XbIJDzbdEU5DekDAT4nKSKamV65OSUtd8boICqmFEVRgpT+wxMQ7rQJWfFejjG8DWjB8GYMppgyfbyw/pN9eO3+L3Bg+2EjYuZ+bRTGzPI/2Ce9kvtxYEzrZphsdt//ctBWUVtRJedaa3YfND4VR8mxf/DQyRg7R47vCCo2JI5z5uZbv3S/aVj9JcTrUE4xHr95ET5/Y7tpgM0SqRlnDMPIaZnGzfPtPyalgVDrKdz045WwvVpFiZ3zzoX3M4SLc6o5m0VM+bvuHiR3GwWe14optlHr+WT9El96L4S4NPv8dhYqphRFUXoBh/MqrFX2IZ9z1xnjG4Lxxw8R49G89di/rRDv/GsNqsurERUVhrOuPxKZbPTdCAqRpAxrjFxNEhnXurGpCPcbNCbZuGno9ouAe//x9TicW2a651MEhYd78JXrp+IHD55kxmJqC2z7tfipDVj17i4Ui5vtj1gyEUhChAOrHnPeaCPwmoPjaZqqVGHpqyIQ/QgD5cuwpDR9ANsKelFTZUttD245ZJ4tMnhaf/sgdhIqphRFUYKU5MyYOmOcu4fDIRhnHYcPlNb5GbshixFAYsiHH5Fu2z05VqAor9yIjV1r87B2UY4x2jRIJ1823vSkY8kQF4+zTkhhKVEjY9SMceKmus3iyBpmRRp75W1ZmYflr23HfVe9jYd+/D7eemQt8vYUmfMMj/AgkRMwtwFeMxt0v/bAStz//XfxzB+W4cU7VpjSH3/wOFy6q7SKopZVmTNOH2LSwqT7OjH0jcTegU2HxEjLfRA32/3UVMv2RvdYaQJJV74fTK+98pFgxDSTz0m/lj4s2oqKKUVRlCCFPfFMuylh9eJ9Yiiat7QURxx758KbZ+KCX87AhKP7W6Miu+1an28MDQ36aw+swkfPbhap5MWQCSn46b/n44YnFpjlxscXmP0TxVDxyCz1sYcVgTTCjmheh7gphmITIzHiyAxMP3WIaceSlBGNyOgws7/ZVY5JQUGDV3iwDMsWbsOrcg6Ec8dx/rpB42xJFttL1VJUtIC5Fnb9FxGyefl+bPh4b93QAzxHt40Xxej8b4/HlXfMMwKzK+FxeTym6dHnjkQEJ3aursHbj67Be/9Z96X7x8E1KaZIwf5SVFW0PCefYqHgdx5tI9idZKxfCx1p59cYFVOKoii9Gsd6iGWhmLn0tjkYPiXdlDD5lsTU2RhxcJgFlhTt21JQJwAoilj1xiq3QeNSkJASZcTS7nW5RgiRtMGJJk7uQ5EWmxCBUy+fIMecjfNvmi7uifjB/cfjmruPxczTh5r9/cH49mwqMG4GYemZGWNKYDVg3t4S424LFCrbPrc94XiO6YPtAKFZwxMx/ZQhSB8YjxMuHmO2dxU87tk/mIwLfzXTimA5p8/e3IHlrL5rolE950wk5SXVdVVUgUTxQXsv2GOSo7kHCmNnZtrnW5Jv/47DNmnlz+6V+8x2ni/nguwsVEwpiqIEIfVtQtwJco2zARy0k/4UDSNnZGHq/EFI7R9nSpNyc4rrBn/k7wbIPofzyrDw76uwcekBY4xYYsR1/r5SE68JJpEbESBQ9HDi4q/84Aj85JETcdoV442ImnLCQKQN4ES99eaGjZWjE0WMNQMFVf7+EjO3WtYwOxZTh5DTzN1d5PwAIpwxqBLiQ83I76ToUP04T13BiCPTMX5uthGkLDF7/Z9rzMIBO/3B9A2pYg8/rxh/ilSmcgAhybZn9QFznuHRYYhJiZbnIDDO0cx36GDuq5wrz7Mg57DxY1KGRXSe+FMxpSiKEgTwKzulXwz6j0wybhoDjn5OsZSzpdAJ1ZC9Gw7VlxoNikdUuBhnsSq7Vufinz9ZhI9f3IqSwkosfnYLLY0JV4f83Lv1MP57+1I88MMP8chNS8z6oRsX48nblxlhtWtDgVM9KIHlfAaOTcX4Of0QlxyFGacMRoYck9vYsPzle1fiqd8vx/I3dpqqRN+xk/Zuqxc5Ltyv2BE38SmRSBMR2BF8r85qknqjHxMhYlJ+cqiIrtQCYaLfwsN5CC9efXC1bVDuiFF/cNszf1mBz9/ehddEdDXV5qsnMffeXIJ9JgOF1KwYeU+cH42SmENwpMjicZ7BzkDFlKIoShDAMZauvWcevvfHOZh28kBbTWeMF9sb2XVjZIvjAqJiwpCREY7kqCqU5hahXAzz24+tx58vfRMfPL3pS1qK0FDSoLMtE0ukuC46VI6tn+fi79dbYbXs5S11+7L6MDJKzIp4MH628Xn5vlW484p3sPz1nVizeA8WPrAaVWWctsbuRDFVXPDlEiEeN2djvrmszKGJGDXNtmeqrvZ+uSStldRfYwg8YZJ4koDRsWGmxxxhO5tEM2Fz19BvUBxiI2oRhSqs/mBPs0KKMG22fn4QL9y9UtLCDkGgtI5RR6bJ7bXqrry0Sv7atOM8kBRSaXFeZGZ13r1WMaUoihIETDyqX12PulMuG4sF3xqD/iMSzbaSwgofoeCfiEgPYuLDTLh1y/OMsnCFUktGvTE06qwi5H6mB5pz8PjoGkSEeXF4fxEe+82n+M8tS7HqgxxTjeUKAbb7WfXhHuNuFgnOuLnXgJGJiAoHPCLA1nywG4dE2LUZOf6mpba9jG+bqaFjExEbace4YjuamMQIR6R2Lmwj1X+YHSR1O+cWdNKjJRjMLV1UWk9GXBWSoquRHldZ17mCfzZ/Ks+euHk/4pI6b5BRFVOKoihBQHJqhJnMmG1qY+LCMPuMIaZnHo3Ewd1NNMiWbZVltmooMYqTHgNlJVWd2zbIOQanguGEyxQJ7FlIA7ZtZa5pz+ULBdjmFQeMiGsOXhf3Z/wJSeEIpbWqrsbr/9rYZvFHGF/hfivCKGjYbsvFaCf5w3Zo7GXo+HQqbMCfMTDOXtdaW+KmdB1h8jymxFabkkAXpv2hvaXY9PlB85ymy/3orB59KqYURVECHFZXTJiVgYiwWmySL2tXiLh2wNhlP8aZBmPrsr3OL0tVRa0IqupOs+U8xpale83kwoTDFnz4/HZjuLj4g9382TuNNB3ODpfAtSfUrretaX2JTmuhsOISHlprGoZz6IYu0FJmpPqMAbHm3uVsLmoybYINVtkW55aaNMwcndYladdW2FaK52NpmNCmjd6WQpP+o6Zl1A0t0lFUTCmKogQwxkgNikVcYoSxCzvW5uPBn3+CnWudQR7lfxV78znhG8BtdSVTtoSIJVOH823vpk7BHL8KER4rpj57JwdlxWyj0jT7dxRh3Sf7sXfbYbz0wFq/1Vg0dttX2ZIpM4qARL9tjZ0HriO4IoYmlKUSGQOi6wQVPVna1xWwQTRLw6ora3Fof5n4dPBCAgRW21ZVyDMmaWemk+lp5DwGDI0zpbe816uWyjPjA/02fXbQJH9MfLiZFqkzUDGlKIoS4NAQR4txoHhateQAtq0+hEd/uwzbRVywJ9/6pQfqVUJjKBJ81pUVtXWlQp0Fe+aFh9njb5Vza6mND6vpnr5jJR686VMsfX2XFYV+YDyFewrN0AWsLtz8hcTd1HW2kuJDFDJAxpAEUyrhTp7MakquB4xOssKqk5l0VD9TYsLrOLi7uMnbpXQM3jr3/vFZ2bO9pIFsNX6mZMqO8H/ceSOdLR1DxZSiKEogI5Yhvb+dNmbfjmKUFNlSn9LiKtx/w8e4+7ol2LP1cLPGOY5d/wWKFgqSzoTHLcktNkaMpS7FBZXNnksdEqY4v6JF4ZWWEWHiZvVY6WGOudR+aEBzjZDxIoIjsPuIJlaZcowkDuvgwh5/aSJkO4N5X+XciMDBnBJUlLWvN6LSOfBjYv2n+42AHjstzZRQdRQVU4qiKAEM7f3QcRxbyhriuio00SAULRQGTcFNuTsPm0iMbpDfeXvb0ROuGXj8pW/sxnP3rMHjf/gcW1Z2rlh76R/rcOhAKZa8stPv/IMdgW3RklKtWGObKfYdzB5ue0iy1OrE84fj6j/NxIU/ndzutjU8xtBxyaYHIc993ad2FPbeREJkDUalVyAlxvaK7GnMkAgtnEj+nmKEhXoRF+/BhNmZdp8OoGJKURQlQGH+HpsYjslH9TNCKHdPaZt6slHo7N2Qhzi3cXitFxs7uWSKVFXWYslLO7Fq0b5Onz9uxbt78X+XvY83HtsEM9FvZyGJS4FkSp4knTlchBmvS/w5l2D/4Qk46YIRSE6PxvCJKUhtZ9sa3sMJs9PNmmKquLBjpWuBBqtgM+PYa86LSVPiTVr2NKmZUYiK8pj03rtDPh78PDZrP9pvtrOqz4yG38HzVjGlKIoSoPBr+bhzh5pSjVox9Ls22akw2gJthO0NZ435oX22zVBnQ+HG+DsbCkCKqPYMh+APjsZO48o5+Zi+FDlkh9Ognz+nnDAAX7t2HMLC5Rf/O2HahezLkedNb8HQGqxast/Z0DvgqOyH9paYNEpKC4QG6CFmPDUOassq5JWf5DkbGnIgh6Wc9c9UR24xUTGlKIoSoLBqb/RkOy8dM/78A20XQhxp3J0W74tF+ztNlAQjRkzuKTYFFexZl5haP39bdUWNGESvCJ9afPV7I03VqhnbqhPgmEepcVVIjq5q9+jtgQqfp6bmFgxkeN5s30cRyEFhO6qmVEwpiqIEMMkx1bJUISOuAnu2fnkOu5Zgw2p32AKqiL4rpRrCUqkZJ2QZN3vY7dpchOKcQ4iLqjHTy5hCCyfZOAdickbzEzM3BauRho+LN7b64N5yW5WodBlM59boIpZCHnIGcY1LqhfV7UXFlKIoSoDCr2aWjsRG0sC3TwaxwTp78HG9+uMDLfae6yswbT2sxhMonGzpihfeGq+kVSWWvLILz9y3zmxn26qOjJQdHi43UQ64b1dpg6olpWsYMYFVuEBRQVWTpWZ8D8ytkIDam09RFKUXk5EVZXqbke2b2jc2UWlRNf5+03L86qIPsOKDfe2Kozdhrl8WGtv+o5Ktnywsqfj7TZ/h2fs34NeSVv+7cw22rPIZJJQ7tFdPOfvx2L02/Z3rYjL1KHJ8Vt/yNA4drDDjqvmjRkTz7k2F5nwHd8LYYiqmFEVRAhQ2PPd4bCPpzWsOt6tUiSUhFeU1IqqqOrc3XDAiaZGz3mloLok6cpIjpuR3eWm1SaN3n95u1mxTw+q/kiLb+27E5BSEtsPismRx4LA4cw8P7i3rlWJq+7oC1PLC5BrHTE0zaRvo8J677Qf5npmT7wAqphRFUZQ+hTGb8ic63JZacL7CfTu/PP5WZZmIKQ5lIDaXI6W3xd6yWtAVFZzahOzfXWaEXG/DTSOSkNK2dOosmNQURWbterQAT9kVt2a/lndpEhVTiqIoAUpEZCjCZTFIrt8bSzV6Ajbq7xcvAsAxnhys0x+useXaGlu7A1csMTQDeTpxuHBbar9oXPLjsbj0xvHoN8iOT2Xi8X+YXkHdpXVEkbQTHvKYMwbgmluPwNR5mXU9YAvyKswYaE2Rs5kzB9gzn3P6oA6du4opRVGUACUlPRLxibZx7Nsvsr1TL7bG3USkpxbJURxk0me0biarn6StLK+2pS7CEfOyjK3lkj0kDrc9fhTOv3a0GRzSFwquafMyMPeU/pizIAu/fWim8edgptvWt32csL4K09mW7jkezZCeHYPTLhqKyXPS8b2bJyIhOcLsV3ioslkxxU4ZrO7jIXjfWnGoJlExpSiKEsC4xoRd6lVLdQymX862Yqz9jKOdyw/+l2XjF/l+hSqr+YoPc/oe28aK94LrY88agNR+UZi7IBtJ6VHiacO7REeKUHPCur0AzeG+fIheSaPkaDNMs4mz0nD2ZcOQ7Cd9fWE6c5LtiLD6NG8tbBvnMnR8codOXMWUoihKAEKb0N754JSmYUPzu3/+OS4/8S1ccdJbuP/XK/HAb1e12JaJd8K9Hylp4daIR4baDgLGtx4O/BnSuKjLiKneqaY4/IDtHBGC8AiRFW14bMPCQ83i7sM0nnF8Jr5/22ScetEQLDh/cIsN/5nWKbGVbTmsIWfrYXvfZcf+w+LbJMQao2JKURQlAGHGPmGqbfuRn1uJ8rJq41Y6DntxsWcjG54ve8+OCu9P59CP3ecphDga/cgp7KkGjJuaLPbXEVF+7a8XcVHVZhNLTQirm/bs7JqpfHqaDctz69JvyrFZ/pOkEUxHiqgrfz0BV/12Io45LRtHHp2Os741FJffPAFhYVaoZg6IbiKNGxIZVovI8BozVyChuDt8yFbRNokEdQdRdRuvtxcVU4qiKAEIM3a2l6KRKi6sanK8HKVj2BIV/3BLbk6pWVPcxiVEYNjYBFmHOwY+BFHRjdtMiWGPDEW8iCmGce0zS0AqynrXVDIuJgUdNWVKd9yL9gOr8CiSBg6Pww//OBnTj8vE1GMy8O0bx5nSqLMvHQZPmAgbo05CkDXYDivRHBRl3IeD29r97Ols29D8jAEMs3W1nfg7KjYM/YbEG3d7UDGlKIoSiLRgQJTuh2NGnXB2tpmix2gG+T3rJDslTR3iP3FqAqIiahEWqgLYhelFIXXiOQPwnZ+PFSF1BCbNTG0gwkz7MlnTi23bWC2anh2NcVNTmhVU/fpHIjk1HNG+JVOycqJuEsafs+WwEWExkbV1+7YHFVOKoigBCA3L0DH2S7mystaM2Kx0LzS2u7fYaj7ej+kn90f/IbHNGnYXBmHbKZeFT+zslWNMtYb4pHAsOG8g7n35KFxy3SgcfUoWUjOjTKng54sP4oqT38V7L+7Ghwv34N9/WY+H/7AWv/nup3WDzI6YkGSq4Voi3EMB27Y0ZvUgxVRKIpCWGen4th0VU4qiKAFK1sBosz6QU46SIm0z1e2IXWY1H8VTpAijwUOjGrThYWlKRn87jpQ/IsLqq/VMKUlv1VK+12XSpqHw+eYPR+HCa0eaIQu4iW3U1q/Ix/MPb8PDf1xvqj8fkfVD/7cW7zy3G++/mGMatVNoMe2POiUbsa2YP48lS2F1JVOybqFoimJu1UcHzbE42n1ZSfvfMRVTiqIoAUhd6YcYhN7aCyxYSIyuQlJMFbL6eRCfZOd9Yw8y3qOx01JsIAezTf5w8fQRC8vHc+uafOOOjg1DnDM2mkv/gVEIM70evVj4+A7c9v0V+P11K/DcQ9uQf7DClNhxYekr14yPguv9l3KMQEpI8iBrUEz9O+GL+EVGhZp0574v/nu7mVB6x6ZifP5Rng3TBDzO5tWF5lxuu/YzbPiiwNnSdlRMKYqiBCiu8TBSSvVUj8BkL9xfYgWtLFwfOlBfUmj79DW08iPGxJp1SYEIBUcgLPvgoI2jF8Lr2r+j2DyvkdFhiIqx0+eQ6FgP4uKAmMhqRIdX44l7NptSKZYGMV2agkm1e0sRIsJETCV4cPSCTIm/YToTpv+RsxLNsQ/sq8Tbz+/B765ajt98b5k5RkvwHNYuz8f2DUXmXrUXFVOKoigByDFiPNhOh9n7lnVFxrgoPYAk/CN/3ojlH+bigdvW44Fb1+GWq1bgwB5nmAMx4hFRPqZUficm23Go3npuD266dCl+dsmn2LuztM/dQ6ZBcmoE4hPCEBpSizef3+tsaR0cTsJNt+whsU2OuxYjgo3pXl5aY3q95udWoLq6exv/q5hSFEUJIGiA3K7ebjfvg3vKrUPpdmjIV356CH+9cRXef2Uv3l+4D/tzSrHyo1xTqkHzPnx8krlvLq6TBS/bNxZh52b2THM8+xhp/SKRkBRmrn/3ti9PJt0c5WU1WPLGftnXizFHJGHaMWnOlubpibRWMaUoihIgUDxNnpmCPz8+Dd/56Sgx0PUWuo/a4oCADZVNdZ0sdNNYF+ZV1N2USM7P59wrH00l2LA9YdwDAkmM6GgPwuXjgGmwenmhs6F1ML3ffXGPiFbb/uyYU/rZEdYbwaS3LbJMilvPbkbFlKIoSg9AA8BqPN8SDf4+8StZGDC0vkrDzslnzYQSWLh3xL2HXA8ZGUPLbgVUX7llvtfp8zxT4Bwx05basY1ZRXnbBi1lGuYdKMcn7+wXMeXFhCMTMHR0o0E8xT11dpJZlxTVyDG6t3rPRcWUoihKDzBsTDyuuXk0psyuH5AwLiEMAwZFmh5MefvKsGn1YXz+8SF89E6uEVVK4LD+80OmlIpGfPKcdHMPWZJoDLvAUpWVy5sfgbu3wOrOj1/bbdxJaVFIza4fLiIhyY4Wn59XidLimjaX0jH40w9sQ4i8AHHxHsw9iWntvDACXYnJYSb9eQwKqp5AxZSiKEo3wylILrt+OI47PRM/um0s5p2SadpJZWZHYciIGISH1eLRv23GrT9YiT/+dLU12kpAkbun3AgDY9blT93aOKwI6Kkqpx7B36VKWkw9KtmIn5LD1aYNVJuReEuKq7F3V6mJLy0zytlQj5Pk/s+hm1AxpSiK0s2EhQHJibVm7J2ExDBc84uRuPQHQ3HupQMQERGKvP0V2LG5BEU6J1/A4jvMgU9BiSJQPHH+vcSkcFPaSvLzqlBW2r5SI5byBfp7oGJKURSlm6HtTY8vRWZisZm/LTLag1O/no0Zx6Saj+u9O8uwf0+FCasEJtRSB/ewtCQEWYNizdhKZsYTV1jxRvZgSUlPMnBoDG78w1j88JbRRlhReK74KL/NVXwu7m4meX3TmLi/JVBPJreKKUVRlB6A7aKSY8pRWViInVtKxMeLiEj2evLi7Zf2181LpgQmrHrdvaXYzAeXlByG407LwJhJ8fj6N7PNdrYj2r7FGYuqj3H2Rf0x5/g0TJ3LKj6mFdpdKkXqSqYksozs+mo+02Hj9HTjZnqv+bzn2qipmFIURekh+KWes6UAP//uF3jgD1tMT6TqKi8WvZlrRJUS2ESF1yAtvgpjR4fhihuG4fpbRiM23mO28fYdLug78ylWVtSgpLDSfCT0ywo3ExPzCWY6cJqY3dvbNsaUL5wzb39OuRFmw9ibz/EnpqRK4LHyDlbZHz2AiilFUZRuxhMGRMfwkx0oyK9B8eFqvPHcPvzwohX49mmfmoa6qqUCG96f6tIKMexehIp+4iCr2YOi68ZB6mu3jxMFFxdUmpK6mIhqhIdW49X/5eDRu7bhr7/cgG0bWPraPpjWLHky+CopX3o4wVVMKYqidDNR0aEYPDRS8n8vPvuU02XYSV63bSxB3oFKFVJBAO/Z6yKAC/IqsXp5QV0D6Tpbb+5h37qRfJ5TY6sQ5vGipLhKPhD246l/7sL7rx00z3en8SVBZUvBevLFUTGlKIrSzbBqgo2Vmfd3qpFRug3eu01ri/GN4z7GTy9diS3ri+lbZ+hzD1T0SVGcGF1lkiBnezl2bO28+QiLC6tNXIx78IhY8w5xxoCps+0kx9y2S47ZU6iYUhRFUZQOsvitXHh9hPE7C/P63ECridHVCPfYUtZXn93fqaORb1hVaKv6RDmNGBcvK46vDqSkhZvt7BCwbVP722V1lKAUU0aRMhUVRVEUJQB46Yk9KMyvbwBd18anj8CG56mxlcbN3ndLFxcYd2dhSrjqkrReAFhJ5bOphwg6McWBwOYcl4IjZiSYBn+KoijBRihzXif76mM2t9fC0pgNq/rG9DH+YG8+Tv7MIT02rStB3kErrDoNn/ekrjBF1qzqCwSCSkwxAWcdm4zb7huDPz44HnNFVCmKogQVko8tOC3RCKrSklrs2qENznsDFBGff5zvauQ+R1lJDe783Vbc+/tt+POvtnT6OGmFBVV174mt5gOSU8KRkm6r+Xqa4BJToSGYMMlOoBgeEYKk1MBIREVRlNZCY5ueaafYqKnhYIZ9rGFNL+bA3nIzmW9VlRdfLD3cp6r6KHR2by/DC0/sM71SO/sDgZN+u+nJBuh8kaKigNhoW8X4xgsHTPViTxFUYoq9XzgBqIu2nVIUJdjpO+a29/O5CKhbfrIRt/x4I1YuO9znShx5vRQ8XXHdDeKk7XecyXFlSI0rRXxkRY++S0FXzXfxd9KNCiXT5yaZ0ipFURRF6WlYKrXk3Xy8/3oeqnU6oE7HFVShIgZo+xMSPUhK8phClrKyWtnec2kedGKKjc1cMcXfnamlTPzOoiiK0lUwizG9kJiVqc1VlBahUFrzWYF5d+KTwpGaHonYuFDEJ9jpe15/uRC17Z/+r8MElZgaNCTS9OYLccTU4BHRZqLDzuK4BSl49t0j8P2fDUKY9hRUFKWLuPg7qaYB+uHDNdiwrrxLqkUUpTfBMbv27Cg1XyK0z2ERgWWjg0pMpfcLNxmQJ9TmPJlZkZ1SisQ4klPDcN1Ng9GvfwTOuSgTU2cn2O7LiqIonYzJt5y8S4WUorQReXdYkJI9wB2ws+ffo6CSC4OHRjUoiWKdaWJKx3v0Mc75Z6QiIzPMuCPCQ/Cz3w1BWkaEqVZUFEVRFKXnoFZyBVOoJ8SUTk2bEWs27NpZiYMH6gdM7QmCq2TKiB0gLNT26KP72AWpxt0aGreHopvVhsefkozvXJslNwcoOFQpAsqLgYMj8If7hiM5WYdfUBRFUZSehNPFcBwvkpAYjtQMWzNFfdVVPQjbQtCIKQqnuDjb0MxtM8WEjIm1fq0hPTMc4yfFIjnFjvEycUoc/nT/cNzy12FITg03g4zd9P3N2Lu7wmwfOjIa2YMijFtRFEVRlJ6BYungXjuRMWc/4ViTKanWlrPnZE82PidBI6ZYpTdiTJRJ0A2rS4wc5USHR53QulHQ2eL/t38ZivufGI17HxuFa36Sjfv+MwpHH58Ij+ixykovXn42F+tWleInl28y+7BGkcdQFEXpDJidTJgcbda1tcDbrx92tiiK0hbYBGfusXHGvX9fNfLzq427pwiqkqnIyFAjpjiZJLtJMkOKE5HEJXtAhGnv5A+GGzw0EqPHxSAmNhRjxkfjsquzEBkVgvLyWix8Pg9fPX4Vbvv5DpSW1GDP7koz23V4RCiy+mvJlKIonQPzouRkW5rOPGzf3p41AIoSbFADkOiYMDPeFAtWqiq9qOnhVyloxJSHJVOjo0xKrv6iFNs2l5pETU0Px/3/GSXLSEybZVVqY5jeM+bEISVZ3Kgf2GvzulJceeFG/Pm3u0zVHieq5CZW923ZVGYauI0cE2P2VxRFURSl5ygtrjZT9pAJ05JMIYujrXqcoBFTifI1F8GSKXEXFdZg+ZJCRIVVIT2pyhSbDxoaiQVnJptW/g2Qn/GJHpz/zTRTnbfysyLc9INtePGpXNzys51Y80UJDhc0lLTVIqq2bCgzwmr4qKgvx6koiqIoSrfCgo6Kshpjm886N9m0nSIrltnClZ4kaMTUqWeLUJJ0Y4KxrUGkpwrR4VXOmFO2yi88nAN62vAuLNH65nczTHUdS55e+N8hvP5SPm65cSfWriwxcTWGY1bk51XLsbyYNDXe9PgLdNi4/he3DsCtfx2EiAAbzExRFEVROoyYNlq3hOhKse1iqB1Tx6Y5bo1TTxE0YmpQZi7ioooRGVqEdasK8e4bBcjLrcbuHRXYvqXCiCyWXDWWEWnpYTjptEQjsqhqX3423wgot0rPH7wpny45bMoP4+I9db3/ApmZc+Jw7gWpOPPcFFxxXT8kJnmQ0S/ciCyKTDtyvBNYUZQeg+8k30XmQzu22Z7DiqK0TIgY5azEEmQmlCI9rrzO3vsrFOlugkZMcT6+gSk7MCB5J8JDK7Dys1JcdNZGfOf8zViz0hbxDRgc8SXBEBsXgthYKyRee6nAiKiWYFx7c+wM1GYsq5OT7IYAJj2tVsSkPd/vXZuBp18bhcdfGIEnXxyB598ahV/e1t+0AeN2FVWK0jTsJdRV7wh7B48ZFyVGQMyCGIDF75c4WxRFaYmqiloUH640BR2ukmLhx/tvFzVZONJdBI2YIqEhtWYhHKSLRXt7c6rw9qsFJkFHjY3+UvumyIgQJMdVIiaiAv/+x/5WzeTNm7JjS7mItmrER1XitDPjERUd2EkVFV6BlNgCU/TJwUcHDopA/wERyB4YgWEjo/D1C1Pwx3sG4eTTEs3YHCqoFOXLsCT62BMTMPuoOPPhoShK4FBcXIM//24P8g9Vm1Iql5JidixzfvQQQZNdTJ9eX01VU2MFD/HKP7eIj90kfUUC3ZlZYUY8FBdWobysbakdFlpj4hg1OtKMiO4bdyDB8+KSGF1kBBWrMzluVoWoeA7xUFXFVAIWnJ6IP9w1ENf8OFMMRYBejKL0EBRPp56ZiL/cNwh3PTQYk6ZoT15FCSRo91kT9Y+797eqlqk7CRoxddxxtoqqshJYtqxeTFElrP7CGcRTtp9xTv0gnswIZ82JNvvt3lVlZmhvLYz/Fz/abUrA5L8RJYEKr2/yZI855+L8w/j6aRvxlZM3YsbY1WY5Z/5G3PF/+8y1cKyuGbNjzT6KotTD/GLM2DBER4UgLi4UDzw2BKeeldip74r74VPX2ENRlDZBO7fw+Xxs2lBmClIO5bJ3n3j2MEFpUn0bmzENcw9WGcHDTMq3xIWNrvtlhZkwRkwVtk0Qfbyo2JSCMR4W/wcqFJGp6fZWbttWi80bKrBlYzkqK7xm2bS+HI/84yCqq+wDZzJzRVEawPciLroUEWHsKeRFSkoo/nhnf4ybYEcs7wzCwkMwfmKUcfNttGXGiqK0FtrzvLxqPPZQnul1f9ef9xu/nqZ3lE9IQi56p1AyvBCc9bX6kqlQ0T9nnJ1g3Js2VpqSmbbA0dF3bqsQIRWKseM7L0NVFCXw4PsdHw+kJeQhKrzc/GYP4UlHdt67z3iio2pl7TVj3PX0fGKKEoyw88bTj+dj9sR1ePJfh1RMtRZmQC1lZgf2VclfSVEJyGJ5LmPHRZo1E3r9Gjt8QltgY/WiImZ8wJDhbDPVSTlqJ8OxtIYNtVPt2FK7AHiyFCXI4MSpY8Z4TM/hmMgyx1eyFGfdGYTJB97QIbVIiilB2eHSNn/gKYoSmAS8mKJ+mTDBuikUPvrIf+azZlWpUasDBobj//6Whfse6o8LLkkypVOsT/14iR3RvC2UldZi3eoyI6KGjbBF84EIBeOwYVZMLf202lRNKorSNiia3GERbF5hMwzr1zmSyhMGZGd7zDHefce2+VAUJfgJCjGVlFSfwTUlptY6Y00NzK7B+Rcm4pQz4nH+RRysMwRrVlYg9yBHNHcCtxKGZzUfHcedGG/OIWBxzo2Zs9/rFD/Xm2PcKIrSCHktPE6OuG1LRV0V3LnfSO6Ud59xTJ8ZafMyeU+bfFcVRQk6Al5MtZbq6lp4aksR7qkvluEXJVmz2k6M2B527Kg0jdvZsD0zy45cHIww0+b8RSQqJgSp6YE/qruidCeRkcDUaXYMtqf/W4oqZ0w6lvx2xnvPeKZPl4MIRcW1WL2q0rgVRQl+eo2YiggH4mLtFDFlZTUoLeFnnxURHan2WvxekRm3iV+t804IzNKpy6+MND0Oea1bNttJIBtDQbh2FassRUxFhSI5WcWUojRFQUHT0021F76jV1yTaNwV5V7s36v18YrSWwgKMTV8uB2Mk8XiW7c6nj4w0zt4oBqL3isx1XlXXbYXF399F5Z+Uob9+6rw/NOH250x8pg5u+wX5NQZHJ8p8NSUr8DbuVNO2B8+1x+IglBRehK+E0OG2OFPmFeYGRZ2sVOLfKTFeZCa1vaPD8bJ0igX398cVPfgQRVTitJbCHgxxQwoO9uumcm98IJ/VXQorwbfuWQPZk7ainffKsYyEVLnnbULc6duM6KqvWKK+733dhEiw6owcVK46fETiDB9SHuvU1H6MhQ5Z5wZbtzFxV6sXFmD994pNu9VdEwoEhLbNs4c4xs7LgI3/iIFSUmhJp7Zc6LqxNTHH1WYDzVFUXoHAS+mfKFQaEos0J/TpvCLz23Yyd9Vzu/2wnjCPdWIiazEqBFezJwVeL36hgwJqtuoKAGJ+0Fi8o9aVvPZzKY9n0/h4SF49Il+uPb6ZDz4r35mknG24aSYYrQrV3CoFhu/oijBj1rhFmBx/9KPSusmSA7EDHDBKRHwcAgIMQLvvVulX7yK0kYocliCRPj+VFfDzB5AOGp5W0ukGV//fjVmfdQx0Tjn63E446wY026KLFmsJVOK0psIeDHFr8WMDJsBUcd0dwbEYy5fVo7t26oQFRWCxKS2Ffd3B242z6y/Ka1HEUixRcwXuLuToijmnbjoYtvTrrTUi82bavD260Xmd1Kyx4xf1za8SMBBec1q4Qmtxd/uTsVF36zvwLJmdWWT76qiKMFHwIspMn68zewWLepYlV17YXVh0WF74IQE2/4hUGgsjJrKn5lxP/5onnEnJoVh+EhrOBRF4Xtkq+FITTV7BHtRkG8biPMda+s7z+BhqEQS9srLV2P25zvIEq/CwlotlVKUXkZQlEy5GRkzo574miuTL9VtW+2gnyyyd4vqexqmC9tLRUXZdNm4QTL/JtLHpp3dyKqHthoHRenNpKfbHsOEb4n7Grn5Tb/sdowxJ+E93nJ8tigXzz1djO986yCe+V8xrv5erogp9wiKovQGgqJkqqepka/IwkL7lZqcEmrESKCQmBRiGrfyS/f1121XbkVR2saYsZ66sdr+fm+ZGf2c7/yGdeXGb9KUaIS24SPq+5fb0dQZz7//VYprrsjFKy+W4Norc/HG65yTzwmoKEqvICjElFuSYktXHM9uhD17ln5iM9XZcyRT7cJU43WyMXl4OGesDzFuLUVSlC7G9x1z8xiuffKbNr2GDCwLd9+717b1dBe37aKiKL2HgBdTFBLHHGOzsY0bu78BOqGI2rWD1XxeI6Rmzo52ttTD8+yo6OH+EyeF4dbb4/HAPxOxflMafvmrOIweHYawMLs9Li4Ec48KxyQJN3yEB1nZoUZ48RzZFqO18DpGj/Fg5qxwJCTWV3EoSl8kOSmk7iOp8HD96OfuOiam/W0lnSgURenFBLyYIm7J1L59PdMAnRnqsqW2ZIrnMnR4w9GQ6TdylAfHHhdelyG3l/89k4Srr43B174ehfT0UFz3wxi8+EoSbvu/OFNKdf4FUXjuxSS8tNAud96VgNhYWz3x3DOtr+YbOtSD5yWeF15OwpVXdW1pm6IEOvyI4ftFXnze9rQrKanBrp2VRg3NmM3ZD+z21kDdZbSX7KsoSu9HTWgrYea6e1c1QkJDMGdufckUM9iT54fjzbcS8eLLiTjl1Ih2CxMKxv6ZVbL2oqK8Gps2VZsSqez+obj4m9H4v9/H4m93xCA6OgSpaaEYONCD7GyP2Y/nV1TcfM7NnkRFh23brxNPipR4PUaIHX9CpIopRXHge8T3ib36OMdnaEiNvHOywaij1jF0iH2fSWmpfT8VRem9qAltA++9I7mifGoOGx5mBA2XH/4oEv94MBZp6aHmy/b4E9rR60fgPkMGA5GeIkThEHZuzscZp+bjN78qRkFBLeLjgauu5uCctZLJ1+C5Z8vNeDgQ4VVHCxl2RXmt+dJmxj7liI6XoilKb4AfLBMm2mIpI3p83qPIsAqkxeciOyUX738Qj9/8lr15nY3NcNoC+04zvhWrnHgVRem1BLQ5ZWY0erR1s3qPX3g9SVFhJeKj8jFnRjH2HUiQJdFkrqlp3Gpzy2HD2CvIONsEr3XiBFlDLtRbjX8+VIuc3bX4y59KceNPirHyczvZcnmZFzffVIzvXlaEX98sQiu/xkkbL2pqWs6x3Uydes8VfWbtuBWlr8GPivjYGtPR5KMlVXXvCNtIVpWVwBNSjcjwakye7MGPfhyFuXPD6t6dpuB2N0xFhV0ritJ7CWgxRVFy2mk2R6JgWLPGOHuM2Gi2n6g1mWRERIgskmFKChYUePH4fzjXFky7qaEiqNoK4xw61K55rexSTWpk/Z/HynHl5cXIyanF889W4bHHKlFe7jVduL/7bZZcefHfJypQXGz3aQ0xocUIra027szMUGRntUMBKkovgO9ceEgZwr2FeO3lYh8xBfNer1pZY95DQuE1eHBgDdyrKErPE7BiipnVkCEcQ8n+ZsZW1YPDKPH499xdifffq8arr1bjww+q8fJLVfjXo5X42Q1l+Oufy0yYME8I5sxp69QT9nonOiO9c1yrh//lbBAYL2exHzWiEJddVoJDh8RDoOh6dWElBmTl4/rrSo3Aai2hIbUipmyChosoZI9ARemLRMizP2umF9VVNVi7tta8b4Tv19KlNZg96zC+I++dK6haIibGii5FUfoOAfvKX3FFKD74MAzX/7Bhz7meZO/eWpz39VJcdEEpzvlqCS65uBTXXFWKf/+7Ehs31piFJVVz5jbfHokC8Yc/CsV774Vh5kzbJTtSBE1Gpt3OcWiYkfvCDN5dfGnKv2XqdzAf2a340qbQ47nqV7nSm5g+3T7XFEt5ef7fMVNa7LyTHOCzqfeb78boEUBUpA3/wMPOBkVRejWhnJMqVHIGj4e9wqyV9PXj2sxb5ceP+PPzDevPzw3rz88N+7Mbw5GR4UFSkvFqENY3XFvi9OfnG9afnxvWuj0oLQ1BWRlQVORFeTkzWo/84b4heOmFCknQKsya5UVmJrtahxrhxBHK6WackZGhuPbaUNx6qwdHHe3Bn/4UIdtDERUdguwse/yXF9pjNXWe/O3Pj/jzc8OGhrIqT/ZFrahoWgZ7nAg5p8iIltOObUb++99QfO97LMlqGNYN13j/luJs7Ocb1p+fG9afn29Yf35c+/Nzw/rz8w3rz88N68/PDdvdcXLtz88N68+P666I0/X358e1Pz83rD8/37D+/Nyw/vzcsI39jjvWhq2s9GD5Z/7jfPEl25YqRL6WjjySPXb9xykZqnnn6eeVfKG4xPq74XzjdPf35+cbp6+fb1h/fm5Yf36+Yf35uWH9+RF/fr5h/fm5Yf35uWGbi5Nrf3787c/PDdveOIk/PzesP7+Oxkl/f35uWH9+btjujpNrf3787c/PDdveOIk/P9+w/vy49ufnhvXn5xvWn58b1p+fCZuenu698MILzY/nn38e27dvNwG+//3vm0AbN27EwoULzfbLLrsMCQkJ8sVVi7vuuksyCy9mzJiBOXPmGPedd95ptsXGxuK73/2u2f+1117D+vXrjfvaa681ce/evRtPP/20ifP8889Hv379GsQ5ceJEvPvGiUhOZ/nJ/bKtHNXVofjnP6/Gli0heP/997FixYoGcebJJ+W///1vE+dZZ52FoUOH1p0T18OHD8cZZ5xh3I888ggKCgoaXOfSpUuxePHiujiZUCUlJfjHP/5h9jn55JMxbty4ujh5vgMGDMC5555rjvnUU/+VtNhvxAZwDe64IwRr1qzGCce/hZQUnvPlci3RuO66GqSn3wWPqb+ci6LDR4qwqpFzuhNvLKzF5EkpWLHyEjz+JO/HS3K9WxqcJ3+/9NJL5pjf/OY3kZyc3CDtpk2bhqOOOqrBeUZHR+Pyyy9HeEQojl2wDqPH7sCAyB0Ij74cVZ5YCbMPp5/2L7z7TiW+/vWvIzs7u0GcvO7580/GhRd6MWXKP1BVVSpCNxSXXnqtOadFixZh2bJlDe4H05fpTJjuTH/fcxo2bBjOPPNMs533jffP9zqXL1+ODz/8sMH9KBf1+ve//93Ec8IJJ5jnxDfOrKwsnHfeeSZOPl98znzjXLduHV5//XXj5vPJ57SmpqbuOvkc83n2jTNJ1Py3vvUts8/LL7+MzZs3G7cbJ98XvjfkoosuQlpaWoO0mzJlCubNm2fc9OPxIiIicNVVV5n933nnHaxcudK43bTbv38/nnjiCRPnOeecg4EDBzaIc8yYMViwYIFxP/jggyguLm5wnR999BE++eSTujiZdoWFhXjooYdMnKeeeipGjRrV4DoHDx6Mr3zlK2b7448/jgMHDjSI8/PPP8d7771n3FdffbWI6XB5Dqpwzz33mHiOO+44EduTG8SZkZGBCy64wMT53HPPYceOHQ3i3LBhA1599VWz/dvf/rbJW3zvx8yZMzF79uwGccbHx5uw3J/7Mg73Ohn3rl278Mwzz5g4eWyeg2/aTZo0Cccff7xx33vvvSKgKpF/MAwJSdfI+x6Cece9Z67VN87c3Fx5nv6DPfsSERN9uryD/fHPB8vx17/avGXkyJE47bTTjPuRRx7GyGGFeOvFUMQlfx/vfBCCX//uUyxZsqQuTt4P3jPeO+7De8l7Srd7nbznvPfkySefxL59+xqk3apVq/D2228b9xVXXIGoqKgGaXfMMceI6DuyQZypqam4+OKLTZwvvPACtm3b1iBOPtt8xsmll16KxMTEBmk3ffp0zJ07t0GcMTEx8nH1PbP/G2+8gbVr19ZdJ+POycmRvPEpEyffTb6jvnFOmDABJ554onHz3eY7zvTh/oyHeQDzAt84Dx06hH/9y7aDYB7CvMT3nNy8njz66KPIz89vcJ3Mq5hnuXHyeGXyhXz//febeE466SSMHz++QZzME5k3El4Pr8s3zjVr1uDNN980bqYH08X3fjBPZt7sGyfzbubh3OclydOZ/r5x8v7wPpFLLrlE7EhKg7Tj/eV9ppt+PB6fAz4P3P+tt97C6tWrjdtNOz5HfJ7I1772NfTv379BnGPHjpW8fr5x0/bRBvqeE5/jTz/9tEGczFseftgWwfI94Pvge520xbTJ5LHHHjPvk2+ctOW06W6cvB8VFRW47777TDx8X/ne+saZmZmJb3zjGyZOvu98733jpOag9qCb+QXzDd/7wXyF+YtvnMx/qHG4DzUPtY97Toyb+RfzMULNJNqpQdrJeXt+zcydmefOnTtRWlpqIuDDcPDgQezZs8dsI/Tjg8nMnkaEcN/q6moThjffidTcVPrxIplxME4aLzfOvZxjQaChP3z4cIM4mVFffn4NYkP2o7ZoG355e41kXJCMM1bCHTBGkjfQN04+JPQnjJPHbBwn4TkxUWgIfPfnvry2xnEyTUhkZKR54dw43esME1Fkr3OnZD5lIq4knaJjMGf2QXmAcsTA5GLEiBB5wGIwdEgeRo7aL/ttx949NXKDoyXeSrnx++WB2obbf+eV43vw8L8i8PEnNu34MDe+HzwHQj+KlsbX2fh+8EFgmuQePIBhIwswaEglEsIK4QmVDNjDVutivB/fIeE5no7/+xEaWoujZh3AwME75Pxr8Pvf8ws81hzH3/3g/XXvB58FXodv2jHdeF7u/aBR892fmRUzTV8/7s+whPeDGW/jON37wfvG++WbdoyTa9ePAs73Ovks87lonHY8Fv2auh98TgjTjunQOE73frjnyTi5P/2YRkxv3+tkfDxXwjiLiooaxMlrZDxunIzfd3/GyeeicZw8f8Lr4Xvum3b2HtffD2ZmvtfJOJlejeP0vR/cxzdOvh+Ml3H6ux+N8xbe76bSrrV5C58737yl8f3g+TBT5f7bt29DXFwtbvoZvzZj8cSTB/Dqa1++H4xv374cEdWRSEjk+1GMZ5/NEXG+rS5OwjiZHulpVbjkG+ygEotPlx3Ey69+OW/hOTWXt/Ae81rdOBvfDz4fNEquH92N047vlG/aMU76u2nnL69nHIR+rcnr3bzFjbOl+9E4b+E50SBxf/rx3jBO7k8/f3kLn7vm8hbeD4bn/kw7f3l947yFcfrej5byFm7n/r5px7Xr5y9vaXw/eH/dvIVxNpfXM+2ay+vd8/S9H7xO5h2+18l7wXgJwzXOWxgn4+H+TLvGeQvvcXN5C+9H47yF6eabt/jL6xvnLdyfYUlT94Pn6qZdS3m9v7ylcV7vez94Pe798E07XithnI3zFgb2+i7iVeeWBKjzc/2b83P9Xbc/v5b2l3P39u8X4j2wOtRbmxPiLd8W4pVrlDAM1/z+TcXp+vkuvn6dFSfP8+ijQ7xffB7irakK9XprZF0Ns9RWi7tSrknWmzbBe/rp8C5eEu6tronwPv9CmHfM6BCvt1LCVYR4zz+vPk7f43T0PMPDQ723/mWgd9Oecd7yQ9HemsJwb3F5P1kyvSeeFCFhmt4/KjLE+/Izck1eLiHehITOOSd/fn0lzo7u789P42x9nMxPjjka3srSEG9FSYg3MaHpsOHhId577ovxllWkeNdtSPIOG+apC8u1u3g8Id6zToO3dF+ItyovxHvrL9t2Tq6/6/bn19z+/vxcf9ftz6+743T9m/Lz9fe3vz8/1991+/PrK3H6hvXn19L+/vya29+fn+vvuv359aY4aRmNKnMX4rr5xeD6kZb8XH/X7c+vNfv3y/AiIsz6/e0fHD+JjTkZrvn9XXz9XH/X7c+vs+LkeS5e7MVpp3lxzz21ePwJL84+G3jrLaC6il8Ntaiq9OLKK4A33wQ+eF/iE+V/2vxaPPygjZPzgu3cUR8ncd0dPc9a/paF4+ZEhLDBVy1CvBwewYtj5snXXGjT+3Nw0BPmsZ2V9Rs4kOuOn5M/v74SZ0f39+encbY+TuaDx85j+wm7f1V188cXJ30h3xz2nxPW3e4u2f34hS/hxf1XyQfccITu5s7J9Xfd/vya29/F18/1d93+/Lo7Tte/KT9ff5eW/Fx/1+3Pr6/E6RvWnx/x9XP9Xbc/v+b2d/H1c/1dtz+/3hSnbaUVYITY9lxyonYJJiR9kbMH+MH1wMWXAK8sBM48Czhw0A7ed9vtwHvv22Ee3nm7RsRULcJEZM2aafdnmJIS6+5qaBRCnCns2dg/1El3f4R55GGp11Jg84HQgHx6FKV5mL+4y7xj7JrvLZemYD7Esd8YNjEpBAkJ4vADfRnGwH2CLP9SFKV9qDnsAlwR6GbQFEgDBwMzZgG33GrnyKP/smXAosXW7e5HIUXh1V20Nq+/8lsNxVOdwVCUIOOoOUBqin2GQznUmryPjzwMVNpJBvzCUufHH7cBkpNDkNiEmFIUpW8ScGKKGdyRE4HYGCsyPvzE2RDkUCitWl0vnEh+AXDyqUB0ApCQCnz7e8CYCcB+2ya385FzqKz0IjLEzsvDc+FkrmTCJHbzbNpAeDwqoJTgxiO53fevAt58BXjuv+woAgwbKK9FGbB1s31HW0uT74P4cRBQbuP71ZY4FUUJXgJPTMni2nTmQ0u/sO7egL+MlaVU/CIuLgYe/bet/vMVXJ0J63cXf1AkYqrMpHNeXi22ba0x5zVmNHtc2HD+OEtEn+/m44/nWBvOD0UJAihwTjqO7ZmAGdPZ8wgY2N9+UCz7rGXhc7jQi4MH7cvJCc35/DPOQQPs7AWsCud7dfw8679+Y8/O2qAoSvcRkObQfPHJwsytpQyut8Dr7CoR5YtpImXSlIkrx3TTl2neBLwf/TJkzbBO+ClT5OFRMaUEE/IchzolsSxZuvmn9tmurgF22J7dzVJS4kWhCCq+q2lp9mMiPk5E0+fAJ+8BF1/AKkAbNykusVNDKYrS+wk8cyiZ24QxZoWCw7atgtK5hIfYth+ujmoOGpuB2XZ6jFbtoCgBCvOUCcPsmoLnqu8ab5PH5NjhY1rG5x1gHD+9juPgcMwe4O4/AW+9CEwcZ98bRVH6DgEnppgHseidmdHmbUClFpN3OjGeIrNm26z/PV1tvrQ9nhCc+3Uqpi+TKl/bbAdicIwJv8ppQBQlaJA8ZUCmrNw8xSk1+tNdrSsV5rAlB3PtC3D+NyLQPwv4+lkSn+xbUGjfCVb3DRhg8y9FUfoOgVcyJdTlQ5Jv9ZVqvp6Aabt5s3yWi4Nj7jDdufCLm+1KuKZRSE6yv3krasvtDaHhmDbNOBUl4OFzPGKwI3LY/6Kuutu2bWqNmCr1qeYLCwO+fTEwaKCIrHzgku8ADzwkYRi3Ey/DOSOPKIrSywk8MSWZXUK8zfSqqluXySmtJxQUT84PIjl+ROVhxFTmIzu9yky2/IsfAznrgO+IsaDRGDIIiI6yhuHuf9jd9MtbCSb4vM6f5/xg0wGffOWF16zwaQlfcRQeUoMbrrMfGUtXAO8tAn50E5AxDHjtLWBXDvDiQi1ZV5S+QsCJKWZ6R8+06/WbNTPqTGgM8g+UmDXbiWzZJg9ATSU81RViHKrxy+tq8NazwK9uANJTgV/fCBx/NDAg294PNlZ3xS1/c1GUYMD3eTWiqNzH7SwtwTBLlsgXnjjCK8vtOyHvwyuv2xIp9swtLQPOuQg44XTgL/fox6Ci9BUCsprPpbxCM6POhMZg+efADb8C/vOUiKbbgaef8+KzL4C8Q3bcndEjxeg44TPTgJefAC67UB4UeVK4rzOJuakCPOoo61aUQIfP75WXWDeHK+Dzz5LvZStaJ6QIw+XsrkWoqCYulSKgbvujLa317ShTJkJt01bNuxSlLxF4JVPOWukaaBDufEAE0jXA2g2S4cvvE84C5p8D/Olu4FC+GIg/AwvftAaCAx1yHB1+hXNfDjxK7Fe+3i0lOODzasavk4XP9Q2/BU47D7jo8oZCqEVEIYWViYqSl2GdvD/3PqSiSVGUbhRT/DJk+xu2MeCav31hSUd2JrDgOPubGdShAutWOhcaDy5MYwokjofD0qmf3QL0Hw/cfDtwzsXA488AG7cARUW2CqPwsF1zH+JWmyhKoDOgny155SO7aw+Qmwe8+a59vlsrhvjcH9xbjZqqWlO6tUzemQO59e+Doih9G2YFXbqI0fWeeDS8bz8N77vPwPvSv+E95Xh4RUB55WvRrM89Hd6V78K7fZnkTXvgrdwJ72kn+o9Pl+5ZIiLgHTQA3gVyr+79PbyjR1i/mpoQr9cb4v3730O8Ior97qtL1y58p9zF3/bevvC6+ewx73DzEX/h3GXaRHgPrZS8RfKV22+w+/gL19LCY553Nrw3XAtvVqb/MLrookufXPx6duqSlADvohfFCItIqt0ra1k2LIb35GNlmSfi6lF4S7bZbVxUTAXO4hpsGhGuw8PhfeMNK6jefjvE/Pa3ny5duwwfDO8J8oHSL8P/9t688FkcPxres+bD+8pj8G5cAu9XTrXbIuR5HCIfAI1F/nGz4S1aZ8XUDVeKmGq0vS0LhZv7XvjbrosuuvS9pVuq+aIigMQYWy3EInEWtY8YAjz3T+D5h4FTT7SDQprqp2q7jyk656L0KLwPXNwqwbr7UupF/2QvvnuBHSFdjJfSySQmAL/+EfDsg0AWB5uUF4fpPHc68PK/gRfk3bnrd86ccH2oynXYIGDhY8DT/7DNAkRY4tc/lrXkKUyvd54C/nyzbTrgMniAnTydPL1Qnmc+w+2E+9a9C4qiKEKXm0Dm8Safz5PMJxf437/EAIiIKiiwU5RQRLE78ePPArNOlUzwPttWav0m4Iu13FEJNLyH5U8hMCoDuOO3IogfUjHVFYwaClz/XeCs+cA3zwXCw4Dpk4HH7pRtw6w4OHsB8Jdfi9ji3Il9RFBNHGOvlyKSbZY4UfiEUcDr/wF+ejUwZKCk19eBOdNsGIoqd+w6CqBi235cURSl0+h6EygZGAd8TJLMzCuiqVoyvp/8BrjtLiD3EPDz24GZIqJ+8Avgs1XALX+VTPAMYP432jBfltJt0Ajt3F7fA4qdCY6cKA9SHzHk3QWTMzZaRECcFarXf8+Kg/v/DxjcXzbKfWBpIQtfrrgQ+KsIKt+SmN5MqFx7CIdNkWWB5BNfrBFPSQuWWDFd+IwmSro9cbekzcXAlbIcJWlH/7XykVYh+ymKonQ2ksV03SJfg94jRsNb8RG8lR/De/rR9e1vfJfG+/j+1iVwFt6bkUPh/fvv4X3zSbFPOXZhWxV/4XVp38I2PTdfI2m7RZbd8NbukmWHLDvlt7hXviHbr4O3dJP9vV3er75yDx68TdJhI7xb34U3PAzeoQPhXf0OvLmr4P3JFfDeL89m9XabLibNfJZPX4JXBKrfeHXRRRdd2rt0S+UMv7LFCBtM8bosXPsuvjT+rQQOvDebtwNX/xxY9KnjGcCwtIZVyVz8warm/9wBbP3QLuvfAaZPqn9eewqe98kcFLXWlsCYKVAk7aurgAefAE69BPjT/cCfZeHrwvZVPX3O3UF8LDB2uKSJXPTyVXa9Iwc49lxg8snAXQ8DP/oN8OyrdvaEGmfYA6YNn13T9s96KYqidBrdIqbGDrWZGUcc5qjmmpkFNzRKrOY7XGSNE5k8LjCN+QVnAeveBl55CEhPqa+O5JptkpY8A5x3OjB0oF3od/sNTYuv7mLkEGDaRJvWjz4FfL4W2J8LnH4pcKUI2Zz99l3KL5TAEoaikFWCvR2OFZWVLpcsz93zb9n04TPIJgM5e22alJQB3/0pcJak1TevB+6Qe/+IpOHiZdZtJiNWFEXpZKhtumwRA+u990Z4qz+Fd+cr8I4ZotV4vWU56Rh4q3aIPcuB94ar2j92T1cui58Wu7sV3pot8L73JLxpybYKjdVDn70k/ptkke1Vm+GtpHubdT/6J3s9PfWsfvMrch7r7RIfC29Kkpx7CrxhPmnMc0uMl+vbCW+FXMNJRzeMo7ctLFxilV7lWngPSn5y5PjW3x/ey9gY/9t00UUXXTq6dGsfLPcrUukdsHSK9zSQCSsBQqpsI+5504FPngNOPRb4ysnAEWOt/5r1wMT5QNYMYGcO4BGrfeGZwG0/ttu7G5aKXXiWnIcce91m29uVPVxZ+lLtNPwnTHvOA0d4nkmJ1t1rkftyjTNPJNNk7wHxa+Xzx2e1REukFEXpIrrcVLBWZcpoORA/K10xFeAGWOlFiJBCviyOIR0yADjteGBwpv3NaUFu+D2wcZsVLDNERFFQhcjzyrY5fH67Ex532EDb1Z/vy4q1zb8uDPP2Ivt+HTHe8eyFMF0oothzkWuKyH2cysXZriiK0pN0uZgiU8fazHBfHrBVDJVmgL2DQraZcm7mzCOtQQ8kUhOAuGh53qqBPZuBDVutOEoW/6/NF7cY5O1bRIwssSKfwoRtkN5abPdnu6VuV1MChxFJS7Ln9MU68WjmheE5s6E1SZLr6omStO7ipNlARJh15xyw164oihIIdH3WK8bItUfM/Doy8rASWKze4JQ0ChwDKSSADDnFOwVJPMWUPHMvi0B6/k17vkfLuU4cKYHE/78L63t8EVajPf+GfU5HD+v+0cV5qEvPlhdTzmPnLuAFNrK2m/zCbW8tstc4Xq6J59sb4T3w8GIr5H6JeHxZ7pGiKEqg0KXmj4YhXQxaT3zdK92AGLdgKB3gKVJELVtle5RmpdkpjsiTr9cLQpdNO2wbG3LL9bbtUrch78ppx9hX5tMvgC0iqJpLY25jaRoF4aD+dhDV3gjF1HT2GC2T+5UPfPK5s0FRFCUA6FoxJRngnEnWzcz+X69Yt9L74L0OtGo+UzIVYwVHeSWwcStQVCIb5Df9du61S2OxslUEzKJl1n3miXbMp+6AVXRfOxnoJ2KPYu61Rc6G5pBz37DZtv3K7mfjICmJwNXfAFL5MdML4LOVnmxFZrXkJSs2Wn9FUZRAoGu/uSXno5FlBkiD1dhoKcENS3TecQx+ZKSdLy5Q4DOXHG+nZOFz9+irwJpNtp2XV4QK/dZssSVVjamV7c+8JnFImMRY2yCc8XU1LC07fZ59Z9gm6L9yzi3BV+qQUzLFKr4rLwB+dSWw/CngrzcA614CBmXZOIMZ9nA8cpQ45Do+WW2vV1EUJVDo2pIpWTiYIB00Xv4MlxK8mFGoV1o3DXmcCI9Awgh5R0Tw+eP5PvC4uOU5pAhZvw2o9iemZOOLbKtUCaTLNV1+LtAv3Rp0J7pW0xYRwxKpk+fafT5cbktgWoLXxRI3lkyx9Ob3PxQxdRUwOBsIl/PlvJiumPJNj2CD1xYpYpOnn5tvhbyiKEqg0OXVfPNn2wyQmd/rH1l/Rely5KHrL+KEUDi51IroYMmTqeqTZ9J3mwsFCkVWYYF9dn9woQiWl4DzFsjvNrwxFAAzJ4ioaWU7phj58MhIsu/N8jWtFww8362bxXFY9nXEIa8xX35TTF14uj2XyaOAof3tNQUbFFIcYoVp87GkjZZMKYoSSHRtNZ8PNFp5nPpC6ZXQyAVSTzIKhqOcOfY27AAOcKwpeQjvehzYvhfYfQB44d2mBUtBEfCHh0Wk7AYqRaBEi9A5aVbrhQjT4ldXAB88IqJmUctTvfA8I5l+IuAoirZubb2YItnx8kcEVI2c66LlcryZwMIPrIiaPxeYPRn46DFg8b9ElDhDlQQLPNdEJ/1YanhI0ocCUlEUJVDoUjHFahGOmUML5FazKL0HGvuX37Ju02ZquHUHCjTCrmbgs8fHj0MfzL1IhNYlIjo+a9ooc+wmiqkjvy6CaJmNq6LS2dgKGP5bZ9hSKS6zJjobmoCi5zQRaxRE+bnA/kPWv7Xc8gCwcx/wrNyPM6+1De7f+siKqyGZwDN/su9jaiIwcpA9v86GcfI6OjtuxnnpadbNkc+3iMBVFEUJJLpMTDFDZePfwf3ELb9feE+/JnsbvJ9rN1k3hw+IibLuQMEMfyAPn3nsnGePAvCACJXdIjyaE/e8NjOZczGwzRlodqA8y60tmuLgkmZcJKE14oK98AZwAl/Zp6QcKGrj1CcPPitiVsTbhT+zpWq8zicXAlUSV4i4OUQJX3YjeLrorR+SBdz0bWD04NZdc2vh+bJnJmEpYVvTRlEUpavpkmyVGWl/MQxnHuOUTAk0XG2ptlCCkE40oC1hRIEsTRpt8T9uqt2+5yBQyCER2slHX1iRwxG4WysSRgxom7jktZwu8ZNDIob2sVqyDVD4sTTNt5MH2xW9/L5971iqViDCkKfPdlytvIxWw3RZeCfwmyuAN+4V4ZnZecegmLrEKZkqYcmUiFtFUZRAokvEFLukv/I34IGfA4NYMtXZObcSMFBkuNVfiXLfu6rUwxcKj2H9gb/9CJglwoC/G0OvhFi7ZkkGq73ayy6WYjkfAnMn+z9eYyimWDLbaiTOJKddUFmFFQ0dhVWaF/8COPcn8h6eatt/8V3MzpCNrbiGtjJM4jXvuvvh1EnHGD3IPlcSrRHG5ZI+iqIogUSXmD42vk1Ltm73i/nDFVoy1RvhPV2zwYqq6Ue0Tmh0FJb43HcDcMVXgf/dDpx/kq3GckU7166b50Uj3BHYtsr0HpM4xwyVVQtvDY/NaqnW9uIjs8bWj7S+OUfStaMnLfDa+e698L7tncjfvIbOHtGd19s/Vdbl9ndEhP2g6iyy051zlvN/+m3nOhRFUQKILhFTrFL53T+Blz4UgyfG7oKbgAef7xwDoQQeZWVWsFC/uCKmPXBfCqWh2dZ4NhUXxXqqGGuuOfzBo78Wsf4AcPw0YPwwETHif+HJ9nxoeDs6WjafW9MIXdyXnNlQMPIcB2YAR02209TwvHleC2ba8G4YM95aM3BIBLf05UOnWrEzYDQUvGyHtXu/Paczj6s/t7bCc+T94cwGKQn22hjXJEl3DnJKmAYcyqCzmDfFHpewqlLzEUVRAg0ni+pcWO1z39PA2T8G/vkC8Mw7tspB6X3QrjWwbe200jSWLMl5SIT3638Dvne2NdT+4DAFIzPFUWFFB/cdNRB4607gjTuA33wXyOYYU7I/De+OvWa3dsNSqQ3brTsuBoh3qg95XAqpJ24B3pTjcvnmqbZUZtZ4CeC0X6K4mDzaupuC4V3BsJEN3jtZMPCd5JACTFOKQTdtzW85Ls/RXZpKd5KVCiz8C/D2XcDtV9aHH+CM6cXeiEyfIRzPqpl42kJIlZwj8w9Jz+fel7TREm5FUQIMyQoVpQOI0S9j9Y6s08TQtqeajwb5j1cDBa8DXzseGC6G+ML5QGS4E8AHxj8sW0RNlIiDAuC6PwOvLRHBtM8KEBr7Gy4Cbrm8fefiD1ZV//M5605OADJSbMnLzZcCW+SjYc5EOzTEuCHAP24E9r4EZEoYV2VSVLgTKzdFCtub8Xxln0Uru6b05eAhW0pF5k21x+NQCUz7R38px71fhNx/RfiNaFoIDZe0Z689Xs9JM2w4LhNY/ckAct68nyy16gwYVzLbnokQLDkoq5K6ZFUURQkYVEwpHYJG37SZEvcRTukKjSvHNGJ1mz+jTD820D52ii1l+uU3gcvPsgaaBt410P5g/GfNEYdsZ5XPYyLAvnoDcMI1wA/vALbvsefkPtgUD51RykPByBHFKaQGZFix9I2TrbFnD7qn3raGnuflXoOhFSWyvO5UER88T557J5yuX5autvHzHIdJ+nMC5x+eB/zga3ItJwIzx9leeKwibYpQ2d9TZd1meh2Ji9WamWyzRk+5XvodfYTzu4MwfUeLuGbaLHXa5imKogQars1RlHZB42Z684mg4HhGFBLzxJAuexB4869WdLD6bsZY4KTpto3TLDHaqx8FXvsT8OytVkhxKpWDBcCeXBtvbJQ1yo2hcb36q+KQ427YCRSXyvHFuG/NAe56Cph/HfCXJ0TcvAssXgm8skSO8YHdtyMUlwH79ouAkOscJUJk7GAgKxkoEgH1s3uBb/4WmP09OYf/AW8vs6P98/xa84axnRirJakTXlhk110BxR7FJZOV08owLdPj7Jpz+7EqnmI1t5mZCmaMkvDOfYmPsfeNopkDg7q3i/fNDAvR6P4xbpY6ThoOnCGCeKrE1VIjfZ4b4+Jzxl6OiqIogYhkVYrSMbys5uOo1CJoaPzOmWervI6eLILqL8Bbsrz6R+A5EU6L7gFe/r0t1eAyfwbQTwSXVwz5uTeJGHnaGuNxQ22JR2Nmjxd/56l9/VOgxkd5sG3TJjmPn8oxzvsFcNpPZH2z7dHWUdhOp5aDRYpwvOUyEVAXiOCT8/9EBNt9z9mhF9ZtB667Azj7RjnPy+Xarm+dMIqSeNySKdNrsIvU1MesPmT8wvEz7b0aJSLIWyy3ToRfrjPqOhuYN9JBBvrx3oQ66UkhNFbuM+9ThtN7l/eRHM8qQOs0UGTz3r0tApvPxFO3AI//SsS2sx9h3Cwt43kxPGHc4wbZJFmyzqaRoihKoKFiSukYYtyKD8q6WoygGNJrzgYiWUol4oIP1/jBIqqcnl+xkcCQfkBynB1ZnL3WaNy53P0ssFSMpakqE5oqsRjpVE+R+16sFweNoc0tlGP4DmLZEXheLOmiMU+R8z9GhCLdv3nUKZnzgaVYm3fZUjaOi8RwFBsUCY2hZjAlU6k23HNdWDJFUekbN0uKpo8SP7lvG+V8//2G9b/sdPnjq4QcGH6C3E84ac7r4Zx5vFemZEr2efUj2SzxcYwvF/qzndtjIpYHSTimBdvDjRxoS7fcMOwR+Ml9wBcP2XCuP0u+mDZFnTD2lqIoSlfgJ3tXlNZD4/zZRmvsXEIoYArETwQI/WlcX/sY+NtTtqqGRv3n9wNn/Qw45cdivP8P+MWDtrrOhHfimjZGHlAfo862Recfb/3cMN0Fz/un9wLX3Wmrwcx5iqj4ZK3/c6EXlzWb7XqEM/Dkl5BrOWJE/TbfdOxseJ6rnOl/WP161Zn1Am/dTjsBNK+JAoZt2rj2heeYnuj8kHtMEcWhKI6U8yeMn/PmuWNynXeyLVli4/r7fygCKd1WJa5n9acNUgePxR6NFFSsRr3oJOt/+Sn2uIxz76GuTR9FUZT24i97V5RWQ+NmSjxkTZEzOBMYxlIFGtZtwM0PAVf+VYTTz0WM/F22nQ/MvVqM60u25Oit5bZEhKOUM47PRZiVOoM/cnwhX4NOwx/l/F6+vnsNK491WM7x3ueA3z4CfLASuOYORzg0hexjztE5T1/x4MvcUXYbR/bmVDJu+M6GQunjz+VYInLD5Z6xhNCIKTneii1yH16zgojnMpHjRjU6YYadMMT5wXCynb0Bj51svXgP2VbNxCELS61mj5Nj3iP3kmHE779vyjPxz/pLZBxmEXeECC2ueRz2GCSJHIZCPKtk2y6WgCqKogQgKqaUDrN4tV3T6J17LJAUY43iZ5uB3z8O/ONlEVzVtspt3yERQiKYKEJoUCk2fKvqfH9TnDFOF7aVyoyWMAUSD9touRa5G+F53yOC6tQbgAdfsefbUUJYfSXXVLwH2MshHqx3p8Nz9VK0iljNiAKuPt2mL4+3bpe9NpP24scqOJ+kN/B+pLlDHoi4IVNHA9OdMbTq9hehBhGFZ0wH/vMzYLgII8b1hQi2Gx4ADuTXT5dzEQdXdQ40lKOoy778ff5x9niM22yXk2TcXZU2iqIoHUHFlNIhaKDZZohrGr2Weme1BEfqdsXUkWPqDS2JkLgHisFlteHC5T1nWFnywtIz9zw7DC+EbcW6uLcaz/ulJbbKktVvHKuLgoWwZIpTzjz7nqS5/J7gp2SK1XlueLdtG0umjplkL4FDVazcCuzaJvtK2iyYIvcrXbaJ+8OVwOV/tVV1uSIcuT/3YW9AVzRzCAROSUM3x/E6fQ5w3GS7vVxE1qeNqpMVRVECBRVTSoehfXMXGujJQ6xB3Oi0wWkLm3bVd4Gfd6SNx4VtZ9yfppTFcQcyrvE31+FzLb58xymFKRVReuBw/T6dDeNdJoLkU1aR8r4wDWVZ5YzuzpKl9eLmuU4cDpw6A/jFN+xyuriPF9HEbbyn93B6KFlPGYq6oRJ42qyOe+1TWxLJ9lGMc43E+Y3fAcudcaIYzsW9v1wxHpZMmWE2xD1tlE0Xhu+qNFEURekMVEwpncKznOZDDJ4xis5Ttb4d06LQQLMEhdCQcnH5wWnWyHIYgk2cIibADSxPbzm788t67LD6dGkMS9x4XRSRB0VMdSXsafje5/VpzPUXW+058l6t3iYOETQTsuWe/hL41UV2efZm4CSOmi7XwH3258tawoVS+MpvjhF274tWQN3woAivHwFf+RXwy0dELP4F2MfwPIiQX2TbV3G/U2fZOMmJFGt0iJgKlefgqtPt/afwe3axCaIoihKQqJhSOoWd+63RczElEFyc362F4T9ZY900skeJgXWhGKFxrZbjcDLttsbd7cgJ5rFXo6wTOV2Mn7fNiAcHXk9XXxMFza3/kbWkoXuPnhQhzAPz2IfYnkkWjiXllhqRMBF8R42z6c99Xl4i62LZIPFUiKC6+k7gzudhpt6h2F0s9/DlT4Dbn3BKwhi5A3tDGjEl9E+3cfJYJm7xM+OWyfFT2fZO/HjOOw+Y4IqiKAGJiimlU9glxs7YS6dhcaEYyx3t6H1FI//JahuXa2RdrjtT/OSJLRNjzSpEXwMdjPDSUuOsu7tgmjGNF35s3ea3TzoaPwotcT/zIXDV3cC3/iyikNWPNohZswTK3feNz4DXlzt+Nkib4H3+6gzr5rE/ECFGUebCOHc5I+MriqIEIiqmlE7hmQ+skXahYS112j61BWOonXgonDhAJ0WH27Cd29krkNVVwQ6F4gw29BY32xb98z3r39UwDdkQnenIoRjMuFl2E5asBY7/GXDOLcCFfwAeeh14Us5r6tU2HNtCvfM5sFOEctK5Eub3wLm3ok0DalKEMR7Cezx6kJ2ah1Cc/elZ4IQbgZ8/DLz8KfDiR07pmaIoSoCiYkrpFGgEaSTdLvPmt3W2CcbxzLt02BILTknDaWfmjbPiw7Sf+diG7Q2Ykjdel6xM+nUDPM5Ti4DL7wS+9Rc7LIJ7bIq65ZuAF0TAUGzxNxeWDJ35a+DKu2W5x4Zndd5/RUSzF2Bb4KEee8OueY85SOfRY+WHuHmsAyLaPlwD/OFp4Ksi6s673YpzRVGUQEXFlNIp0PDmsCpGDCyNZH6JGOkcs6lN0EjvZTyyf4isfzIfyHsMONHpIk+Rxu71wQDTgSUwvCZqptho492AuvkHJQzDdxccgPTRt4HXlttqU194vkxnX+j38QbgIRFB2/fX+5nF/mw1Jn4RTYRikqVT7AFKeNyVO2wYCitX0PG3oihKoKJiSukUaPT25Tk/HGPZIQPIwSVlf87LxrnrrjzVNkCnsX3XGSQ00OH5f7ZW0qbKnvs15zsbHEw133ArtHhdizZa/16PXCvb2BEK5Dnj7H1mOjDN5L+iKEpQoWJK6Tx8rGCFUyLTHlgS8Z/3gAMFwA4xuhwgM8Ep1WGca3ZZd7BD8ZDoc13r9lh3b4fC8c1l4pA1S6WOnmAnwSZ3vmrvv6IoSjChYkrpFDgK+jaKHEdAvbi0ztlmaGyvvh+Y/yvgyOuBr/0BWLvTlnbtF4HVm4ytaTMltDetghVfoW06Gjg5Ee99e0W4oihKT6FiSukUOPJ1XqHzQ8grar9R5H5s0/PFduBQMfD6CuDy+4AV24Bb/td7GiNTRERHWEHltq3qS3CKGF7yhIFAvFNC994aFVOKogQfKqaUzoOCwHF2pj1kidSidcC0HwMPvhVcJVNMh6bSIiocGM/56MT90SZbKtNX4KUu+kLW4jCN0J0Sui929K10UBSld6BiSuk0OFkuRyZnT77316pRpGLYutuWpLEUav5cx98PxeVWWPQZ5FqLOII6SzOdEs2+WDqnKErvQMWU0mk88wlw6m3AgluB1TvVMPLyD3JOulpb+jJ5lPV3YWGMWyLDsH0tvbxF8keEd62IzYoq4InF8pNTySiKogQZKqaUToOjYH+0EVi6WUulXHwFEgVVmLxxbGxNN9tLTRli3St39a00Y7pw2hiOkv/5dmDoNcB3/w6UiahSFEUJLoD/B5qDm2VPpxtPAAAAAElFTkSuQmCC;" parent="1" vertex="1">
                    <mxGeometry x="40" y="130" width="310" height="220" as="geometry"/>
                </mxCell>
                <mxCell id="pgSRg7DyGo8qi-8O6_78-2" value="&lt;h1&gt;Positive or Negative&lt;/h1&gt;&lt;p&gt;Lorem ipsum dolor sit amet, consectetur adipisicing elit, sed do eiusmod tempor incididunt ut labore et dolore magna aliqua.&amp;nbsp;&lt;/p&gt;Lorem ipsum dolor sit amet, consectetur adipisicing elit, sed do eiusmod tempor incididunt ut labore et dolore magna aliqua." style="text;html=1;strokeColor=none;fillColor=none;spacing=5;spacingTop=-20;whiteSpace=wrap;overflow=hidden;rounded=0;fontColor=#FF6666;" parent="1" vertex="1">
                    <mxGeometry x="410" y="150" width="290" height="180" as="geometry"/>
                </mxCell>
                <mxCell id="FydCkc8LCNWMZhBw5RYM-1" value="&lt;font color=&quot;#99ff33&quot; style=&quot;font-size: 11px;&quot;&gt;&lt;b&gt;Mean sentiment over the season (one number)&lt;/b&gt;&lt;/font&gt;" style="ellipse;whiteSpace=wrap;html=1;aspect=fixed;fontSize=20;fontColor=#FF6666;fillColor=none;" parent="1" vertex="1">
                    <mxGeometry x="290" y="430" width="120" height="120" as="geometry"/>
                </mxCell>
            </root>
        </mxGraphModel>
    </diagram>
    <diagram id="GuU9Fe8YsLRyibYUlsat" name="Compare">
        <mxGraphModel dx="941" dy="369" grid="1" gridSize="10" guides="1" tooltips="1" connect="1" arrows="1" fold="1" page="1" pageScale="1" pageWidth="850" pageHeight="1100" math="0" shadow="0">
            <root>
                <mxCell id="0"/>
                <mxCell id="1" parent="0"/>
                <mxCell id="UgqN0ZkiBN--Wk15Rbz3-1" value="" style="shape=image;verticalLabelPosition=bottom;labelBackgroundColor=default;verticalAlign=top;aspect=fixed;imageAspect=0;image=data:image/png,iVBORw0KGgoAAAANSUhEUgAAAoEAAAEzCAYAAABOudlbAAAAAXNSR0IArs4c6QAAAARnQU1BAACxjwv8YQUAAAAJcEhZcwAAEnQAABJ0Ad5mH3gAAM1NSURBVHhe7J0HgBvVtb9/WnVptdrei3fdey9gY8BgwKZ3QgstBNJD3kte2kt575/yShJeSCEJYAjdgOnVuIAb7r3b23tRWfX6P+dKSwxxWdu73uLzwfWMNLPa0WhW95tz7z1X4/F44jgBGo3mn5Zd5ViPuzjWuiAIgiAIgtB3aHw+3z9J4NFk7fMyd6zHRz7PHOt5QRAEQRAEoe/QBAKBo0YCj5S2Y4kdczTJO97PCoIgCIIgCH2PJhQKHbc5+PMSdyLBO97+giAIgiAIQv9AE4lETtgn8EiOJXUn+7wgCIIgCILQd2ii0ehJSeDREAEUBEEQBEEYWJy0BJ5I7ET8BEEQBEEQ+j+aWCx22pFARuRPEARBEARh4KCJE8l1QRAEQRAE4SxBJFAQBEEQBGGA0t7ejm3btkGn02Hy5Mmw2WzJLScmJbkUBEEQBEEQBhCRSASbN2/GCy+8gBUrVsDr9Sa3dA+RQEEQBEEQhAFIW1sb3nvvPezbtw9arRZ6vT65pXuIBAqCIAiCIAwwYrEYNm7ciJUrV6K8vBzz589HRkZGcmv3EAkUBEEQBEEYQLAAulwu/N///R9CoRDmzJmDsWPHIiXl5LROJFAQBEEQBGEAwX3/3njjDezduxdTp07FhAkTYDabk1u7j0igIAiCIAjCAIEjf1VVVXjyySeRlZWFSy65BMOGDTvpKCAjEigIgiAIgjBA4MEgH374ITZt2oR58+Zh0qRJsNvtya0nh0igIAiCIAjCACAYDOLQoUN4//33kZ2djQULFqC4uPiUooCMJhQKxbmDoSAIgiAIgtD/4Kl52dUaGxuxZMkSPPLII7jmmmvwne98R8ngqaJxOBxxTjYoCIIgCIIg9D840ufz+bB69Wo8/fTTqK6uxl/+8heVGoZnCjnVyd80wWBQIoGCIAiCIAj9FI4EHj58GI8++ijeffddPPjgg/jSl750ys3AXWhIAGXuYEEQBEEQhH5KIBDASy+9hCeeeAIGgwG//e1vMWrUqOTWU0cTP9UYoiAIgiAIgtDr7Nq1S4nf9u3bccMNN+Ab3/gGTCZTcuupI6ODBUEQBEEQ+ik8IphTwuzfvx8jRozA3Llze0QAGZFAQRAEQRCEfsqOHTuUBHIz8AUXXIDRo0cnt5w+IoGCIAiCIAj9DB6029nZqaaH49HAEydOVHMEn2pi6KMhEigIgiAIgtDPCIfDqg/gBx98gLy8PJx//vlqerieRCRQEARBEAShH8Fjdt1uN1588UUcPHgQF154IaZMmaJyAvYkIoGCIAiCIAj9CL/fjz179qim4BkzZuC8885Dfn5+cmvPIRIoCIIgCILQT+C+gC0tLVi5ciUcDgcuv/xyDB06tMejgIxIoCAIgiAIQj/B5XJhw4YNeOutt5QAchQwMzMzubVnEQkUBEEQBEHoB0SjUdUHkFPCcBTwpptuQmlpqUoP0xuIBAqCIAiCIPQDOjo6sH79emzcuFENBJk2bRosFktya88jEigIgiAIgtDHcF/A3bt3Y/Xq1YhEIqopmAeD9EZfwC5EAgVBEARBEPoY7gu4fPlyNSr4nHPOwbx586DRaJJbeweRQEEQBEEQhD5m6dKlWLFiBbKzs3H99derKKBIoCAIgiAIwiCmqqoKy5YtQyAQwOzZszF16lSkpPS+ookECoIgCIIg9BE8O8hHH32ETZs2oby8XM0O0pPzAx8PkUBBEARBEIQ+gFPCNDU1qZyAHPk799xzMW7cuDMSBWREAgVBEARBEM4wHAHk5t9169Zhx44dmDRpkhoQkpGRkdyj9xEJFARBEARBOMNwGpjGxka8/PLLSvwuuOACDBs27IxFARmRQEEQBEEQhDOM0+lUKWFeffVVLFiwADNnzkRaWlpy65lBJFAQBEEQBOEMEg6HcejQISxatAhlZWVqRHBeXt4ZjQIyIoGCIAiCIAhnkIaGBpUS5sCBA2pmEG4GNplMya1nDpFAQRAEQRCEMwQPBtm+fbuSwIqKClx99dXIyso641FARiRQEARBEAThDMGJoVetWqWigdwXcOzYsX0SBWREAgVBEARBEM4APBhkzZo1KjH0kCFDcOWVV6rBIH0RBWREAgVBEARBEHoZzgu4Z88eNUew2+3GwoULMXHixD4TQEYkUBAEQRAEoZfhvoAcBWQR5L6A3BSs1WqTW/sGkUBBEARBEIReprKyEh988IFq/uXBICUlJcktfYdIoCAIgiAIQi/BzcB+v1/ND9ze3o7p06erxNB6vT65R98hEigIgiAIgtBLRKNR7N+/H2+//bZKDM3TwxUUFECj0ST36DtEAgVBEARBEHqBWCymRgQ//fTTaGlpwaxZs9RgkL5KCfN5RAIFQRAEQRB6AZ/Ph61bt2LJkiUYOnQopk2bpqaH6w9RQEYkUBAEQRAEoYfhZuDGxka8+uqr8Hg8mDdvHoYPHw6DwZDco+8RCRQEQRAEQehhOjs7VRSQ+wJOnToVF198sYoC9idEAgVBEARBEHoYTgnzxhtvoKOjA1/84hdVShidTpfc2j8QCRQEQRAEQehBmpqasHLlSmzcuBHXXnstzj//fKSmpia39h9EAgVBEARBEHoIjgC++OKLajCIxWLBF77wBWRmZvb57CBHQxPnLIaCIAiCIAjCKROJRLBt2za88sor+Pjjj9UAkKuuugp33HEH0tPT+82I4CMRCRQEQRAEQThFOBcgDwLZtGkTFi9ejC1btiA7OxuXX365mh6uvySGPhoigYIgCIIgCKcAR//a2tqwdu1aPPXUU2pmEB4JfN1112HOnDlKBvszIoGCIAiCIAgnSTAYRENDg2r6/fOf/4y6ujrceOONuPXWWzFu3DgYjcbknv0XkUBBEARBEISTgJuAuf8fTwfHyaCtVit+8IMf4JJLLlGDQAYKIoGCIAiCIAjdhCOAH374IRYtWqRSwIwePRoPPfSQmhLOZrMhJWXgJF4RCRQEQRAEQTgBrEvNzc147bXX1AhgTgI9c+ZM3HDDDUoAORrYXweAHAuRQEEQBEEQhOMQCoVQU1Ojon8rVqxQ6V8uvPBCNQKYI4Fmszm558BCJFAQBEEQBOEosCJ5PB7s2rVLRf/ef/99FBYWKvnj/n8VFRX9Mgl0dxEJFARBEARB+Byc/qWlpUXl/3vrrbfw0UcfYcqUKWoaOE7/kpeXl9xz4CISKAiCIAiCcAQ8+KO+vh4ffPCBSgDNU8Fdeuml+PrXv66ifwMh/Ut3EAkUBEEQBEFIwulf9uzZ82n6Fx7scdddd+Gee+5R6V8G0ujfEyESKAiCIAiCQESjUTXt269//Wt88sknGD9+PO68807V/89utw8qAWREAgVBEARBOKvh6J/D4cCqVavwm9/8RqV/mTt3rpr7d/r06UhPTx9w6V+6g0igIAiCIAhnLdz/r7a2FsuWLcPf//53OJ1OJX9XXHEFxo4dqxJAD1ZEAgVBEARBOCvp7OxU07+98847WLt2rYr2LViwQJWhQ4fCZDIl9xycKAkUDxQEQRAE4WyARY+9h5t8169fjyVLlmDdunUoLS3Fvffei/POO081/w7k/H/dRRMKhUQCBUEQBEE4K2DnaWtrw8qVK/Hiiy+qkcATJkzAV7/6VdX/T6/XJ/cc/GjoRMTD4XDyoSAIgiAIwuCCo39dEcDW1laV+++ZZ55RA0KuueYa3HLLLRgyZIjal/c5W4Jjmmg0KmFAQRAEQRAGNYFAAAcOHMBf//pXvPTSSxg1ahS+8IUvqPQvxcXFZ0Xz7+eRgSGCIAiCIAxqGhsbsXTpUpUAevv27bjhhhtw1VVXqTyAWVlZZ1UT8JGIBAqCIAiCMCjh+X+5zx+P/n3//fdV+peLLroIN910E0aMGAGr1TrgE0D7wzE4/VF6H0CmWQe9tvv5DEUCBUEQBEEYdHD6Fx79++abb2LTpk1K+Hj+X87/xyOBDQZDcs+Biy8UQ60zhFZvGOkkgEOzjDDruy+1IoGCIAiCIAwaOPrX3NyMjz76CK+//joOHz6sBn1w8+9ll12mmn8HOjEyN384ihpHSElgigYozTCijIpRJ5FAQRAEQRDOIlhnePBHfX29kr/nnntOPZ43bx5uvPFGlf7FaDQm9x648HBeXzCKapK/w+1BGLQalGcaUJJugMVwcoNbRAIFQRAEQRjQcKoXr9erRv++/PLLePjhhzF69GjcfvvtKgJYXl6e3HNgwxFADwlgZUcQe1sCSDNqMTzHiKI0A8yGk+/bKBIoCIIgCMKApqGhQQ384Ll/d+7ciZtvvhm33nqrEkGe+3egD/5gYqRrDl8EB9tCqHYGkWPVY3SeCZmWxGCQ7jcC/wORQEEQBEEQBixbt25Vef/efvttBINBJYCc/6+oqEjN/TsYBDAai6O5M6wigB3+KDLMWozMMSOdlrpTFEBGJFAQBEEQTguqRmMBqlENVFg4TrVKFroLqwv399uwYQOefPJJbNmyBYWFhbj88ssxf/58NRCEkz/zLCEDnUg0jnp3CNWOkGoKzjDrMCzbqCKAWh4RchqIBAqCIAjCqcLyF6gEnG8AafMB80hAa0luFHoDnuq2qakJK1aswBtvvKEGgnCz78KFCzF79mzk5OQMiugfy1koEkO9K6xGAQdoPYvEryTDgNxUHVJ6QHBFAgVBEAThVIhHgWA10Po80PIIkP8QkH0TYCymjQNfQvobrCs+n08N/njvvffw2muvqWgg5/67+uqr1ewfnAtwMMBmFmQBdCdGAEfoUsuz6VQaGI4AnmYA8FNEAgVBEAThVAi3Ac73gMb/TkQD0+YChd8DUqeRA5qSOwk9QTQaRXt7u5ry7d1331XFYrGo/n8sgDz6d7DM/csjgH3hGFo7w9jT4lcRwWK7AWUZBtjNuh7tbCASKAiCIAgnSzxMArgcaP494F8LmKZQzb0eKPolkHkDYMhJ7iicLpz8ua2tTc388cwzz+DgwYO48MIL8fWvf11F/3jwx2ChKwVMnSuEg20B9dzoPLOSwJOZCaS7iAQKgiAIwsni3UEC+AjQ+T5gu5bEbyFQdSdgJwHM/RJgGUs1rDQJ9wSHDh3CU089hcWLF6u+fpz6hfP/8ejfwRL964LnAK5sD6LKEVRpXyYUmpFvM6iE0L2BSKAgCIIgnAwRJ9DyGND+bKL/X9H/AwzZZCv3AVE3kP9VksJrqIYd+LNT9BWsJpz8ed26dfj973+vmoEnT56smn/PO+885ObmQqfTJfce+PD7bfNGcLgjiBZPBBZ9CiqyTCi2608rBcyJkNsUQRAEQeguPBikcwOVlYAunWTvFsA8nNYzActUEsRWwL8PCHckf0A4WUKhkJrv9+mnn8ZPf/pT1NTUqMEf9913Hy6++GLk5+cPOgFsdEewvzWIdm8UGSYtRuSYUJimP+Uk0N1FJFAQBEEQukWcBO8w4HgZiLoA2wVUzqea1Aho9ICVJFBnAwIHqNB+wknD0T/O+bdo0SJVOB3Mtddeiy9+8Ysq/UtWVtagSP/CcDNsRCWB5llAAqopmJM/D8kyIs+mh1HXm/qXQJqDBUEQBOFExGMJ8Wt+lCRwMQnfDCDnXlpOppo02S8tUAXU/wQIkgBm3pzoG8iCKJwQVhHO97dp0yYsXboUmzdvVsLH8/7yIJDi4mIYjYPnXLJ5cQqYFk84kQQ6FEO2RYfidAOyrYlp4M4EIoGCIAiCcFyomox6AdcKkrx/A7T5QP7XgPTLPpsKhpuKm/4ItD9BcjiF9vkxYC5LbhSOBad/4SZfnvaNS3NzM6ZOnYq77roLU6ZMgcFgGBQzf3TB1uUPx9BMAniwNQAPrVdkGlUKmDSTtkeSQHcXaQ4WBEEQhOMRCwOB6kQ6mJib5O9SwEKS9/lcgBwRtEwGDAWJJNK+HckNwtHgGBQ393IE8LHHHsOjjz6KxsZGlffvhz/8Ic455xwV/RuMAljvDmNfSxDecBylJH88DZzd1DOzgJwMIoGCIAiCcDzCjUD784D3w0Q6mIyrAFNJcuPnsI6nbSPoZ1pJAjcnooPCUeH8fyyAv/zlL/HXv/5Vzf37gx/8AN/4xjdQUnKM8zvA8YaiONQeIAH0IxyNYwTJ34R8MywGnuc4udMZRCRQEARBEI4FzwriWgY4nyW5OwfI+QJgLKUNx6ixtTbabxKgywYCO0gE9yc3CEfCI4D37NmjRv++9NJLqt/fQw89hPnz58Nmsw2q6F8XncEo9rUGUOUIqbx/I3ONGJptgk6b0qsjgI+HSKAgCIIgHI2YH/CsAxwvkfMZgPxvA+ZR/9wMfCScIJr7AxqHkgQepJ/fkNwgdOF2u/HRRx/hd7/7HVavXo1bbrkFX/3qVzFz5kykpaUNmtG/XfAsIDwAZHezX+UAzDTrMDLHhJJ0gxoB3Je6KxIoCIIgCJ+HRwNzmhf3CiBYA9ivp3IBoE2jjSeotjlSaB5JK1T7+zaRBfgS6wJcLhdWfrQSTyx6Ahs2bMCCBQtwzz33YNq0abDb7YMuAhiJxtHSGcaB1kQSaJUCJtOAgrTemQbuZBEJFARBEITPo5qBPySJ20pCNz4xH7A+IxHpOxFaK2AaRfuTDPq3AaEm6RtIOBwOrFixAs899xx27dqlIn+cAHrcuHEwm83JvQYurPk88KOrBCKJEcCH2oNo80WQadGqEcA5qXoYzkAOwO4gEigIgiAIRxILAZ5PSALfpgckbxnXA5YxtN7NiptHCZuGkTzSz4QOk0juS7zmWQqPAu7s7FQCyHMA79m9B+fMOgcPPPAAxo8fD71en9yzf8JCx026MVqJ0goneOYSisaV6PnCMdXfz+WPwkGy1+YNK/mrdYYSAuiNINuqxfBsU0IATysHIBsmXZPxCJUwHVSQij9Z+Bqj7SeB5AkUBEEQhCPxHwDqfkLLHSSAVwN53wQMOcmN3STiAjpeARp/DqTfDhR8HdBndy+SOIiIxWJqFpBPPvlEjQLmFDCXX3457r77bowZw2Ldt3QZEC/iSrD+oVEJ+WPxo1sBkr4orZPzJR7HY6qpN0iFZTAUoUIyyI8TJYYwPcfdG/OseozJNyPVmHKCFDD8y+nF1RHwOi+Tj9XzJH8serEAPWbpIwGMJtdZDPV5dPNRfvw+q59DJFAQBEEQuuAIS92vSeAeBywzEgKYNiu58STgKI1nSyJ5tI+WQxclooln2QwiHAFcs2YNfv7zn6OjowN33HGHGghSUVGR3KPv+EdULzF9W9djlrwQ/RMkieNZPQJhWpLgBUjufOFo4jGt067goB7P7qFL4QI10lev1jWqyTfTrEV5lhkm/ZFx5KNoF0tcV1SPxY5FT0X3fPSYC91URDoS3RTCLVQa6HETldrEOotg1h1A0X8Cxu6n1xEJFARBEASGK9z2N4HGnwCGEYlp3+zzqKa3JHc4Gahq5b6A7S+TVH4PKPsTkHE5GUNWcvvgh3MAvvrqq3jkkUdUk++3vvUtXHzxxSgoKOiTJmCO2HHTbHNnWOXo62rW5XUuIX7M62x39L+O5I6bbrmw2LHssdglHpPs0VLJn5b2TYof/wzvq1WF+9zFoUcQmqibRI4KR4ijzs+t8zK5PUbrMZK9SHtiSceDGEcBqXAQmQcmaQvoF+bQMiP5mIqOrqvU8VDzV2tT1fvtDiKBgiAIgsDRFu92MpcfJyIred9KJIU25NLGU+zDFfUA7jVA9X2AbT5Q8J1EipmzoEn48OHDWLJkCZ599lnVJ/DLX/6yGgnMCaF1Ol1yrzNHjMSu3RfB3paA6q+nJ0MzkLz9Q+aSUbzkc+pxUur+IXi8LbHOzbq0ALfu8ohmvkLUulrS43ArNN6NQOdq+uV0HfC1EOukwtJHJealZYSWYfoJKlozSV5mUuxstG6lJRUdPZdCkpdC27VGKnRDwo+79lGFf9aU3Ealay7rbiASKAiCIJzdcFNcoBJo/gvQ8Vcgi6Qt5+5EmpeTqFD/CW5a5lyB1SR/oUNAyW8TaWa40h6ksFLs3bsXL7/8Mt555x0lfNwEfNlllyEvL6/PBoH4QjFUO4LY2xpAlkWLbKte5ehjoesSuy7h4yge/a9E7x9ix495PfHccQnWAc63qSyh9cMkZzn0wyxtLGtJmVPrqVRY4pICxxE9JXz8PBWWQC4a2p7C7cksz3Q98jXZVTg8qG4qTnRQR0ckUBAEQTi74X5Wzg+Axl8B+kyg6D8SCZ9PqRn4c/D0cU2PAm2/AfK+T4LJM44UJzcOLngQyKFDh1T07/3334fVasXNN9+Ma6+9Funp6X2WBJqbfLkJ+FBbAN5wDJMKLci06JTwsTuxPnVL7k4I6VSwlm4kXqbr6XU6IR4gdTp93qPpWkpPCJ5qviUhVILHssfRO5JCJXLJog6El/z4tA/quIgECoIgCGcv3AG/cx3Q8gTg2wAU/juQcRmgs9PGHqiAuZm5cy1Q91WSARLL/K8DNh5o0ruV+5kmGo2isrISzz//PN5++22V+JkHgFxzzTVqvS9xBaJKAJtIBIvtBozKM6sm4B79BDiarPqAvgg4nqPHMbqObgRyvggY8pM79T9YMwVBEATh7EPNClIFON8F/BuB9CupzE9EanpKETjKY51AAkgluC/RPMyjPwcJHEcKBAKoqqrC008/rRJBZ2dnq1lAOALY1wLIUUAeDML9AY26FBSnG9TAjp4VwBAJYH1iEFDbX+kJXWKkbtYt/VoAGZFAQRAE4eyEO+s7XgNcbyaSO+c9mGgOPp1+gJ+HX4s796deSLJAv4/TxfA0dIOEUCikmoB/8Ytf4De/+Q1GjhyJb3/727jqqqvUPMB9jdMfRb0rpEYGF6bpkW7qwc+W4Qgg9wFsfARo+CF91kVA/vcSfUpNZcmdeg9uy/1HahuV6fCkEAkUBEEQzk6cywD3B4m+Wek3JPvq9UIzLfftSpubaGL27wQCB5IbBjZ+vx+bNm3Cf//3f6uBIFdffTUeeughTJ8+HQaDIblX3xGJxdSsHZ5gFFkWHfJJAlO4H2BPwQN//PsTXQnaHwOs5wMF3wXstNTRNdXL8Ijng21+PL+tA//5YQOeo2WHl47pJJA+gYIgCMLZh2c70PT/SMgOUaV9FZB3f+823XEOwupvAz6eheQaIOdenErOwHA4rOSL05AYjUY12pbXzzQ+nw8ff/wxnnzySSWC5513nkoDM2rUKKSmpvbJMX2eOhLAPc0Bla+vIsuIknSDGvnbI8SDdA1tJfl7nm4klgKm8XQNfYlEcBLdVJDs93AaIJ65hHMZeoIx1LlC2FDnxZp6H/a5Q2j3R5BK7+u6EXbcOzUbebbuj8AWCRQEQRDOImJkUh1A48OA61WqtGeQkD0ApE7t8Yr7s1BV2/JMos+YoZSE4ZuAbVpyW/dob2/H2rVrsXTpUiVZkydPVjNv5Ofnq753FosFJpMJWm0PN3l+DrfbjdWrV+PFF1/Erl27MGPGDDUN3NixY5WY9rUAstXwzB7bG/0qMsbyV5FlUtO29Qhdg4l4EAjnAuSuBLkP0jU0mQSQR5T3zO+J0fvgKKaLJK+GhHZHSwA7WwOoJglsDkQRC8eQbtaiItOACblmzCyyYlyeGWZ993+/SKAgCIJwlkDVHY/WdbwFNP0XoMtOROTSF1LlbU3u04t4dwP1PyIJbaHfS9KQ84VuiycL4IcffqjEa+vWrcjKylKF+91lZGSguLhYCWFpaamSQk7PwhE5s9nco1LIArhy5Up1HNXV1arp99Zbb8WkSZN6XT67C0fMahxB7CZp4j6Aw7NNyLXpVZ6/0yN5/Xg+oQ/kuURU1zQCyLqVrqF59FlyBO70fglPV+cNxuAkyWvxhLG92Y99JH417hBafRGV79Ck16Isy4iJOUYMTTeiPMNAomtU7/Vkm7tFAgVBEISzA56blftw1X4/MZoz5x4g8zrAWJTcoZeJuIGGX5NJvQ+kXQAU/phE9MSDJ5qamrB8+XK89NJLqKmpwcSJEzF8+HAcOHBATc3mcrlUBJBlkPPx5ebmKkEsKSlRQpiZmakihTabTZVTmbGDU8A4HA589NFHKg8g/945c+bg9ttvx/jx4/ssB+Dn4X5ynBJmc50P/kgMo3JNKi2M6SSiY0cnRifBS5/dxwkB5FHelol0/dxEn+U5ONUE4CxgITrOdh7B7I+oNDYc6atyhNBAy0YSQVcgBqMxBeXpBowi+RuWacTwLBPKaWkxkPidhneKBAqCIAiDH5XHrRZofZas6nckgF8Gcr8ImIfSxjPUfMnH4CABbHmEHpCQlv6eRGJ0YttR4OrZ4/Fg8eLFWLRoEbxer8q7d9dddynRYynj0tDQgIMHD2L79u3YsWMHmpubVd/BnJwcJX8cJRwxYoQSx/LyciWF3HR8ZPPx8ZpwI5EIWltblYj+/ve/V7+Tk0Dfdttt6nX7Cywz/nAMtSRQWxp8GJZlwIgcM2wmen+0jSOErkAETpKqrmnh1Gwhn04Nl3iOC88Wwj+kzgqnEuJ5fT2bSeL/g16IrqN0unnIug2wjqOdTi4Cyv37QpE4vKEYXMEoiV8IG+q92NboR7UzjBaSQU5qnWHU4vyyVJxTbMFQkj41utmig4kPtIcQCRQEQRAGPxEH4HoPqP02YDoXKPohVeBjE3n8ziT+wyShvwW864H8HwDZV9GT/yxgXDVz/j3u//ejH/1ISR3LH0/BVlBQkNzrH3CqFh6swVHBxsZGJYOffPKJ6rvHj3m0Ljcdc6SQRZD7E06ZMkVJHEcNuS8fRwg5otclhLzk4+Cff/PNN/G///u/cDqd+N73vocbb7xRyWVf9/87Ek6R0uoJY0eTHwGSqBklVmRZ9UryWHRqnUG8tKMDr+1zI9esRV6qHjlWLXIstKR1nk6OZxLhYjVoVUJp1i1tzIsU7yakNP4/aAIbocn9JpXboTHxDURSyJKn4WhnQ0kW/dM1uMNN4lfVEcT6Wi8+qvZgR0cADSSmkUgMI+wGXFhqxYVDUjE230LHpFcSS17aK4gECoIgCIMbTuXhXg00/g8QWAuUPgWkzQF0PZgUurtEXED7S1ReJhkdDpT9B1nGZ4+Dq2WWrQ8++ADf/e53laTdd999uOKKK1BUVHTUplf+ma7C07exFPIoYo4e1tbWqvl8WQw5WshSx9uDwaDqM8gRwlmzZikx5NG9XZFCFseWlhYsWbIE//Vf/6WahH/+859/Og9wf+kD2IU7EMXBtgAOd4QwLj/RXMoJohnOF/jOARd+sLwRzSRc2SZ6nk45ORnCtD1CSw2VFDp/7LVWfQqKrAaUkiQW6NqQF9mIXOxETt5kZBXMRaa9CFaTXiWe7ooecuFToqUX4L55/Iny4A4WUha/A3Rsyw658X6NF/tcIRVgTNVpUGHV4aKKVMwqSUUFHXMGSSgP7uAoZdf8xb2FSKAgCIIwuOEBGa1PAK7XSP4WAsXcFy+DasB/lqleh5uEO9cDLY+RHWwHKp4GzBV0LIl+elwlc3MuT73G4sXRuW9+85u45JJLlACeTH++I4WQZZALD+zg1z98+DB2796tZvrg5t2u7dw8zANMeKBHWVmZkkeeB5gjhQ888ADmz5+vZgQ5lX6FvYkaDOIMYl9rUInZ9GJLMoKmQYS2fVLrxaMbW7GCBOz7c/LUYAp/ONF/0BGIwEGSyE3FvORBGR4yw2jITcVFPx9EgM6lJ8UEncYKvcYCXTwFWhI4kzkF2SRtxRa9ii5yPsJMc6KY9Br1WpsaffiAfn+nN6IEkUcpF9v0GJ9rxsQCMx2LEVn0s2l0vCytvE9vit+RiAQKgiAIg5dwG9D2DNDxPIlfFlDwQ8A2g2q/PoxiBapJSp+kY3qcjuc/gazrVGoRro55wAULIOff46bdu++5G9dde51qeuWcgKcL/w5uZmYZ5BHHHR0dauAJSyHP/MHrLIMsjtwEzX0Suf8hN0UvWLBARQn7yyCQI2n1RFQUsMMXURHAkbmmT3MC8rzBT21tx9v73ZhdZsV35+Sr1CrRGBAkQQxGYqoEIol1tfTVwtu6DG7nXrhieXCYL0BHSgU6SRS93GcvGIWP9g2RQdHLIIWWpPcI0pKlykD/6KhE6Hz76TAMdCzFVp1K4TKG5K8s3YAcEsZses5qTPRZ7AtEAgVBEITBCedzc7xDEvgXWneRbH2Zyg1KuKj6S+zTF0Q8gPNNoPEXZAcVQMWfENflYf/+A0oA3333XdWUe9NNN+Hyyy9XEcDemoGDFYD7ErIMshRyYRHk9C8cMeQmXx6NzMfBEcD+CKdNOdweRIM7pKJsY0i00s2JSCVL4TM7OrB4p0MNtPjh3HxMLbYeJ2k0KVGgBmh/GmHnxwjE0xGwXkrlYgQ02fCFSaLDLIAJYfTzAI9wDJ3BGNyhKJx0LB4qIVqP0b46nQa56XqMzjShyKZHUZoeeTYDrIb+IdIigYIgCMIghKo23z4Srf8G/NuA9EuBvG8B+pzk9j6EO4N5eaTpr2n5AWJD30RdRx6ee+EVNQCDhe+WW25Rgy94dO+ZHnxxZPMxwwNK+sM8wEeDB1vUOcMqCsg6MyzHhNJ0gzpnPJ/u+/td+N3GNjj8Edw3MRN3T81RzcVHJR4GgvUkgM+SpL9MNwtZQCbdNKRfQbJemNzps7BB8YAUbo4OJZdqPRpTz7Nr2kw6lcOvx2Yr6UFEAgVBEIRBBtfMJDDNf0s0A5snkgDyjA6Tktv7AcEaoO1ZxJp/iSZ8Ey8t12Dxq8thNpvwhS98Addee60aySscH54ZZGdjAG2eMArsBozONamcgCw2PAL3P1Y2YlOTH/MrbPjqtGyUZ5kSP/gZaG/OIcmfiRq081fANBbIuhOwz6Mbh/4ZAe0J+l/DviAIgiCcDjwa2LODBPAvgC4TyLjyuPn4+gQSi6h1FpyeQrzw7N/w+//7H6SmWnH//ffj+uuvFwHsBjzyts0bTcyda9KqPHpKAOl5HpH7wvYOrK7zYly2EdeNtB9DAIlYOJG6p/XvQNPP6LMpAXK/RtfNgkEtgIxIoCAIgjCI4CighwRwMdQMHfYLgdRpVNv1Tp+6UyUaN6LJlYVF79jw60UdKC4bh/vuuQsXX3yxmtVDOD4sehwFrO4IgVO75Nv0yEj2AwxEYvj4kBt/2+VEulGHq0amY0rxMaYF5KZ5/x6g5VEyyj8B5jlA4b8DtnMAbWpyp8GLSKAgCIIweOBmYJ7ZwbmEKnSSP+tMQJ9FG/pPfyyegWPPnj14+A9P4v+e2o3zJ4TwL3dX4Pxzhqi+d/0pAXN/JRyNoao9iA5fGLk2HXJTdSq5M/fHq3SE8It1rYhHorhtfDrmlKV+mi/wM8RCgHsV0PQI0LmcbhiuBUp/kRg9/rncjYMVkUBBEARh8MApYTpephWq4G3nA8ZyqstPP7VKT8FpVzj3Hs8D/M4772HS1HNx340FOGecC5mpHqRoOOGIcDx4wAfn8+P5dVnucqw6pBq1iNN/PPfue/ud2FTvwxVD03BhuY0EUf/POscC6FoBtP4N8O8CUulayb2XbhomJQSwL3JI9gEigYIgCMLgINoJ+HYAnR8CZqrMU2cCuv7Tp4sFcOfOnXjxxRexcuVKjB49Cl/+8pcxc/bFSDfXIyV0KNGULRyTOBU1P7AzpFK05Nn0sJt0arYOTvy8oc6LJXtcmJZnwjWj01UiZo4Q/gN6BU4d5FwKtD0BBPaS+E0FsnkeYLpm1DSCZ08kViRQEARBGARQ5R6sA9wraNUB2BeSCA4HtObk9r7lSAFctmyZyrl3zz334sJ5l8BWdDVS4kESkgOJSKZwTEIkfu3eiIr4cR9AHgxi0acgFI1jd0sAb+x3ocETwd2TszCpwKLmAP4Unq0l3E7XyEqg9a90vewn8ZsFZN0M2KaQER1j4Ehfwp0fYzG6OeBjD3P+HrpOSGL9frrh4a4PdNPgdicKP8f7ngSaaDQqWWIEQRCEAYwGmpgHGtc70DT9BjEYEC//S583BXf17eO8ezwjx2OPPaYEsLS0FF/84hexcOFC6PU6lZpEU3kvUvQFiOfci3jaeaS0PMhB6uYj4bPR4eP5gYNoIdEblWNEWaZB5f2rcYaxaFsHnt7hwDmFZvzXJUXItupVbj5NPELFD024haTpExLARYgFDyKefj0J4K2AZSx9WD08DR5/9l19O8mxNOxZqpCkxY71mNZ5ySLHJULiF0mKnyqcxoaWYV6SCIZI+sK0jETUz8WLhyA+ajziFmvidbqBxuv1xnlSaOmIKgiCIAxEqAqFLrgbBuffoOl8G6HUBxDhvICavh0RrBIWUwXN8/OyAPJsIKNHj8Ydd9yBCy+8EBYLTxVHlX3UB33Lf0Mf3IqYbT5C6bchqs2kd0XbhE8J0emo64yjyhGGVRfHxHw9TLoUNWvHa3s9WLTDhSD5zPdnpOPSkXblQRqEoY22QB86AK1vNeB8FXGSwYD1DkSz7wJMPG9zLzWKKpELQ0PXgIYkLkVF8oLJdZY52kZCp6Elb+NlItrHUWESPI8X6OwEvL5/RP18/JiKx0nLDtqvnX8RX2yIXHw9Qvd+F9HCIrop6t6186kECoIgCMKAJBaEzrk4IYF6K4KFjyOizaUNfRfcYAHkJuB9+/bh5z//OVatWoVbb70Vt99+O8aOHatmBYmpilpD/8WhJ0HRt/4asZQ8hLK/jahlXCIyJCh40Ee9O4ZKZxRxkrbxeXpkGgEt+du7+9x4ZLMTTvKqeyakqxHBep0OMe8+aFzvQ+d9nyRwO7RaPWC7GPH0qxAwTkc0JY1Eka+R7kXNuk1KCjStrdCsXQ3NyqXQ+H3QBP1ICQagCZDMBfkxlZCHxM/NTbLscETyONSC/6E3p08FLNlAagYdezot02hJJc1O6zbAStttVOzpiJSUIVg+FDGzOdF83A1Uc3ByXRAEQRAGHoHDQPPvkOJZC2Tfg1jul6h26+HmvZMkEAhgx44d+Nvf/obFixfjtttuU03AY8aMgZkq6c+3vmmCVdDU/0hFqeJZ9wBZ19OT/WdUc1/jDUWxtyXRDFyYZsCYfBP05EjcN/CnHzVhda0P88vT8J2ZdhSZm4H21wHPR/RBbKdzbSKRmgGN/WISpymAoZhkm/uK9lIEsKEeePMVKs/T+j76HEn0TTkkbCRxVpI3FjerVRUNLy0WErmk0PG6iY6X54omkYWOTFdPhR8bupZU9MnHerpGtFpV4rQe522fu7aOh0wbJwiCIAxceKRnx2tA25NUEVKFWvgTqkzHJTf2DT6fD5988gmeffZZrF27VjX9sgByUzA3AR+1+1XMCzQ+DDiWkKhMBYp+RRW8zBrCcEqYGkcIlR1BNdJ3VK5ZpYUJRuJ4aUcHfrehFRVpITw41oHzsrZA518G+A+S4WTStcCjxGcA5vGAsZSkKq135bqqEnhpEbD8bRI6krqLFtA1WUyfJcmdnuWOxM3I8paUuS6RU2JHSxY/lroUKnydpJCo8vLz60c+Pg1EAgVBEISBC0/31fjfQJCW6VcBuXclZLCP8Hq9WL16NV544QVs2bIFkyZNwre+9S2MHDmS6nkD1dnHqrRjJLIks62/T1TsRf8F2EgGBXT4ItjV7FfSV5puQHmmUTWWbqnz4j9XNiPkq8IXytbh6uLNyNA2QjWjWyeThM2iMhEwldE1wfJ3xEjhnoabX1kAF/8F+OhD+uwygAXXAZddC2SQjHaJW9fnf7THfUAvxUIFQRAEoZdRcwR/QiK4HTAUUMU7hyp7S3LjmYcFcN26dSoCuHXrVkycOBH33HMPxo8fD6PRSPX88Sp6qo5NwwDjSCDiSbyvnu6rNgDhKGCDOwR3IIo0ozaZ+DmKBocTT23vwO6mFpxnX4u59g+RnlJF54/OYfZ9dDPwDVreAqROAnQkZL0pgMEgcOgACeDjwPsk8vYs4Ar63fPppiSfrkuO/B0Z6fs02ndEZK+PEAkUBEEQBiAxINQCuN4hVwoDlgkkUUPo+TNfoXKDGjcBc9Pv448/ju3bt2Pq1Kn40pe+hNmzZ59A/o7AVJqIXHFzJfdni3TSk2evCJL/weGLoMEVUc3AOZYwrGhCe8d+LN1bjRf2tmO0rQFzC+pRnDsSmuwHSbr+lQTwi3QeR5PhkHz1Npyb7+A+4OW/A28+CxQMBa6/G7j0SqCoOLlT/0WagwVBEISBRzwEtL0CNP4sMUdw3leAtHOSG3sXHtXLWTV49C+ngGEB5DyAP/jBD3Dw4EHcfPPNuPfee9UgkJPG9THQ8nsguAMo+Ru9pxkJKTzLYDEJhmPYXO9DqyeMIfYQys37oPVuxMeHXfjB5nPggg3/Nb0R80blISNjOKDLoXPVixG/z8NJm/fuBpY8DbzxODDxEuD+bwATJqtBHwMBkUBBEARhgBEDIk7g4K1AqIEEkCrezOsAfWZye8/DVWVX8Xg8qKurU+J36NAh7NmzRw0E4XXu/8d5AIcPH979COCRBGsTg1zaSSrS7wKKvwOkDAyh6El4BpBGVxibGgLI0DRirO4l5ERex7YmPR45eD1edl6Af5tqw93TspCTlgpNCo8GP4NR4GgE2LwJeO4vwKq3SADnA9/8V2DYiMTo3gGCSKAgCIIwsIi4AMe7QP03AdvlJIEPJgYCnGYUiKtDjuzxDB8c5eM0L+3t7aitrUV1dbWSPM77xwLI245Eq9XirrvuwpVXXomysjI1COSU4KZt5zv03n5OL0pSW/E3wFB0ZiNcfUwsFoXTF8T2xiA6Oh2YFP8NCnWr0BgoxqLq+XiqfjqmF+Tjfy8rRIFNDx0nCzyTAsizd6xaCbz8BLBnMzB2NvDgt+mz4j6dRjqUM98l4VQRCRQEQRAGDjz/K8+xW/szwPcRUPRrIH3hSUcBuyTP7/er0tnZiZaWFjQ0NCjh42ZdfszPsxSy5Om4Qz/Bgzxyc3NRVFSEgoIC5OXlqcejRo1CTk7OqQtgF97tQNMjgOdNoPgPgH0eoLMnNw5iON1PuAUeTwuqnSnY78lFfnwbxpo+gN6Ug5erR+NPewvhS0nHr84vwLyhaaqv4BmDdcnnA5YvBd74O9BQA4yfBVxzKzBpSmLgxwASQEYkUBAEQRg4hFsBxztUAf8YsJxDkvQjwDyKarOEoH0ejuwFg0HVb6+ruFwutLW1obGxUUX5eOl0OlUzL8shw8uUlBRYrVZkZ2cr2esSPrvdjvT0dLVMS0uDzWZDamqq2r9H4AEvHa8mIp1ZVAq+RubZ/wcZnBbBOpLfrYh6NqHZa8Te0MXwaosx1b4XWaka7HVm45HNOmymU3PV6DR8a2YO0sy6Mxf/Y1XykwB+8B7w2pNAaxMwZQ5w+Y3AhEkDqgn4SEQCBUEQhIGBSgmzBWj+A9C5lATwN0DGJYDus0mVWfw4osfNtix73KTbtXS73UoCeXAHFxZEFj6O8rHwZWRkID8/X0X2eJ1lLzMz81Pp46LX60+tv193iQXpfW4Eqr5M7y0PKPkVYJ0IpJxmhLHfEQOifsC3B3C9jbhvJzqDcVRG5qBWdz0KM+wYl+lBa9iOxze7saLSjdHZRjwwIwfj8s9gKiDOAdjRDqxdBSx+jGTVBUy/ALjkKmAcfS7cBDxAEQkUBEEQBgbhjsTsIM2/A0yjgDKSQEM+1WRa1Z+Pm3VZ9GpqarBmzRps3LgRHR0dqjmXC8shyx4355aUlKC8vFz13+NmXZY+Fjye0aOr8L69KnvHhKpljow1/B5wPkOy+z8ku5eREGYktw8CuFk/4iDZ3Qy0P0ciuBZhbTFqNVejMjYfKeYSTCowwmxIweIdHXhkfRtK0vR4cHo2LhiaBu2Z+lx4AEhzM7B6JfDsX4AAXYOX3wEsuBYYUp7I9zeAEQkUBEEQ+j88C4R3B9DyeDIK+GsSo/mIQa8Ej5tzDxw4gI8//hjvvfeeaubl6q2iokKlahk2bBiGDBmipI+bdFkEOaLHS5a9HmvK7SmiHsC1Cjh8J5D7NSq3k/iSdPRBHsQehyO64Tb6HNcATSS6oT2I2xagw3Ib9vrGwx0xY3i2AWWZRhxoDeCBd2rh8kXxpSlZuH1iJtLNR2/673E4AthCArj8feDpR+nzqAHu/TGw8Gr6PPISyZ4HOCKBgiAIQv+HEye3PQ+0UzFXAOUkgZp0OBwulaJl8eLFeOWVV1SzL4vfwoULcc0116j5ernPHkf0usqAgEcJB0k6Dt0N6AtIOr4MpM0+MwmQe5tALdDxCn2ef6LPlWQw51uIZN+O3Y4c1LoiyDRrMa7AjHAsjp+834DnD7jwhVF2fHlaNsaeyWbglhbgFbrenvszEHMDt/0bcPtdQGpqcoeBj0igIAiC0P/x7ABaHyYx2otwxrfRGJyOHTt2YsmSV1SOPm7qHTFiBM455xzMmzdPNfWy/PFI3X4X5esOHPmMkvg2PUrC9BiJ0oNA9h0khFnJHQYgLLYczW37G+B6HdAVkdx+A0i/BPU+G/a0hBAjJRmWZYTdpMO7+114aGkDZpEQfvvcXJxTmgqj7gx9ltXVwAtPAR8sppsOPXA9Sfi1N5MA2gZFBLALkUBBEAShfxP3Ay1/gOPwM9hTpceayrn4ZFsDDh3Yq1KysPxNmjQJ48aNU/37eDTviefqHQDESJo61wE1JCDWOSRMDyTmwh1wM76SZnDzdscbVF4GwnUkVmOAzGsQpffVHEjF/tYwfKEoitP1yLbqsKnRh1+sboHbF8FPz89X6WCyLGegGZiV6OAB4Kk/AOtXAUWlwBU3AHMuTjQBDzJEAgVBEIR+TUvNGuxZ82ts/GQFNuw14UBzPtLSszFq5AjMmDEDEyZMQGlpqRrBy/38Bg88P3IzUPWVxCCKnHuArFsG1ihh7v/H78H5FtD+QmLks42ENuNyhEwT0Owz42BbEJ5gFAVpepSkG1DjCuGvm9rw8n43vj0tG1+cnIVC2qZN6WWp5yTQlYeBZ/8KrF0BlA8HLr8emH0hnffs5E6DC5FAQRAEoV/B1RIP9mhtbVX9/TaveQmb172LhmYPjPbhGDZiIqaT/M2cOVNF/rjZtyuR86AjRmJS/0uSqFeA9AVA3rcBwwCJSEW9QOAg4HgNcL1JxpEK2C9D3H4pgobhaPHpEgIYiCKfJK8804BgJIZX9zjx2OZ2FNsN+PXFRRiabYJR18sC6KNjPbAXePlJYOVSYMwU4KqbgJmzgcwB3AR/AkQCBUEQhH5BNBr9dKo2Hum7fv16fLJ6BWorN8BgtGD0+Nm44KIrcP75c1VKF5PJNPCbfLtD+6tA8/8C+sLEPMk8QKQ/w/0ZeW5n3/akAL6RyOWY/RUSwEvgT8lHsyeGGkcQrmAUhTY9KrKMMGg1WFbZiSe3tKPJHcZ3Z+dhwSg7DL3dD7CzE9hDx/rmC8Dbi0kApwF3fQ2Ydg6d67TkToMTkUBBEAShT+GkzSx/PLKX5+dl+Vu6dCm2bdmI8jwvZozVYP7C2zHjwgeQVzrt7BC/I/EfBhp/AQT2ARk3Aflfodq7v+aniyZmdeG+jNz8610OmKeQAD6AeNpc+GFHoyuEKhJAXziGIZkGVGSaYNJpsLvFj//5pBUbGny4Y7QdX5mZizQT52pMvnRvwHNAb90IvLwIWE6yPYLE76vfBSZNBqyDZxTwsRAJFARBEPoErn5YAHkGj+3btyvxe/vtt0kEKzF8+FAsnDcKl4xdgYkkBLYR/w6kX0s/NdhmzegGHFnjfHrtTwKWCUDJb056ruSe5jPi8OkDWom203G+hHg7SVW4AbBfAeR9FTCORDCSgmqSvxonjwLWqObfYdmJlDeBSBz/t6YZT+50YFSuCf89rwDDs81qW6/BeQC3bQWeeYQE8A1g/PnAd39GIjgyMQ/wWYBIoCAIgnDG4chfdXU1Vq5ciVWrVmHdunWqX9/06dNxwYUXYeLYYgy1fQiT5w8w5H4Dmpw7AfNQ+smzLArYBSeObvktiUsrkPs9IPPy5IYzA4tCJBpDOBqnQusxXsYRIokPk8BFSKhC3hpEHB8h7N6AcCwFIcs0hFJnI5hSoGb44GZdjv41usNw+CPQp2igoRKm163vjODD6k4Up+nx5anZuHpMBnS9ORCEBfDdt4DFfwaaG4FzFgC30DVWTtcY9y89S6LNIoGCIAjCGaOzsxN79+5V4sdTu23dulWN6J07d67K8Td+/HiUlhYiVV8DU/13gJgfKPo5kDYX0A7+5rljwk2sTb8BnG8C9uuAkh9TDd57g2EcvgjW1XqwucGPdhI28j0qJHskfxHu8seFHnNCZ/K6hCAG2xEJ1JMU+hHUpiGky4NWl4YhVgPOKTAj06LDoY4g1jT5ccgZhIZelIOcag5nEskSuwF3TMrETeMzkW/rpUgcKw8L4OuvAq88CrS2AXMuA268A6gYBhjOrkizSKAgCILQ63BVU1lZqZp7V6xYgfr6eiV/Y8eOxcSJE1UEkKd0S0tLg0HjSshOzb8A2Q8CefcAxiFUYw2eJL0nDada4T52rY8BKTag+FeJyGgKy1LPRK1YBqIkdTsbfXj9oBsf1XjQ0BlWG0wpGhW54+icnj4GfUoKdJoYtHEPdOEW6KIdJHxGpBhzoDVmQau30mFpoaVDyzalYHiGUeX56wxG0URS2UnmyEfOr6cK7ccSOLnQgopMY++kgyHZhMsJfPgB8PJfAI8XOHc+sOAaYMz4s04AGZFAQRAEodc5ePAgnn32WSxfvlzN7sGJnadNm6by/LH8paamJmb24FklPJuApj8C/h1A6f8CthlndxSwC89moIXkpfO9RP/INBIYQwmZVCadH5IunlJOQyJzCrLMTbut3jC2N/jwyh4nNrUEYDNqMTrHhGK7niQwBQYWQC0LIC01YRiCB6DzfAx9aB/0uhzoMuZBaxsNvTGTpJ+FL6KafVnyCtIMyE/VqRk/tHR4LHlceOAvb+d19bpkjb0igKw6rS3AiqXAC48CAR9wEZ3DS68Cho2gm4xBMB3fKSASKAiCIPQaLHyNjY144okn1Py+xcXFuOqqq9TUbsOGDYNW+7lRrpxYmGeVaCEJTL8OyH+ArCNPRZXOesLtdG6W0Ll5mB5ESVxG07kpppJP64WJdQMtdRkkhKZEOYEU8jRtncEYDncEsLLKg/f2u1DXGcH4fDMuH56GuUNsKoHzZ+Dp7Hx7E+lf3CSk/DsybgCyrqffX4BgVIc2TxjVzhDafIm5gHkEcA5JIEveGYc1hyOAaz4CFv0f0FwFXHs/cPWNdJNRRkZ69l5bIoGCIAhCr8AJn2tra/HSSy/hT3/6E4YMGYL7778fCxcuVLN7/BNxEpvONVRJc6RmO1XQfwZs00hmzr5muqPCHeg4+bJzKeDfQyd4N5UmMjkfiUwWCVh5otncwCWbShGJYS5t4/luu6SQo4UJKfSHY2jxhrGjyY/3DrjwbqVHNSzfPjYDV422Y0SOGRZu+/0U0gXO/+fZSDL6KuBdR6+fA2TeCWRfTa9rQYgOkQd+VHUE4Q5EkWXVYXi2kZZ69EaAr1twHsCNdKyvPg3sWAtcegfwxS8BuXRuBtE8wKeCSKAgCILQ43AEkJuAH3vsMfzud7/DxRdfjIceekgN/uCm36MS7gBa/g9oW0TytxAo+w0JDDfT9ZU99Feo2ubp10ItiQEjwRoyOhJC3wZabqLn2wEd2Zh+FJUyEsPhgHksYBmt+hHGtWmIxLXYVOdXTb9vH+iEi4Tt0qE23DslG5OLLDB9Rv4INYIjALQ+T5/PH+n31gP2qxLJq6302kQkGkeVI4QDbQHVvFyabsCwHBNSDX0oWtEI8PFK4Fk65gM7gKtI/h74GmBiIZbrSiRQEARB6FG4WuG8f3/7299UEzDP7fvjH/8YkyZNUgJ4zGTPzg8TEhghwcj9USK6JAJ4DKjqZjHj+YU5gsrRQI7ScZNxsC4phVtouZ62kVzzYBJ9LuK6QngxAW80XYRHDxVgK+0+PkuPe8Zn4qLh6WpULjfZfuascz/NAIlm698Bx2P0kWQAmbdRuZaksgJxjU6NDj7QGsThjpDq51eWYUBphlFFEvvUtTZ8Aiz6X2AnnYtz6cbim/9G4povAphEJFAQBEHoMXjqtx07duDvf/873nnnHTX699vf/rZK/WK1WhODP44GRwGbHyYRfAewTgeKf5poahS6CcsglwitBumD8FBxkBi2AaE6xPyH4XFVY1ejF4/XXIS17pFIhQsXZG3CpaUdGF88DOlZE6AzlwM6e7LpWE+v5YcaqMOjkj3LAdM4IOt2wDZH9f+LaQzwBqM41B5ArTMMg46TQBtRZNfDrNf2XRMws2M78NdfArt3ApPpeG+9F5gwCdAO0nmmTwGRQEEQBKFHYAHcsmULnn76aWzYsAHDhw/HHXfcgdmzZ8NoNB47Asg4lpIE/iYhMTkPkmhwH7Ozu7/W6cGRQq7eo/AFOlHZ0owVB+rw2t4O1IRLMCZTjyvztuPcjDUoMVWSsEXodGtJ/tJJ7spI9kbTsoTkvAFwfwDVB9FCApX1BSB1KoliFqLxFDj9UTULSL0rDItegzISQI4mWg3avgu2hcNAVRXwt98CG1YAE2cB190JTJ1B78GS3ElgRAIFQRCE04YFkJuAFy1apGb/GDFiBO68804lgJYTVbxRL1D/a8D1FmCbC+Q/RBJCAiKcNq2eCDbUe7H0UCctffBG4jhviBULylIwLbMWWbpaaCJ1QKASCFLhiCwLpNZMhmCiz8ZFD0MkfnOAzJsA63i1LRoDOnwsgCE0dYZg0qVgWJYReWl6td5nAhihm4imRuDJvwLvvQiMnADcQAJ47vl0bdmSOwldiAQKgiAIpwxXITwF3M6dO/HMM88oAeQI4M0336zSwJxQALkJ07sTqPsurZM55N5LsnEN1U7SZHeqcK3uDUUTs3PUerGyslPN11to0+OiChsuGmrDkEwTDJyuhc8/Nx3zKOMQyVOYSqiGyiFap+egBSwT6TO5mZaj1OuHyAAdJIC19JotJJkWQwrKMwwotBv6JgVMFyyAjfXA0neAxx4GhpQDt9yXEMDMrOROwpGIBAqCIAinBFcfPp8P+/fvx29/+1usXr1ajQLmJmBOBG3iEZjHhaqfqB9oehRofwrIuI4k8G7AWJzcLpwsPCq3zRvGtiY/Fu/swNoGH+xGHRaQ+F0zKh2j8swJ+Tse3Kcw4qLPxp14zHkH9QmJ4tdv8YRRSYLp8keRYdFhWLYROVZ930X/GJ4NhCOALICLfk/CStfeN34CzJwN2O3JnYTPIxIoCIIgnDRcdXAEcM+ePXjyySfx+OOP47bbblN5AHk2EEN3puCKhQD/QaCSxE9H4seJodPOh+QFPHm4JucIXZ0zhCW7HPjr9g60kKRdVGLFFydmYm5FGuym00uKzFPKNXWGsac5AE8oqmYBGUECyCLYp/Cbd5O0vvsm8AQJYKAF+LdHgDl0LR0rHZGgEAkUBEEQThoWwI0bN6o8gDwK+JZbbsGXv/xlVFRUqEEgJ4aqHpUX8O9A8/8jAfwekHWLRAFPkQ5fBOuqPXiW5O/Nyk4U2fT48uQsLBhhV/n6DNpT76fXJZiN7hB2NQcRjcZRnK7HkEwSQLOubyOADF2LePNV4LlHAVcDcMNXgbvup2uJE2P39cH1b0QCBUEQhJPC7/dj1apVeOqpp5QInnfeefjOd76j5gA+4SjgLrjJ0bsNqLwDSMkEin8OpM2mdRm9eTL4Q1HsbvHjxT0uvHWoE9FIFBcUW3HD+EyMzTUj06I7cfPvcWBB8AWjqHGEcLA9qJyK5a/YboDNyPMA97FkcT/Ad98CFv8VaG9OzAd8271ATq4IYDcQCRQEQRC6jcPhwNKlS1USaJ4TeM6cObjuuutUImidjqNC3ax4eZaLliep/Ioq7O8AuXcBpiG0QdLCdIdILI69zX4sq+xUAz+avFGVm2/ukFRcWJaK8iyTGqV7Oo7G8wrzTCIsgJwChicRYQHMUylg+lgAWV1YANesAp79A12Y7cDsS4ArbgQqhooAdhORQEEQBOGEcFXBEcA333xTjQJub2/H+eefr5qBR40aBb1en9yzG/D0Y+6VQP3P6IVpveS3QOo0QGtN7iAcCxYzzs23ud6L53c7saHBh3Sys3OLrZhXYcPEQgtyU0/iszgGbAYOf0TlAGz2RGAg4eMk0AVpehj7MgVMF8EgsGsn8NTDQE0lcM5FwJU3ASNG0X2E3Eh0FzlTgiAIwnGJxWJwuVxq9C8ngm5qasIFF1yg0sCMHj365ASQ4VQknnVA5DBguxywjCEBlGbgY8Hi5w/HUO8K4ZNaLxbvdODPG9vwcY1XReVumZCBu6Zk4bxyW48IINP1+5o6SQC1GjUCuDjdAGNfTwPHBOnG4dABYPFjwPYNwLgZwMVXAkOHiwCeJBIJFARBEI4JCyA3AfMMII8++igOHjyIG264ATfeeCNGjhwJrfYkR5xyX0Dne0DzH2m9GSj5K5A6gSpvGRHcBVfKsVgcYSosYzwit8YVxq4WPzY0eLGzJYBIDFhYYcNN4zIwJs+MVGPPzdBBvxa1ziAOtAURpwcVJIAcBUzpD02soRBQdQh45WngpT8DEy8C7vs6MHk6cMKURMLnEQkUBEEQjgpXDyyAa9aswe9+9zs1Jdz3v/99JYGlpaXHngf4ePipAm8l8XO9CdgWAGX/Jf23krB8sfwFozHVF6/eHcYBEr+3Drqxut6HDhLCbIsOk7OMuGpYGq4bn9mj8teFNxTDtgafag7mASAjcxP9C/sczgVYUwW8/jzw2C+AilnAN7+fmA5OZgM5JUQCBUEQhKPidrvVIJA//OEP2Lp1K77+9a/jS1/6EgoKCk5NAJn2JUDz72klABT/DkijClxQOHwRledvD4nfiupOvHioEz5XGEUZBozOMmF6gRmzSlMxgZaZFj10Wg16Q5/3tgRwsC2g8gqOyDGpJud+QWMj8OpzwN//DKSS9H2fbiCmzwSsVrmROEVEAgVBEIR/oq6uDq+99hpeeOEFOJ1OlQPwmmuuQW5u7sn3AWS4qvFsBVp+C/h3AfZrgMKHzurBIFE6J65ABDsa/Nje5McGKntJADv8UaRadZiZZ8K4bBNG5JpRlm4k8dOqUbkcleuNkbkciewMRrG+1qsiktwPsJR+b59OBddFWyvwwiKSwGfpxsEO3P+vwOy5gIWuH+kHeMqIBAqCIAifgUf+8ghgFkDuE3jTTTepQSD5+fknGQGk6iXmB7x7SQDXUPmYBHAzYJ4E5JEAps2ifc6uCA5XuO5AFAfb/NjU4MOu9iC2tgbQ4grBbtBiWAbPwmFCBZVxJGF5qXrYjFqY9b2bkoVNIBCJoaojiL2tQZRl6DE0y4g0k67vPyGXE3jjFWDJE/QgBtx4P7CAbiLS0iQCeJqIBAqCIAgKFj4WwCVLluDZZ59VfQKvvvrqT/sAdpt4BAi3k/CR/PnWkwRuIMM4DKSYSADHAPYFVIHPA3SDf05XrmF5gIcvxPn2gtjTFsTO9gD2kPzVOEOIROLIt+lQYTdgbI4ZY3NNGJJuUDNxWM5gLr7EnMMRbCUx1WtTMDrXiFybHvq+zgXop5uIt18nAVwEREPA/KuBK26mm4j85E7C6SASKAiCIJCMRNDa2oo33nhDpYHhUb/XXnutagLutgBy1I+nggscIPHbTAK4kdb3J6I1phGA9RwgdQ6J4PBB3QzMtSpPs+YLxdDmi2BfawD7OgLYT+J3uCOItkAMBhK8cpK9MZlGTMs3Y1SOSaV36e2I39Hg43UHOToZwCE6xvH5FpRlGGCmY+wzBeSD8vmAdWuARQ8DjmbgsuuBq28FSk7ihkQ4LiKBgiAIZzksgJz7jweB/OY3v1FNvg888ICKAvIgkOMSj5H8BYGoC/DvI/nbmmj6Dewl0dOR8E0m+TsPSKNiLAJSujOv8MAkFImrJlXu51fnDqtp1va3+LGuwYf9jiBMRi2GpRtVM+9kEq3pxZZ+kXolSMfc4ApjZ7NPzTE8rcSKdLMW2r46ri4B3LsLeOTXQA0tL7wWuP52YPTY5E5CTyASKAiCcBbDAtjQ0KAE8Le//S3VvT58+9vfVlHAoiKStmMRj1Ih+YuQ/AUqgc5PAPf7SfnLAFLPAewXAbZzAcPgabrjCpMHTURppWsZpWWEqlIWqaqOgMrjt6bei+1NAURCUQzJM2FqrhnTCsyYUmRVU69ZDSeZX7GXYANo90Wwvy2AJhJXjkgOo3I68w2fNtwEvG838PRjwMoXgfkkf7feA4waA+joxkLoMUQCBUEQzmL279+v+v8tWrQIBoNBiSDPB5yWlobjzgMcrCfpWwu4SPy8H9PjQyR+5wHp1yTEz1xBMmhPNAUPosEf3Mzb4Y2iqZNn0wir0kDyVEfLjS1+HGgJwkP7TSTxu6YiFTOKrWqgR4HdoEbZqv/60enwhWM41JZopuYchNOKLTD05bRwnAtw+1Zg0R9IABcDl5L83f91oLRMBLAXEAkUBEE4C+Gv/l27duGJJ55Q/QBzcnLw0EMP4eKLL4bNZjvGKGCqLnwke+7lQCeVwDYgSspjHAdk3ghYaGkqJfnjUZsGKp99jVpHEG/td2FPawB2QwpyrDpkmpOFBCTDrIWdSppJq+anZXlUCnmGhIRrwzj9x7N0dHgjaPWQ5FFp6IygkSSvjtYdwZjqP+cMReEIxeChEqZ1HuAxMdeMc0mixhdYMDTTiKI0A+ymFBi1KdD2Uk6/04HfLw9O4b6APAPJWBLXIpLVPhNAPqAD+4FXngTefQEYMxv4+veA8qEyG8hx6LI49bGd5GcnEigIgnCWEQwGP50HmEVw2LBhuO666zBv3jykp6eTBBxRk3CzL4tesJbkbyXgeQ8IVdEGM8nfGCB1JsnfBHo4guQvNTn92z8LJCdCfnJzGxbvc6HeE0EqSSBHxngQhI4kiRMf82MejWqipY22l1q0yCIh5JGyGbRMp2KndV7yTBlGXeLnuU8dj6VIrNOSypHvgWs5zskXif6j+TYQIZHzRVVTaCuVZjqmepK8WiqtgRh8ZEVB2jlEyzAJXjgaU1FAm1aLbBK7bBZYJa46ZJG48rKEpK/ErlfPW/T8/lLU8fRXnP4o9pOQ8znIt+kxhiQwId99xGGeDm4R8PH7QEEFcOdXgCnT6Toznrk7gX4OT+MXpRuPSCAKvyMEZ5UHjgMe+FoCyBqVhvKL8mHK6P4UjCKBgiAIZwnRKImP04lly5bhxRdfRE1NDaZOnaoEcNq0aUoAP4UHe0QcgP8g4OU0L1RCJIJcGauRvlQ5W6bQ+lBARz+nOXpTHVcwLF2v7nLgj+tboSPJmFhoUU2PHEXj5MS8dIeitM6RtagaVcuyZtMiIYpsdSkJUTSTVVmosCjqDCSLLIkkhEoWqaTRup0KS6JJr0GQBI6nYGPR4ZG6zSR+dd4wgiRALHoe+kUBKjGWvDDoOZJeen31OiR3mfSaHKlk8VQSaqClMYUKrdPjVFq30XMWKtyPjkV0IPgKS/HB1qDKC2giYR2V28czg9TXAS89Dnz4BpCRD3zhAWDuBXRzYTl7BZBvWOi6jNA1G/ZHEHCG4Wn0w1XthaPSC587gFBHBCF3GCl07Q25IA9jbiqFJaf7UVORQEEQhLMAHgDS2NioBoBwImiWwfPPP18J4JQpU2A2m2kvqg5iIdq5IznSdxOVLSR/lbSJpNA0hszsfBJAlr+KbuX5C5Fg7W/14ycfNqLSGcIXxmfgxnEZavYLnqOWBdBH8tfJEkjFo9Zj8LKgkSDyuouWHbRkUfST0AW40ONwCncTS4GFKkCOvJl0iaiimZ5L5SVJJEfznCSC3jBLXpSWcXqtKIwxclgSOItqgtYhl5a5Zj1JH0kdCV6X9KkIJG3nJmouSvKS720gwyOYtzf41WfA6WCGZZuUcJ9x6LpEYwPw9ivAm38HDFbg6juBa25MzAxylhGl6zRMNyhhbwRhD0lfSxCdtT64m33wtAYQaA0h0EaFxE9DfmzLNMNWYEZ6mRV5EzOQOz4demv3+06KBAqCIAxyeMRvVVUVVq5ciaeeeko1B19//fUqBczw4cNhNFClEfMB4RaypmoSvx30QyR/gUNUS5AtmUeS+M2mMpXMaRRU0uduwAJY7QjiLxtb8coeFxYOs+PuKVmYRJVWCsnU8YhR1cQRQZYUbzJayFFCnm2D++SxMPpI6BJRxKQoqsI/E0UsEEOMRFLDTcYkbyx6hbTMJtnLsZDUkQCy4HEzLqdDYdHjdY7usegNVrjCj8TiONQWQGVHCFkk4yyA/N7PaMCN1cPrBQ4dAD56D3j31USz74LrqVwLFJckdxy8sH5x027YG0WoM4ywL6KaeD3NAZI/P3z0GXkbggi0B+H3hRCn69JsMyAtxwx7mQXWfBLAIi4WpOaRxNN1fbKIBAqCIAxS+Os9EAhg+/bteOWVV9QAEJPJhB/96Ee48MILE/3/4mGSv1aSPhI/1weAZy09rgX0RUDaJVTmk/iRBBpyk6/aPbgJuMEdwku7HPiXj5pxdZkN352Ti8mFlh7td8bNmpyfj3PdBUgK1TJZuC+fakLWp6iULBwt5HVOgny2wp+LwxfF+jovzCTILICFafozK748ArizE9i1HVj0Z2DL+8BQusG45T7gvAuBrKzkjoMIMi2WrVg4pqJ9UbpZYenzkug5DnrQtscJZ5UP/laSPhLCYDBCf3NxpGdYkTvBjpzRdhI/Kyy5JtXnz2TXI0V7+texJhaj+y3xQEEQhEEFj+7lJuAVK1bg0UcfVVHA8ePH45e//CUmTZqk0sHwd7+Go35tzwJOKuFGxPVlVAlTZZx+GeKmYYDOSjUFCQJXE5wYuhvw7iwa7x904z9XNaPaH8HLV5fh3FIryViKCgL1BPx7PpvGpjsik6iNOdJ4tsHvmJvHdzb5UevgnIBGlGUalByfEeizUp+X0wnNx8tJAP8I7FsFnH8L4nd/BfExYwHuljDAPxt+j0deluy8dMEhForBUe1B6y4Xmrc50b7bDU9TQMlgMBDhbq9K9PImZyCfSvZIO6z0GRksOhXlSyFp77rGeRQ7DxI5XTQdHR3xcJjuBAVBEIQBTaLy0SgBdDgceP311/HSSy+p9XPPPVf1/5s8eTJ0nG9No0VKpBXmzr/D7FuMmCYNPvONCBpmkAjmI85pXlKSAwVUXdO9CodH6nJz46q6AP6yzYudjgj+ZbIFVwy3wm7snWnI/lHhnujV6T0k38bpV58DC74uIiQjHQFgr0sHqy6GclsU6QY1Dqb3z0eKlkQoCl1NDSzvvQrTsiXkRSEEL7kV3osWIl5QhDg3BzMDUALV3x6dSC48yCjijyLgDMHbGIT7cADOvT64q/wIdUbU1Np8wlP0Gpiz9UgdakL6CDNSi0wwZiSET2/WQmfUQqP755yNLIA99YFpgsGgRAIFQRAGCTwCuK2tDY899piSQKvVioULF2LBggWoqKhQA0DUdz7VRBrH29B2PAatxo94zv2IWi9ANIVH+vJsFl3RoZOrH7i+2t3ixxNbOvBBpQ+XDU/Dt2dlq75nfTHuQEjAn6LLH6PPhoQkCIzONaIgVQvTyXcjOzU4HLZlEzRLHod201poM/IQv+waxC69FtGsbMQHQSJoFj9/RxDOGi9atrvQstMBZ6MPKUEeNU5SZ9IiNd+kon32slSkFZphyjRAR5+DgYrWnKKifSyU/IeUkD9Nj0rf55E+gYIgCIMEt9uNHTt24M0331SjgIcMGYLLLrtMjQIuKyuDXn9EChCe7aPlT4nBIOkLgexbAP3J9fs7GjWOIJ7c1oFlhzsxNN2Ar8zMwaRCa7/Ol3c2wANoahyJxNCcpHt0nhlpJs5j2MsfDN2UwOUEVq8Cli4GaquA0uHA+ZcC02cP6AEgrE8hTwTuOh9clR44q73oqPLAQ6LNA5MMdONjItlOzTQhlc63hdbNJH3mTKPq12e06aHt4/6pIoGCIAiDAI7+rVu3DkuWLMGaNWtUs++tt96KWbNmISsrKxFdUMSAUCvQ8Aug8yMg7WIg937APIy2nZ4QcEqXZ7Z34O8kgZxe5eszcjBvaFrfpB4RPoWTZDd2hnCgLYhAOIbJRRbkpOqh620zD4XoOqsDVn4IvPsS4O8Eps4FLrocGD8RsKUldxxYqAEdJHqdDX64qrxo2+tC60EXIq4oNGYtLNkGZJSnInd0OjKGpsJMN0OGND0MJN/cXNyfEAkUBEEYwHDzb0tLixr4wQLIM4CMHj1aTQE3ceJEWCyW5J4Mfd1HvUD7q0DzfwB6Er/crwAZl1JtcHrNcTxKd3VlJ/5jdYuaHeS2cRm4Z0qWSs0i9C38eRxuD6qp7wpsOkwssvauALJW+HzA4YPAineB118AUkgIL78DmH8lUDE0kQ5mIEBvhTWJR/QGXWF4mwJw1bH4udG+xwVPY0C11KakaZBZYEP+tExkj05TuftMaQboSAr7MyKBgiAIA5SuBNCc+mXx4sVobm7GJZdcggcffBBDhw5NDAA5kliAKufdQM23ydragZyvAZnXA4ac5A6nBg8EaSbB+NEH9VjV5McVw9LwpclZGJPHCaiFvoTlvJIEkJuBtRoNJhdbkG3txZlBWCk8yfQvb70MfLAEsJuAG79BEngtkJdHxtS3TaDdIR6NqzyTnLg56AqpUbytJH01K1rgrvGrmy/u45dWZEbBzCyUnpenxM+QyqN4/3kwR39FJFAQBGEAEovFlPT9/ve/V1PApaam4q677sKdd96JzMzM5F5HQl/1gWqg/r8A55MkgN8Bcu9KzPxxGnANwpGmP6xtxiNbO3BJmRVfm5mLmaWpyT2EvsTpj2A3ibmDluVZRozMMfduTkC/H/jwA+D5PwE7PwFGnQN89bvAzFl0szEAon90PbMW+R1B1dzbvN1B4teK+vUddNMVhSXdgIyKVBTNykLJ7BxkjUhTMtjfmnm7i0igIAjCAINn/Dhw4AD+8pe/4J133sGIESNw2223qSggCyCniPknwu1kBO8Atd8EzLOBkp8C1nFUC3R/svmjwXP/rq7qxO1v1mJ4mh4/mluAC8ptKh+g0LdwhPZAawA1zpCaCm9MnknNjNIrsEo4HcBbbwCvPw60tpL4zQdu+SKJ4JhE828/Do/FonE1a0dngw/tB9yo/rAFjXsdKqWL2WSArcSC7NE2lJ2Xi/TyVNXHj1O4cJqXf/S3HXiIBAqCIAwgWqlyXbZsGZ588kk1FRynfrniiiswYcIEZGRkHF0Ao52AewXQ/CiZQRtQ9DMg7RyAcwGeBjw92/paL367rgUH24L4/tx8XDI8DblW/YBpDjtpohEyXw/gIOFxdCTEhwuPgA0nE8D1NixUeQXAGJL4AloeOer7CLgPIEcBeVxORZYRhXZD7/QFDASAPbuAl54GttB1VlAKzF0AnHMBUDoEMHVvmsEzDade4QEe7fvcaNvtQsdBD9oPdyLgIWnONMM+xIp0LqWpsJdaYbTr1ejegRz5+zwigYIgCAMA7v9XXV2N9957TyWAbmpqwlVXXYUbbrhBDQThfIBHhTPTejaSPT5By1VA9gNA7m0kgJwP8NSjdTzidGujD09sacNbh9y4f2IW7picjQKOkAz0CpInUOB+bS53Qu6cSdlj6fOyUPNz7bStlfaj570khQF/Ihdeb9eofGq1OpJ4O5ndBKBsGC2HA+VDSb4KQReCOoQwfz71PrR6wygh+RuabVRT5/U4fE7WrwVeewbYto7EdBKw8CZg5nkkqvl0rP1rYATPshFwh0n43HCS9CXEj2fuYFnWIrWE5c+CnJF2ZHBEO9cEI13TesvgEb8jEQkUBEHo54RCIezcuRNvv/22igL6/X5cfvnluP7661FeXq7mAz4mgSqg7WmqrF8HTOVA8S9pWUbf/qdeOXOtUdkRxAs7OvDiLgeK0w34n0uKUJ5pgqG/poNRgkYH3rVk0eMRrCxwnSR7bhY+Ejo3S50r8Zx6ntbV88lljMTZQOfbZAbMesBChQWcCwtPb4dA+dgDQfpMSUCbSEYjgcRgi7IhQEmFysEXLR+GenshdrZHYCHxG04CyHLeozkBOf9ffR2wZnli8Me+fcC0aSSAtwBTZiXm/+1H4WCWP39HCC07nWrKNkdlJ9zVPsQicRgz9UgtNiOzJBU549JUImcTXdNqqrZBnt5IJFAQBKEf4/V6sXv3bjX696OPPoLNZsO1116Lm2666dj9/7qIkuC0v0jlGaoF6XHug1Q5X3/alTMPBHlltxPPbu9AmCrXr83IxvXjMnt3wMHJoCQvBASpcISOByuw7Hm4kNh52hLPu0jsuFnXSTLVQett9LyD5CpMcmgguWO5NrPwUTHy0gCk5tI5zCfxKgSyeT2bSiZgz0j8zGnmWjwhPH+zl46v+jCwcT1weDvQUp+IyIXjiOWXwzv7EmydeTncoRgqTBGU5qTCmmGj46Pj74nIHDf/1tYAy98Flr5K54/O2bSLgC/cDQwbnhDkfiSA0WBUje6t39CG/W/Vw3XIB3O2AdYck+rflzcpHTlj7bCQLKup2gZhxO9YiAQKgiD0Q/irmSN+mzZtwlNPPYWNGzdi2LBhKgH0pZde+rn8f0chHgU6NwBNPwVCjUDmHUDOPYD+aCOHu08oGseKw2783/pW1LnDuGt8Ju6Zlo00Uz9o9uPoVDBI0keSVEeS0lQHNDcBrc0kSiQqPFihpYHKXtqZqj4WIhXVI0GyZpHgpVNJA2wkdLkkerl5iSVH2rJz6BzSPub+JThKZPfvA7ZvAfbsQIBEti53NHZcfgfyGg5idPt+ZGTRtTJkGJBfnHgPRpJB7kfI8/me7HthoT5Av+/tJcCa9xOzC150IwngnfTadG31s/QvPJWb43AnKpc34/DyJvidIZTS9Vo8Owf5kzPUTB59PWtHXyISKAiC0M/gr2Wfz6cE8D/+4z/UVHBXXnklvvSlL2HKlCn/nP/vn6Cv9VAbUP9zEsF3SGouIpH5DmAZkdx+anBlcagtgH9f0Yj1DX4sHJaGf5mVi9LM0xthfFpwFcZNvJFIIhp26GAiR91Set+HPyEp9CT60JnsQFoRkEEyl0VSl07CkpOblD1eUuE+bNyMqSNB6k+i101iHg8cDW3Y0haDy5iKma//FXkfPwN922F6b0OBKZdQmQZUVADFpcnoJX12LG4nkjc+z5EwsJVk8/E/AluWAUNHAzd/BZh/aUKO+xHqsgjH0LStA7uer0b16lYV/ZtwyxCMvq4EOrOOPuKzJ+J3LEQCBUEQ+hkeqsw3bNiA7373u+js7MQ999yDq6++WvX/M3ClfVy49gsADX8A2v8MWGeT4NxPIjiTvvFPPT1IjF7WHYjiJ8vr8cp+N+aX2/CN6TkYn9/LeedOBPfl27kD+GQ1sHkVid+2RHNuyVRgJr33ocMS0S+O8KXaEsVGhaNgLD5aFqAj1nmwzACVAx6tzX019zQHMDxTjxH+ZpibaqDZvxfYthnYS8VZlYgCDpkOjJwIjOMygR6XH3sWD5Zsbip/6zXg+YfpnNP5vfga4JpbgLH0s/0s/Qsneva1B7DnlVrse7seIXcEJTOyMeq6YuRNzIDeRH8H4n8KkUBBEIR+BCeB3rNnj0oC/fe//x0//OEPPx0AcmIBJGLc/41EqOpLJDbZQN6DQPqlgM6e3OHk4UqCBePdvU78dHkTRuYYcd/UbFxQkQaznqTpTMNNvjXVwPp1wNb1QCW939baRLRv3LmJAQpDRiaiXSx8HNnjpt8jyyCDRwM3dYZxoC2g1qcVW5Cui0MbCdFdhTcxkKShBqgnCdy9k8R5O32ozYDZQjcJdJ5KRwCjxgPjJyX69XF3AxY7HkDDzb8vPwssf5HOZTpwFcnfPLqmykmw+1kEMEI3Kh0HO7H9ycOo3dwGc7oRFfMKMOSCXDWfLw/2EP6BSKAgCEI/gmcBef311/Hb3/5WpX75yU9+gpEjR8J4rCjNkcR4IMQBoOkRwP0eVe48Ldx1JEdUyavOW6cGC+DGOh9+vLwB5BW4e0oWLh1uR66NB0KcATgSFaL31t4G7N0DbFxF4kcS09gE+CJAURHoZAEjx5GYjEnIH4/W7ecJinsKrsR5sM6h9iBaSASHZhkxNNsEnVaTCHhxNd/VX9JLQthC562mEqg9SOfxEBVabydJtNL5yskECoYCIyYkJI9T5Kz6ANi8AsguAa64GThnLlBI57w7NyVnCB7962sLomFTOw6+0YDmbQ5kTUxTAlg0LRu2wrO779+xEAkUBEHoJ/BI4I8//lgNBOEZQX72s5/h/PPPP3YOwM9AX+WBWqDjZarkfw+kXQrkPQCYSY5STr2yDkZi2Nnsx+/Xt+LNA258d1YubhibgbIMQ+82A3PVxNLS2QnU0fvaS9J3cFdiVGxdA4kt/e6KEcDQsSQsJH/DRwH5+SQmJDL9bHBCb8OfUVVHiEoQRn0KJhdakGbWHrvFk6WapZAHlTTUAVUkglV081DH57aKhJCet6WR9GXQRUnnn3MkDh8JXEICOGMWYLf3q2hqJBiFq8qLmrWtqFrZDG9NAAUzMjB0QSHyxqWrdC9n04jfk0EkUBAEoR/AX8WcC5BnAmERXLhwIR566CElgMdNA9NFhCpu14eJKGC0BSj7A5A6jSrr7gjk0YnRMal8gDsd+O3GNpxTYMHPLyjA6FwzjLpeqlR5gIfPm0jdUklScnAbwH3auHicQE4OCclkYNQEYDyVimH/aLo8C+EKnKN/+1oD8ARjKM80YESO6eQEnTWAR1Rz2pcD++lc76FzT6Wxkq6lEDCazvcN9wITadnPmtLD/ghad7nU6N86ulGJBGIom5WDMbeUwl6aCm1fdFcYQIgECoIg9APa29vxzDPPqHyAOSQ6v/jFLzBq1Kjk1hPAzcCeDUDr40DnSiDrPqDgy4n+W6fRA77NG8ab+1z4y6Z2eGNx/Or8fJxXbkOqsRdEgMWPo36tJLDcVHmAJGTLZqB6C6Cn31c6jsRvakJEuHD6lrMMbvLklCdBkr4UkhuTXY8wPb+nJYBGdxjpJi1G5pqQebr93jgPYHUVCTgJIUs59xEcOz65sX+gZv5whtC6x4V9S+rQtMsJS7YBQy8sQMWlBUgrOkEKJUEhEigIgtDHRKNRvPrqq2owCE8P97WvfU0lg+5WBJBjQf6DQMsfANfrQOp8oOQXJIAZ9A1/6lGQUCSGt0gA/7SxFfWdEfzo3DzcMCkT+p5qVuOqhwsPPOD+fls3AWs+IvFbTxK4l553keiRBC+4DpgyHagYmhjl24/6oZ1R6FQFPWE0be1A9UctsGYZMfyyQrSR+B0gGdJrNRieY1Kztwz2mGiMrk2/I4j9b9Rh90u1CHSEMWReHsbcUIrc8ekS/TsJRAIFQRD6GO7/x+lgKisrlfzdf//9yM7OTm49AdFOoPlxoP0xEqRMoPC/ABtJ02mqwKpKN363vg07WwO4aWQa/nVugYoA9ohgcLXD4tfUCHy8EvhoKXBwC+CoB+x5wKQLgHmXJFKXcMSPZ+vgZsizrK/fkXCz5+H3m7Dz+So07XbAoNfBXmBBdGQq9NOyMHJ6FoaXWmEa5ALE/f/a93dix9OHcejDJhgteoy/YwiGXlqItEILUnqrm8IgRSRQEAShj+CvX04K/etf/xovvfQS5s6dqxJCT5o0iZynG02u/PXd/irQ+gdajwDZX6RyM8nS6TWF1btC+OWqZnxY5cE5RRb86zm5GJVrPv1udyx+PIMHpydZtwLYToWbgMN6YNg4YPrMRN66orLEdGycvoQTY5+l/f26CLrDOPB2Pfa9Ua/mv80dmwZLjokkqAUebwgpZi0KR9sxdE4uCqdlqpGwevPgS4XibQmg5uNW7Hu9Dh2VncgcZsPoa0rUe+Yp4LiJXDg5RAIFQRj4RBxA1EvyY05OizYwpIGTQr///vv4z//8TxQWFuLee+/F/PnzkZqamtzjeNBXt78KqPsBENgPpF+ZmBZOpYM5Nbgy8IdjeG5LO/6ytR1FaQZ8aUoW5lXYYNSdYgXLVQyPRG1oADZ9AqxfBhzaQ/LnT0je6LHA2CnA0FFACckfTz3Gkb+zXPwUdOo4AqiSHr9Vj2ggijISvYpLCxHUabBubSvChzqRUkXXvjMMjV6D1GITCidkoXA6ySAJvDndMODliJt/nfQeD77XgKplLYjQOSmg9zfi8iJkjkiD0aZHilaul1NBJFAQhIELR798uwH3UiB4ANDlAtaZJBFDqJBQaDmRbf+sAAOBAPbu3auSQXNuwPvuuw9XXXWVksETwvMC82jg5r9Q5b+E3vM0IPsOIHU6fauf+qANFsAPDrjwh09aVaqRm8ZlYOEI+6kPNOCcdNWVieTEO9Zwu3fi48grAMo4vcsYWpYDpZzXj8R3ECZxPlVi0Tj8HUEc/qAJe1+tpY9Vg9LzclBxcQHMQ1JR7QxhX6MPRZE4bI4QAiRJHYc74W7yI+aNwZCnQ1ZpGrKG2ZAx1Ia0EotKlTKQUIM/XCE0buxA9ZoWtO11w2DWoXhmNkrm5CBntF1Sv5wmIoGCIAxA6GuLRci7A2h7FvCsoFrTQRJhJ8nIBiyjANscEsHhgKE4MUr2NKZM62l4IEhtba0aCfw///M/alq4u+++G8OGDeveYJCom+SP3nP9vwMmeq85dwNp9H5PIx1MIBLD3hY//n1ZIw6RfHx5WrbKB1hgP4WBBjy6lJt9d20DPlkJbFpLnw89V0jCN+cSYOq5iQTPPNBD+CdiJHbc9Fm1vAk7nqmiexktRlxemBDAQjNavBHsJNnTajSYWGxBFolRxBOGh57rONCJurVtaD7sRNQRhSGVZHBEGgomZiJzZBpsBSaYs43o7/PmRumGhN9P/ZpW7H+nAe5mP3LH2DFsfiGKpmfBnNWN5OnCCREJFARhgEFfWVE/EKxROfEi7hVoixTDqZ1MmwIw+9+HISUEo7GcKsCJMNinkxuNQYqhgGQwTclgov7ru0rQ4XBg+fLlalYQ7vv3q1/9ChMnToS5O1NwxYKAfzdQ93NabgYKfgxkXEWym5vc4eSJxBL5AJ/Y3Kaaga8fYcdXZuZiHM8LfDKywCN9ObFw5UFgDUnqqg+B1jrAbgHm3w7MvgAYPiIxlZtwVLoEsOajFmx94hBCoSgmfbECQy8phCXPBFcwisr2IH1eIYwvMGNIhhEm/T8+o2goBm9rAM7KTlSvaEHjrg4E2sMwGPVIL7eiaGYW8idlwkIiaLTr1Swa/SqaRn/e3ATurPbS8Tdj/5J6hGIRlMzKwcgriunYM6AzScS4pxAJFARhAMEC6AF8e4GWvyLqegN1kfPxfOPVWNE2CimaOIZanCjU16AAn6DAWI88awR2+1CYMs+H3j4LeiNVIjqe7UKrEupy9dcVFUmsq9Veg1PAbNiwAY8++iiWLVumRPCSSy4hL+qOGMWAQBWJ1d+B5l+R/H0RKPwOYB5G24594J9+ySdXjvzS5yqgxRPBG/uc+P5HTRibbsAvLyrCFO5P1t2+ZGpKsgDQWA8sfQ/44DWgemdicMec64EbvwCUlAImE87mEb4ngps/WQAPL23C9qcqVUoYFsCR15bARNLmDkRR4wihxhmExaDF9BIrbEYtXffJF/gcIW8Y7no/qpc3o3JZk+pXl0IXOAtg+aX5qn+hvdQKfapOpVXpaxlUeRDpPbbsdGL34hpUfdis5vqdeE85yi9O5P6Tvn89i0igIAgDB+4H17mKZOP/SIZWoFbzFfz3/kvwWkMB/DE9Mo0ptIzBS6LljwTZuJASDSNNG0SZxYsRqWEMycpAad5QFGZkID/NiHSzFiZdCgw6jZoFgwdAdMlhb1BTU4M///nPamo4nhWERwbb7fZuzgrSATiWAE0/A7TFQBmdB/M4EiuSq6PA3+4860eEZwmjZYwr2SgVWo/yc1T84ShW13jwh41t2E8y+PfLijG3woa07kZbOPrHTb/LlgLP0vG0VJOc0rGdfyVwzY3AiJGJqdzYrnvbsAc4nQ1+1f9v75I6JUST7irHqGtKECHRq3eHUd0RhJMkyUbX+bAsI4ZkGo8/Mwh9/lzFc9Oqn+cVJrniNDMNn3TA7w3ClGpAyaxsDJmfj7wJ6bDQ6/XlIBI/CS5P+7ZnSQ1adruQPzIdU786HLnj0mGw6qT/Xy8gEigIwsAgRKLheBPoeBKRIFUSmuvwsz2X472mLEzITcP1VGHwdFkt3jBaqbR4EqXNG6GKMwxvOIRAyAdP0IvOmA5apEKvtUJrMiIjVUeCmIJSKsVpWuRbSSip0uEoC0fDLFSsVPGaSRD12pRTdpmA34dnn30Ozzz9FFLNRvzb93+AGeee1610MNGIDxHnR4g0P4Ww/wAiWV9HyL4QYXof5HEIk/yGSPDCVEKRODpDUXhDMXQGqdB6Z5AKLTsCMbjo+XZ6zOv+QAQeXxRGQwrunpSJL8/IITHWHTO69Cnc76+hHti8AXjvNWDfGsCSB0yfA8y9CBg7KREJNErfre7gbQti5zOVOPBuA/R0Y8LyN/SKYnh0wKGOEDp8EdU0n2PVqoTQWRa9unHpLjzQhGcbCZBouWq9qFvXhqbNDrgafSqInFmWivILc5FL10D6kFQYLNrTly6WUJJZHt3LJRrm9YSUqudomVina5ZuQKqXt6B6TTPdrMQwZE4eRlxZgoxyq2r+FQHsHUQCBUHo//AAkI4Xgc7l8Ea02BG4FIsOn4PlrZmYXZKO60enY2aRBWkmnRrgoApHP9QyTss4CVEYTp8XTm8HnB4nvO5qeD1NJET08shARJMHn64YbfE0VTnpY1Ho9RqYqEK2UykgMcqiyiidxNBElW/KyVZKVLG17lyFDxYvwp66Foyedz2uu/4men2rqoSPRZQq0VBMQ7Lmgt+1B4HOvfDGDPBaz0Mn7OgMa9TsHnzMqqKl98oRvzAdX1irgZGKmdZNah3Qp6RAR4/JZdV7MFJJpfdZlmHCFSPtKONo0PHeGsvfvr3ApnXAtrVA3SGq6c0kf9OBCVSGjgQKixP9/iTyd0K4CnbV+rDnpRrUrGqBOdOAkovzkTY9G5103fG8wHyB8DWYSzcmPFLbQsLOM4ScClzjR+kGgJud3XU+NaKYky+7Kj1KEHXpOhSMzUT26DQqdthLLErCuK+hKvSznLA5wusBWtKNxKfPda3T89EgyZ76ma7HMZJQKsntEX6etkcitKS/tTA9jnfGkV5iRdn5uSg9Jwe2YovM/tHLiAQKgtB/4RHAvn1A22MkgCvgjmZio28hnqyeg3fqrbh8qBV3TsjA1ELrcZsv+UsuGo2RLIUQCvmpeBH07UfAvRte10G4PY3ooIqpNT4c9ZEyuOMV8McL4YlZ0Mnd8EiuwiRZPlpylE1DktX9qokq6xQ6tuaD6Fz9FBoP7kKgeCpyzr8VRUVlJGz0Ho9DlEQqkhKHIeqCKeamyl8HnTETWkMaNPQ892ckJ4CJRS8pdTy1G1ee3LRnNWhgo2WqXgsr55GjdTOtm2mdo5xmElpuDufzl28zHNvbeA7Zulpg/Roqy4H9u+mt0S8eOYbkbxZwzvlAQT4dCAmh9PvrFizunY1+7HqhGpUfNsFSZEY+CaBlSiY6ydg5+mehz6YwTY9cmx5p9NzJRP9OBEfheB5iDx0Djypu3uZAR40HvtoADOl6ZA23Ib0sVUUmIyRxXYKnCkvdp+tUSOjCoYiSvmiYhI5uTjR088I3GtyPTxW63jjVDc/qoaH3pdHTpUIXbwr3FqClLcusRjEXTMpQybCF3kckUBCEfgiHK3yJASDtzwGelXBE87HaswDP18/C2iYLhucY8ONzczCpwEKi083+a59CZhdzAaFGwLsbUc8mhGkZCrgRikYRMo6BXz8Rbs1odESL0BJKQ5MvjkZfDG3eMEkk/3z3vjr5G9YXDOOTVx5H5+bXMHLkSAydfyv0FdPoNbpRoWtC0AS3IC1ej3RrAWzpk5BqzVVCx4LHcseRIW6yZqljoePoH/cV42ifWpLZ8ZLdTEUB6TGv8/KY0sfwwfOAj9ZWYN8uYNMqYN1q0MkCCkuBqeeR/F0IDCkH0tKSPyR0BxYnV7UXh95pUH0AddlG5CwsgGlaFoIWkq5oXElfsd2AbKtOTQdHH12v0DUgw9cWhLPSAx6V21HlQaA9hFiQbjToF3P6yRTuCkHXTeLxkYVehKWOJ3dhsSPJ09K+Op0OenoPLJE6sw6GVFrSe+PZTHipo+cNFlo3pUDLgkuia6L3y/sLZwaRQEEQ+hdxHrFAgubbAbQ8RZK2As6U6fjIczWeqh6LT1r1OK/QhG9Nz8aEQouSntMiHqYa2QH49wPuD+n3Uom00QYLYByLuGUGIubxiBqGIZqSjij05H8a1Yx3YjQIhUPYsWMXfvSD73PNj7vvuRtXXH0tLKkkTfxej0mixtd4dyKl6b+REnVCk3kVNNnXQWvIUlu5QqaqV434PK7MnQrBINDRDlQdADauBVYso8/jEMlfCXDuAmDu/MSgDwudpx7/5YMbbiZ1kmTxVHC7nq+hz5VE7+pi6CZlIJ6uV9G/fJsOJekGkvtjj/7tDfi6DnWG0b7PjfpP2tFxwKP67BnpePQkozySmJcGK8kcP+YliVyisOTR0qT9x2jjLmmk1cQyea3yOm+Ta6dPEQkUBKH/wFIUcQKeT4DmP5OYrUTAchXec96G3+8twX6nBgvLrfjGjGyMySf56Gn49/sPAi4SQc9KWt9KNTaJkKEMyOAZOSYDpqGJpNTdSD7NffNa2hx4+HcP4+Ulr5MA3oNbb74OZaVFyT1OAM+IUv9rwPECkH4VkPtlwDw8ubGXiNLvZAE8RPK3ms7B8jeAg1vod5cD0y8Gbr4dGDoske5FOGlYqNy1Xhx4qx5bn6pE2KxDzh10fY3LgC1DT/KnR7FdjyySqX4jSGwJ4mqDEpFAQRD6D2ESLse7QOujJCI7Ec+6F8ucN+JH662o9wA3jLLjwWnZGJZtSkQTegX6SuS+iOEWEsHNJIQraLmahJDW9WaSMZbBcwEdz1F8fJydIby/4gDueuCHuPXKMXjw/pswfvwYGPTdmL6LBZBHRDf+CDCOBwoeot99EX1r65M79AKc76++Dli3FnjhYWDfJiCH5G/21cDl1wBTptI54Pa+04y+nsVwBHDfklrseaMOnSkapN1UBsvUDORlGFGRZURuql4N+hDnEs4EIoGCIPQP/FVA+1MkgS8irtHCbb0fixvm4I/btbDp9LhuTDoW8uhVqiwNVEn2OiyCMT+JkZtkrAHwbiUZJCnyLgMiXtp+/EigLwis2RrDj/8Qgtvdgof/1YSZU9KQajHSF293jp9llETQkEMC+F0SwEtIwHiatV547z4fcPgwsPwDYNU7QNNBoGQUMH0ulVnAUFpPswPdmdFEOCZN2xzY/UI1qte2IZBlQNpVxSiZmYWSHJOK/HHfzt7MUSkIn0ckUBCEPoa+gry7EwLo/hBxbQYadddiScNc/GlnCowaDe6ZnKkEsNhuPOXUGKcOHV8sRDLoAoJNQGA7SSCtx47dny9O/+3YuQd/XfQuXvmwEw/cdxPuu7kCednJ9Cvd+dbtepuGQiCVRMyQT8/1YId5Pn4e8LGXzv3WjcAuKod3kGimA+fMpnIBMGIskJOb6PcnnDI88KJ+Kwngs9Wo3dSOWK4JuQsKUHFhPvJzjEgj+TOcRv5JQThVRAIFQegjWK4CJIAkVZwCxrcJEX0FKuOX463GaXh+vwGRaBR3TMjAFaPSVQSQR7b2KRyZi/mocO62Y3911tU14MXFL+HZ5xajtHwsfv6zH2J4RQGMhhP3I/wnOH9GCg++OA0B5K95lj4e6evguX0PJUb71u4DaqqAZpLBFDq2saOByXOAidOA4mKSP6s0/Z4GfNoDvgjqtjuw78UatGxxwjDEiiKesu3cHOQWmlUC8jN+XyMISUQCBUE483BTKw8A4SbWtqcA/wZEjOOxP3YdXq+fhLcOpyCCGO5KCmCeTd/3AthNAoEA3n7nXTz++CK0tbbgX//1O7j66qtVuowzTihEB+QHnHSueXaPqv0kfSR+lSR+1TX0OdD2nGygZCgwbBwwgwSQB33wLB8SljpluFKNxOLodIfRuMuJXc9WwbnZgcyx6RhyZRFKZ2UjM6cf3NQIZz0igYIgnFl4BC4PuuhcA7Q/D/jWImK7FNWaG/D84aF47WAMBm0cd03MxBcmZakUGQPFR3i6q4MHD+KRRx7B6tWrcemll+Lf/u3fkHamcujx1zkndWbx83gS4sczelQeBA6QAPKI3wCd+4xcoHQ0Cd8YYNwkYDQt8/Il6tcD8AwvgUgcHa4Qanc4UflmPRzLm1E8KROj7hiCkqlZsNp7cXCPIJwEIoGCIJw5uDk10g44lwGti4DgbkTs16DWcBdeOJCDV/f7YdYBXyQBvHlilkp+PJBwuVx47rnnVCkoKMAPfvADTJgwIbm1l+Cv8HAYCAUBrw/oaANqDpP07QN27iTx48Es9FxaDlA2ERg7mcp4KmOBLHqOR/sKpw1XpDxvM8/R3NQeQtWWDjS824DwxnYUjUnH1K8NRy4tOTmyIPQXRAIFQThzBBuAtmeokAAiiGjOv6DBeAN++pEXbx1wY3aRBV+dmY3zym3Q83QXAwiOAn7wwQf46U9/iuzsbHzta1/D/PnzkdLb0TWV0+8gsGkDsHk9sHcLSSCtR2MkfVOBcy4GpvEI32FAfiGQnp74OWnu7TG6BPBAWwB17jBa17TC9VY9NIc8KJuShbk/HQ9rvllNnSYI/QmRQEEQzgy+A0DrnwHXG4A+H8GMB3AgfCF+tTaApbVenFdkxr2Ts5QAWgza/psmgwdYHPm1STIVjUZRX1+Pr3z966irq8Odd9yBO+68Ezkkgz0O/35u7q2sBDZ8QvK3BqjeC3SQYHNEMKsMmDWXxG9mYnaPvILElG6cm5D7JUqTb48SjsXVHL8H24Jo9UTgXd8Gz3tN0Db6UTo1AxPvHoqcMelqKjVB6G+IBAqC0Lvw4AOeeaP1TySCtDQOg9t8HTZ55uCx7XG8X+PB5eVW3DouA9OLLLCbdf1PAFWTK72P6mrgndeAw9sTkTZrJuK2DLiMFjy8fReefO99XDy0Avdedw2mzpwFnTU1kV6Fi8lMEsYTsJKEqfnejlE4QtdVun53IJAY3FFDv38nncPtJH9N+4FOej5E++UXA6NGAyOpFJfT4yKSwSw616ZEcy+/rtDj+CMxNHsjqHIE4fJGEVzTBvfSRmg7QhgyMxujritWAqgzyVy4Qv9EJFAQhB4nFArB4/HA09mBeKAGOsefoPOvRkrqFATTrscWzzS8sF+PdQ1+TC9OxQPTczG5MBVp/bGyjIQT+fQ2kngtexnYeyARcdNxZM0EdyyOj1tb8L3KFhTFIniwvAAXDsmD3U4CyJE3jsAZqLCMcRO3lpZ6K2Dm5Mu0T5comvk5lkUSN07KzOs8Spfn7927Czi0A2ioBNodJIVRIMMGDCXpGz4GKKkAijjqlw+k0ut1yaTQK0RJ/jpJ/hpJ9uo6gnC7Q0hpCsD5ah20jpBK/zL8iiLkjicBNIoACv0XkUBBEHoMn88Hh8OByqoq7Ny5Ewf37yIJbIDO+ybSLDpY8y6G2zgNm9psWN8URlp6Ku6ZWoAZQ7NgT7WQKxnIlfQqnYpWq1VL7lPX9fjI57oec+m1OVY9nYmZNNavAla8AdRVAaOnUJkM2OwIdrqxc/cuPPz6q1gRM+Jf58zCdbl2FMX9JGoesmGSRZZIlkYuvB6j1+Wp37QcpWM5TDbT6kkWuMmQlyx/HDnkpaMDaGqj16NjSaWfKSoHhk0EhgxNlNLShESK9PUoMRK9aDiOaChKhdZViSISiMHnDKGJbmDqa31wtgeR4g1D0+oDGlkAczHyqiLkiAAKAwCRQEEQTgvuD+d2u9HS0oJDhw5h9+492LdnGyr3b0JH60EYzLmIpOQgDD2CGjM6wikIRTXItphRkGvFCCpanZbETqsE0GQykfsY1XpXMZvN6vmuwtu58PMsjiyGXT9rtVrV81x4n1MamMFJlZubgF1bgbUfATu2kJyRwE26CLjwEjW6NkriVbV/PxY//zz+tGgR5s+7CP9y6y0YmpcHPadp8ZMUcDMuD9zgPny8ziN4+TG/vnqO9lH7UQmyNFIJ0zr/fFffQz7+3Apg6DgqI4ByFr+yRMRPOC2iYRK7IIldMLkkwYsEooiR8IV9Efo4IuTeYQTdYVqn4qN17vfniMDtCCHsjUIXjZO702dliKNkSg5GXFmCrOE2aQIWBgQigYJwFsB/5dyB3RuKopMqOI4ZcaJaDjzxXKW8rloqeanh9SPmL02uHBln4q+NcDgMn9eLltZWbNu2FSuWr8D2revR1LAf2VYfZk+y4vxzy5BevADN8dl4eVszPt7TRJWsF+Oz45iYHkXQ14mW9g50dDjR3t4OL70eSyW/Po+27SoseCx0LHxd0UIuLH9dUcJUkqL8/HyUl5ejqKgIhYWFyM3NhYVkjX/mSLE8Mnr4mSginyiO/nE+vffeAFa9DTibgTEzgbu+BXC6F26mJTFzkfi++fbbePjhh+l9+PDkk09i9OjR6vecEHqPiJLoqQghp83h8rl1TvTM+3CkMDMTSM9IRAYHEnQ61WdJohQl0WLB4ohanB7zBaVOPf3zmaVqyf7cc1TU56SWvM/ntidW//GYiob2Yfh38e+PkfDFInQcEVqGeBlFwBWGvz0IX1sAvtYgvE0BeFoCCDkjiPgTxxrh6B/9bChG+3OKI7pZMViMyCyyIHeIFRnFZljzTLDw/L8j0mC06aGRUcDCAEEkUBAGOeR+CFIlVukI4t19LrxxwKWkr8CqQ36qHrm0zEmlYuF1PbLosd1MFR1VZByESqFatatoNPRi9ILBYBBVlYexfNkyvPHmG9ixYxsc7W2YPS6O6y/SYO6MHJSNmAdr6d3wW2fgtd0R/GxNC0LBCO4YY8cXxtlRYNNSDU2VLEkPix7LHxeWS551g/sUcoSxs7MTTqdTrXMePl7vKq0koG1tbSoKyftx1K8rAshRQRbD0tJSjBo1CiNHjkRFRQWGDBmiUrh0ySAXFS2kr0KN3w+89Rrw/OPA4c1A6UjgyjuBK64GCgqTZzQhNps3b8af/vQnfPzxx/jxj3+Mm2++Wb2mQPBlQteJalIl+fM2+9Cyy42mrQ6073Ej0BFCij4FOiMVE51/Qwr0dM1p6XGiaNU2rYkk30jXniH5OFl09Fitdy31dOOi1qkY6KZGbeOR0HTtO0PwkNx1NvjhoeKu88FV6SHxC6ljU3KoRDG5pOPW02txShd7iRlppRaYi8zwp+lRR38TGvr7KM42ooLELzvdqI5FRv4KAxWRQEEYpPBfNqeu2Nnow+skfm9XedDhj8JGla+JKkfumhamfUJUwrQeox/Q0noKLVn4MqhyLrHpUWYzKlnMMcaQofHC23gInyx9A+vXfIy65laqeHWYMtqMa2c5MXOcCUWlM5FadDV0mXPgDGfig8Mh/OvKJlipAv3y5CxcPcqOYrvhM/OlHvk1xOtdpSsSyHLYtX7kYxZIXuclS2NzczOqq6tVmpbKykrU1NQoeeSBKl2Ff85ms6mo3dixYzFsxAiUFRejkMwl7cP3YFr2DIxRI/Tzr0bK5dcBY8Yn+tyRLHZRW1uLP/7xjyov4AUXXIB/+Zd/QV5eHknyWSoD9PFFSaIi3qhqMvU0B9C+141mkr623W54nUGqbBJRZo6SdUXpFPxZq6V6lFgmN6vLQv3zj82Jx7xD8ueSqHX1c8nnaV3tSb+X713o3+SNDD1J1z/317NkG0j2TIlCUmfNM8OaQzcQfH3SdpY7H0lhnSeMajf9ldCxl2cZUZphhI3+Pjh6zq/L/wvCQEQkUBAGGTxnaaM7hD0tATy914UdDT7VBJZHIjet0ILZZVZYSQQ9oRicgShcVLqWjkAEbhJFqvMQ06QgHI3A4XKhvbkBhvq90O/7GNHOejh8Wrh1WQjnlSCtogiThpgwOteH8oJC5GSPRGb6EOgMadjXHsYTOx0qevjgtGxcOsyOEqpg9Uca4ElytK8sfo5lkCOUfr9fFR6k0jVQpampSeXxa2xsVEuOIrL4BgMBBGifOP2smR6b21sxvrMZ5edegOJ5lyBv0mRk5BeoiCIXblrm3/PCCy/gqaeeQnp6Or73ve9hxowZqln6bIKbdkOdYQRcIfg7Qug42In2fZ3oqO6Ej57juwttnCN9KTBm6ZE+xIaMIalIK7bAmKZHXEUKuZDQczMtR+ToroSjh7xkqeS+eZ8+7mrOVfslnueBG/9Yp6Vq5uXttORmZ47qWXUwZxpgIXkzU7FkGGAm0TNY9erYPo06HrFk+eOrjP8uahxB1LvCqotEBf18AR27xUD7na3CLwwqRAIFYZDg8EWwrzWA7c1+rKj3oakjqCIexWkGjMsxYXyeGUMzjSoKxxLGMxwEqMIMqpJY57xnvO71B3GwqgYbt+3E2o0bsXfXDhg8LkwbkoGKPAdVpGZE00vgzxyHYOZk6C15iJAwBkml/DAhQpV/OExSRhWxnirMe6dk4aKKNOTb9KclgKdCV7oabi7uWnLfQ+f+fWj74B20bl4HJ4ldZ9kouAqK1LRrIYMJHnpOw83LyWZl7mfI0T7m3XffVc3WN954I+644w4VWRzMsEyF6Pry0fXV2cD956g0B9HZ6Ednq49EOgSNV6OadrWpJH3pelizTbBxZC3XBKNdD1OGESZ6XkXZ6Jpgy+Lqh/vsKSGkklhP/D71XHLbp8917Xvk813rtPz0+WjyeXp9/l06s5auUR0VEr3kulanwnhHhf82mkhw60lm3cEoLHTTxH83uXT9munnxP+EwYJIoCB8DqpD4PRHUEcVQDtVfBwByE/VkcAYkMpRgn5WAbR6wqhyhLCpyYdVNR4caA2SjAHDSP4uLE/F1EILhpD8ZXEleBwB42ZSliNuRj24fz8+2bAeW7ftQEd7B9JtJgwtMmLuDDuGFdXDaoshahmNgOUCdOqnwaUphouEr4POWxsVZyACfzAGK1WYM4otuGa0XTWfcXNcn8JfdzzgYt9ehFa8D/+yN+B3O+EbMwWeGRfAUVaO+qYmNNTVo7amGh0dHeqccOGvSo4Cch9EPldXXHEF7rrrLtXXcLChThNJkJ9uJHxtVOia4uKu88JR61XrcY70kRxprRroM/SwZ1mQTtebvdQCS46RxM+gIn48V+5AGSjB75tvihrpvdfQ35SXrukMEscyEtgc6/H/fgRhICISKJzV8MXPfwIhuvPvDFAFT9LX6IngQEcA25v8qCUR5Dlsh2cZMTKbRCjDgDyrHplmLWwkhAYd9whK9jM6Q/AxR+h4HSRbNc4QNjT68AlVzvvagyqaV5Kqx8VDbJhdlqqarzgBM4vs0eD3zhEtHnDB/eh27dmD9Rs2YNeuXXA7HbCnmjBhVAkuOKcEE8odyDFsgtkcQ4q5HLCcDxjPJWnORzikRzgQRNjnR9gfSC79SCFZSs9Mgy0/Bxq7nX7GmsiJxwMxzuhJo7PGI3Hb24Dd24GlbwDbtwEmOoYZc4F5VwGjxyBOx+cP0nmkY+fBKSpi6HSqZmTua8iFJXnEiBG48sorMX369IE/GIRODTenhun651QoAZKfoCuMTrquXDVUqr3wNAQQ8UYSMmcm6SMhSss1I7MiFelDU2Ej0TenG2CgmyWdWTcg58jlmz8ePd9M54BnAKFVZNP7LKW/eRbAY/0NCcJARiRQOOvgCz5K3/gsUr5wInpVT3f+B1sD2NTgw0aSv5ZgTFV4LHn8FxLkpiWqKIfZ9BhPld+EfDOGkWDxgImMpBB2pVnprWgXV1LhaAxuOjaWv011HrxzsBPbqcKK0PaJJKlXU6U8b2gaCtIMMB6n2SoaiSBEUuRMyt/27dvx0cqVWLdqFaDVoaggHxecOx0XzxqKMXkO2IIfQxvcCIR8gP4ywHoJ7UciGIglpjMjYYTbBXTQkpMbO9oTJRygmrQQGD8RGDYsMatFZg6Qlp7Ic2cwcl4aOmnahBT2xrkjEYXXA9RUAWtWAC8/T4/rgPLJwHW3A3MuoGPKSojpUeCvSI78sSzzABQu3P+vK+XMQIblj9OkeBr9JHxeOA4l+vU5D3tVnjz+G+DmVJY+G13z2WPT1CwY9jIrTHa96j/H0cDPDPQYgPD3AfeRrSUBruwIqmg/y18Jia3dpDuj9yuCcCYRCRTOCvgqJ41LBIToC7/NE0GDO4TtTT68e9iDZdzERZVAOlV2w1N1mJxnxgXlNowh4QtRRbmp3oe1tM/2tgD2eyPwkDhmUuU4KdeEeaWpOLfUijwSr2yeFYP7IFHl2TVq8HTrDz5mHrnrDkRRTcL3cbUHj23pwB6qsIpJSucUmnHFSDvmDElV8ndM6DW6hKa1pQWHKyuxjMTv9TfewK7Nm5FvMmI6yd/lCxdi3pzZyNc7oa19leTpAxI60kw3iZp/LOCiA3LUkxmT9PGb43lwObqnswFGFjsrLS0JwePa00cC5iTpCpAsptBzZeOBqecBk6cCQyqAdBJClkIegcuv0yWDPVHzsgC63cD6tSR/i4DVb5Dwkbxedxdw9fVAMUnpWZjWRX3t06nppBueQx80Yu9rdWjf76aPTAcTXUMc1csYnoqccXbkjLUjg24uzJkDLEdhN+G+iDwoqork72BHCGaS2rH0d1+QRueC1gVhMKPx+XxxrhQEYbDBzTccnaPqju7y42j1RlHnjmJ3axBLqzzY0eBFRzhKd/oaDLdpMSrTgBmFFkwstKoO4FwBdLVqcaQgTH8mVdxM3OzD9kY/9nWEUUWv2eSPwxgln8k24bwSK6YVWFCeoUdeqhbZZg0seo2K4vGoXV52576L/UdH/3CEpdUXo8opgg9JVj846MZhEsFMqwazcg1YMCINU4qsKrcfv9d/0ibOgUdipaO/8ajTiaaaGuyrr8fLr72GlatWIdDSjCHhAKYZtJibnYPz0tNgijTBqIvTe+eExoFER3tdOmJ6EjxjGmImK+JmC2LctJtmBzKyqCSSGcc5ombPUGIXT0tT0TUNCadm13Zg/x5oaiqhbW2A1tuGlBjJod4E5I4CJswARo1FvLQM0ZwcROm1YvTaMU6OHKXjiJCE8vdUN86dOnn8vunn9IcPQfv+29CseA2xtjqEh89A9MY7EJ8xK9E03ROiOYDgFDYpdD2GO6No29GJ/a82oG5DG2LaGLJHk/SNtSFruB3pQ6wwkfTp6IZGo+VIX/IFBhEc7eO06Y6gBjXOiBpRb06JYXiWXuXNlP5/wtmAxuv1xrmzsyAMdFQFR9/bXc2x9a4g9rcFsIekb48jjEOuCFpdUXh1WkzIMGJYuh5Fdh1KqJSSBGaZU5BK4qfkj19IkZCOZFwPIRIRfzjRjOwIxNDoiaGeSqM7ghqqRPZyYlpvmBxEQyKpxbh0LSro9VV/wiwjcmwGlYSZpfJoQtj1HriPYnV7AMsqPVjXFMTh9ohKaMyvMTnfhLEkgPy63DfRRJV61+Gql+P3zxJES21bKzr37MHeHTuwbucOfLJtB/b6fMjvaMM4quDHZeVgZE4uSu16pFtaYTfuBwx+krpyIGsO4vYxJHyZiJpsiBstiJtM9NiMGEsgrUOnT0YBuZ+fVi3jnE+vq/DhsMBxEuaAHymdbmgd7XRczapo2trog2oEGqqBYAf9TAwxawYimSWI5pcgVliqpkiLD6HjyctHnKOFKopFQvh5KeT3zYWe19TVIuW9t2Hc8B60PP1b+WhEz5+P0NjJiJSUJeblZbojlYMAvq74hoKbeJu2OVD9QTNa9npIlFOQNz4dRedmwF5hgSGdbhg46bKSv66Liv9X/wwaUuhc+IL0t9tJ58NH9xnxFGRZUlCUqgH9iX568ycIgx1NOBymeujs+CIUBjec1oFH8x5qJ/mjsosEcDct60jOqErDELsBIzNMyCMBHEdSNiTdQBKVoppvzTqOGibqueNF69gxWK64jqBfh0AkrqSwM5RIKbHXQb+vI4AaVwgHSQgbOkMwaOIopN85IsOA4elGNchkWJYJBRxtpN97JJ5gFIc7QthQ78U6Khvq/apf4tgsM6YWWTGp0KL6Imaa6JhJ/vgw+Vg/PVp+guemralGeO9u7CD5W7t5C9YcOoQDDicsej2mXDgPMyvKMT47E4U2HdL0DTDGttIP7wT0JGXZFwM584C06YCxGHE9iZ+W5Y5ELyl3LHrxI/vQdZ2vzy+7SA4E0XDalXAYmkAAKTx3rscDtDQDdSSB7Q1AUz3i9Q2INzUi5qLHVivJaCFQVIF4Ackb9yks5mURHWNuoimXP5QuuH/i5g3A0reg2foRtFY7NJPPAc67GPHxkxG1pycklQXyLILz63ma/Khb145D7zbAcaATGaPSUDorF0XTs5Ax1AqdVatEkSO/yvk+/xkOEvhtcf8/7lfb4A7T33MK8tP0KKYbIbuRvino73WQvnVB+CekT6AwYGHpC0VjaCb5qqIv9H2ORKl1BpWEGUnVePozTpJcQcLHufLG8PyeFp1K9soDJ7oiaD0BHw/n2eNRxiyE+zqC2NEaUKMNmzhtCgkqq0eWVY9SOp4yktJRVPFUZBphM2hJGMPY1OzDxkY/DpO8RqjiZuGbkm/GjCKLigJm0rHzcX+GrkgbyVTs0AF4D+3D4b27sHHXAayuqcVhrw8puXmomDARMyZMwOzz5qKoOBc2NEIb+ATwraaDPwzoUhPil34Jydc4epxNL97L/eX464ePn6RQvYeOdqC+jqTwENBwIDHgpN1NheQu6Ev0G8zPBzhfXzaVwgqgoJhOKh2rzwtsXQ+seBM4WAmMGgaceykwfQ7AkUT+2bMMFjpO89K6y6UEsGm7AyFnGLkT0lF2Qa4a5GGlvwke3HE2wBF47lvLN1ot3jAMdHPCff8KSQJ5FH2fpzAShDOMSKDQb+ALkQdA8BXJpWudAxMx2tq1zqN6OYEr38lXkuwdaA9QCeIwrbtoWy6JEs+BOzXbqAZ4jKRKjpMUczMv95s7E/BxcoXjD8fQwkLYFlBCyJHCGnrcQkIYpm1D6DiH0XFmkARW0vvZSwIbpJ/liOG5BWYsGG5HWYYB1iPzE/KJ6BInlqT6WkRqD6Fz727UbtqMbTt2YE17K7bo7UgpLMbwseNw7nlzMHvOHAwbWgaTlptmNwHujwAvSSD3zTONBGwXA/YF5H1Z9M2gS/6yM4z6kEmV+f2FgkBbK1BdDezfDdSQFLY3Ai56z1w6SQpzSoGSIpLC3MTo5AO0X4hkcMws4MobgbETSGwTfRPPKug0hunGg1O8NGxqQ83HrWrErznPiPI5uSifnw8b3Vjw1GlnA3Q61E0a34h1RQBT6UaQ/7Y4Cmihvz/RP+FsRCRQ6HH4iuKLii8tlqHPrFPpEjq1nnw+MfAika+PZ6wIUQlGY4nCTa7J5yORGHyhKKrpi3xzox9bSa6i9O1dnKrHSPpCH5NtUpGz8fkWZJP4nSnp6y5ds3psbfRhFy0PssTSewnwnL4krxN5tHGZFXOH2JS8fmYuWiVGoUTEi5tQaw4hun8v/OvXoWnneuxoasCHAS0+xP9v77yD5bru+/7d3bu9vt7w8ACQKCQaxQYKbJIlFrlbsiKPezIeK/4jE0/i0SSZSTKTycSTTDzjiWPZcWIlceTeJNFWo0SLFIsgEiDY0Ht5vey+7Xu35Ps9d+/DA0hKBJsegPMFfu+ce27du7v3fPZ3zvmdFMoEn7v37MHHHn0UDz74IUxMjCEMQlOdQFV8jjD1/3g8HkPwlyH45R4CEtt4kjVcFQp69bpPnQROHANOy1t4Bpg7RQBc8C594hbgYz8HPPrDBNrcjQd/lJp+GyX+0Hg1j1OPT+Hcd+f5BQNGb+vFpkdGsOHBQQSv9CZfx9JzRi0G8+Umzi41MEUA7E+FsLkvxtRBRCGKrKxuUFkItHrH0idIAKfRr8rLU6ewKoqtV+PD1we6muulZp0qqm5aItSpj45vxXoLy0pZXqi3scT8NPNl5nlABLiPpiLb0B/FToLSnQS+D4zFsW0gjgHC4LUizUxwdrGOlwmEGlQykY3irvGkmZx+RfKK+aNjFehYse6OHEZ737fhPvd3mCsv45VKG9+oBPGEG8Zc3wDuvucePPrQQ3iINjY6gkiYdNSY8uBv6UsEpi8C0R2EpB8Ben4MSN5KWIp1T3iN6fw54OQJzyTFI7x7j5e/waSmX82XW56v48Jzczj4uZMozlUxsDWLzR8bw4YPDZl5e28kqXKru3x+FF2c4ndtsdIyI/81hWJG8wavsR+JVlbvtywEWr1jqY/NF15bMt4tBTJWv7iKMQKeUsLfMuFvmQ9j9XNT0GUo5bLcgJ1wEJ1ICKlo0MTe64uG0EPLRAJIRx2kWabBG2q+Ud85BWbuSTgYy0ZMXx7F9fICNV8aJXstSF88xSgTPJOXzYhExRdcmZheADgz4w102E87tB+4eBRutYjJYA++kq/i8alZvFBtILp+Ah9++BH85E/8BLZv346BgQFEIhEE3QsIFJ4A8n8FVJ7mNz4N9P4a4e9RIL6JJ+VyQE2C12hl6ENyi5Cs1+DwtWjE8g2o0kwV55+Zw7EvXcTFVxfRM5rAtp8ax/r7CX+m6VehXq7R9/ltSjOAnCAUqwlYr3xDTwQTvVE+T1Z1r7CyuoFlIdDqHUnNm0+cKuIzT02b0CiOEzQA12OAjfBGQEuwLN4FOS3LFIpFk7KbUblcr8ncFTolSovJustqqok4MPlw0Ic91vNMtU6xvK6bvtz6KgpoFhaAw68R/L4LvEbwm9YAiTm46WGcTQ3iW4t5fPnoSbxYaSAzMoIHfuiHcO8DD2Dnrl1Yv24d4vEYnEADKHyLb9Bfe/3+AgSj5F4g9wjTO7x+fwrcDNsUdq1Lff+mX1zC6cencWHfAhoVF2N392LLj42jf0sGsd7INTfww1RKV9RM/K3EH0v8IakfTnKO8weA+T0p468olZsWCf7g9Mo7Zu7fQrVlBoJpMNZoVj8aLQBaWfmyEGj1tqVf2c9fKOO/f3ceXz1fxj+/vRcbe2PI8oEbJ8QJ5qKEvKhATnlBHZcN0Ang+CTmZiZmlx7KCrwioJP5YVi8/KV116V8j5/6ub16ADh2EJi9SPCr8oWHUR0ZxgnehG9fnMOztNM1Al4qhV177sHevR/E7p07sW5sDOl0AmGUgcph7vslphr0UQeiGvRxH/fZA8Q2AqEUT3q93swbRHxqt+Vdn6zg5FcFf/MoT9fMSN/1D/QTAvvQsykNJ+aFfVkrEsgZz7dgzaQEO5P3wM3Le9usbGeAT97yVf2KlerfyjLXmeP7Zd62sp64g7FcGIMpAiAfONftc8TK6m3IQqDV25Ietq/OVPFHLy7gC0eX8cDGFP71vUNYl40YuBNjmGetSb2nrv7aB/Aq6aunsCivvgw8+Rhw/Ajhb57lbbQG+lEaGMe5cBLPTs3h+ekZnJibQysUwk3btuGB++/Hnbffjk2bNiGRiCPYqfBYx4Hi07RvA3UCZXgYyHyY8Hc/EN8GOD18A6zn71qX5vutLjYwd6iA009OY/pAHqFwAIO7erB+7wCGdueQ6I/yu7Z2vmyqZNQHNl9tmQEa+gHpgZz5uJvniQd4HszpqyHzy2WSHi360cjfkab7x0rKj7W6USg1QdK7ea3LxUNm/l/9ILWysrpcFgKt3pYWK0385auL+MMDC0iFQ/gvD41i52ji9THsrN5YavZVeJdXXgK++Hng0AECWxbNDbegNHYzpjI5vFKs4Knjx3Hg5ZfRICxu2bwZe/fuxZ49e7B7927T5w8twp87C5S5//ITTJ9n7cljp+7h8T4CpPcSBgcs/F0H0sCPBgFq+XwZk/sXcfqpaSydKKPvpjTW3zeA8XsHjPcvKDJaI1LtoiZazcs9oxHLtGWCoMo0q46mRhSbeSC3GubUSuAtG6jz0zeAPr8/8Op9TRry9rHoZ2X15rIQaHXVqrltfPtMCf/7xXmcXGzgV2/vxS/e0Q+HT2H7wH0L0owemsrswHeBx/4COHMQzdsfRmH3Hkz1D+DochEvHDqE/fv24eK5c9ixYwfuvfdeY1u2bEE6nQLaDaC5AFSOAKXvAMWnuHwBiG4Csj9JAPwhIDbGb/iNOUjiepMZ9Ttbw9xhBX2ew8V9C3BbTYzfMYCbPzZqpn6LZvijYI1IlYr66Wl6xXy1iZliE3MEWD0feuSZo6lbiAd7HsjJwycoNDBnyr11Ajmts88WK6t3XxYCra5K+rAcnaniN5+eMc3BP7M9h0/fPYBM/AcUXPhak0K9nDqB9t9/Ae2//Tya5Sk0f/YzmNn7AJ46eRLf+OY3DfwVCwXceeed+PSnP42dO3dicHAQ0WjU8/K1KyTx08DC3wCFLwPuWQLfbqD3H3mjfqPruiezuqbFL5u+b61GC/lTJRz94gWc/Idp1JYbGLm1B7t+aSOGdvcgmg6vuX5/butSXL65UhO1ZtvMTz3eE0F/0gvcbmVl9YOXhUCrq5KadX7zySn86ZEC9qxL4t/eO4itA3Hb1+8tqNNqoXP0CFp/9jksP/anOEsgPLTrw3gplcPzx4/j2LFjCIdCuO+++/DJT37SQODQ0BBCLAsq6LEAsK4BI18H5v8n868AkVuAvp8Hsg8RBDcAIcWBsxXstSjzKNZ/PZH5R293y23hxFencOSvzmP++DKyE0ls+dFR3PTwCFLDCa/pdw1999SHb7HszeYzRVjV3Nrqk6fpDxXDU/3y5OWzsrJaG7IQaPWWpZh2f/bSAn77+XkTBuZXbu/Dj9+Ss/0A30DtdhuNBivBWg3VahVzc3M49czTOPb3X8LBFw/g+OISag7hbmgdguk0EskkbrvtNjz4wAMmHR4eRiKRgOM4BIImgW8aWH4SKHwJqB7kNzcDZB4Feh4h/G0GHM2OoeZAW8GuNakvn2bx0GhekzaZtry0WWujttRAvdBAlWltyTVz/dYWGqjM1VFhvrxUR5iflYkHB7Hxo0Po3ZxBLBteU7N+aJRvqTuV41TRNQGaFfdzJBMxUzYqPJSad+2PRSurtSULgVZvSZrd49BMBb/xxBTylRZ+fmcPPrWjxzzkb3TpK+S6LsrlsrFCoYDZ2VmcPnMGh48dw+Hjx1HN51GfmkKwsIRAOoPounGMjIxgYsMGrF+/HuM0hXkZHR1FJpMx3j8zbNKdY+16gPD3RaDyIst4wvhOIPfDQOI2IDpK+FO8P1u7vt/S+25grtFGi9AjayttdEwTrqsBECUC0XKT5qK2SMgrcDnPfEk/EFw0Ff+E28PlARXvWkNjfTHfCXSQGothfO8gxu7qQ2Z9AuE11PVCIVwUi2+h3MQZQqz6AIb50e1POBgi/Cmouw3LYmW1dmUh0Or7SjG69Av/Pz8zja+dLuFT23L4hV29uHUoZjpt32gS8C0vL2NxcdHYwsKCgb7JyUlcvHjRQGCt0UC7XkdwehLNoy8j13bRs+NODH3gTozs3IXBiQn09PSgr6/PWDab9cBP6pAI3HlC3yvA8je8tF0j8K0HknfS7iEA3gqEkt72Vu9IegIabx3BreUS4AzIdaHOBzymZn0X8LTcrLfQ5A+iRomwRwhyK7RqEw2ub7hNtLgeDT5k3Tf4jgQ76PD3UzAaRDgSojmIxBw4ceYJTpGkY1InFkS8P4LemzOI9UTWzMhfPRNK9baJErBAU0BmFhH6QujntWvwRyoaMt4/KyurtSsLgVbfU3qwz5VcfO14Ab/+jUl8aDyJf7l3CHeO3RjhYNSsqyZdQZ/gTsAn8BPsnT17FufPnzdlavKVWtw+EY+jL5nERK2MbReOY/3SefTtvAuZn/oFpO65DykCYDSdNttfLt7s5pIX76+0zwv5Umc+MgqkHwEyDwLxbtOv1evF26cuC/LGqanVQJyaX7tgZ7x0JmWZ1gvsutsYqKsR3KptNAhyaqYV0DVrBD2aa1IuE+yUb2kea7J6QN46ntqMXeX/DuEOmqs52jGzdEQiYcRiYUQzTAlxSqMZQh7TSErQRyMIhiI0k4bMfg4BKsiytRTuxZc8f2bEL58L8gC6rY6Zhm08G0EfX5Omd7T9/qysrg1ZCLT6niqy0tt3roTP7pvDwbkafuuhUXz4pgxya3A0sP9RvvIjvbq81WIF3rVmk5V+N70yL5PHr1KpGui7cOE8zpw5g2PHjiNfyKNOMKzV6tyniVQqjXXj60wol62bN2N9fz8Gpi4g8+3HkXrxGcTWjwC/+BvA3vuBnh5AFeRll8iFNiHSnSH8PQ8U5P3bz3ISRvqj3OfHgcT2brDnrrfwbUoeL90Oc08EMGa5m2eqFmh/G/0CWNn+yjJ/u1XH8PPeNqv2eZ+k8wny3ArfRwNwTTSYbwnoKswTWJpqomWZ8drR5MlrN7zr998T8xqUmoTr9FfjcvSbRx68kGLchRAl4MXTEcT7IgbwjOUIe7QogUiQZ6BOUESw89MgIVH9+a6leXx1L+T9U3PvZKGBmaKLEvOaBUgzcWgeb3n/LPxZWV1bshBo9aZSfx+FgfncC/P4i9fy+My9g/iFO/rRRwD8QbUCyzMn08d2dSpbDXg+0K3Oy9Rnr1KpoFQqGdNysVg0nj4tK18oLHO5QPhbMnnBHs/Cc9EIN+sn1mMngW/Xrp3Ytm0blyeQy+UQibLyrzUQ2r8P+JvPAy8+C2zdAXz614HdO4FwmLVp0zO0mHZNLqXqaSD/GCHwCb7IPBD/AND7K0Duw0AozW/q2/e6GhjT3KoNwlCpiXqlYTxfato0zZ0030vmNXWyXPm6mjy9shUvGrc1Zb519/f3k9es7ZcrbfKG8f97rtWfR+Y9z5webWbBk9JVeZPlbZXXTc2vsQzBTV66bNdbR4iLpB2ECTnKRwl84ZS3raZj03zX8tQFaEHFyFTe0eAHmTnLNS/dQT0H6s2OmSf81EIdiwRsxe0bSYexnsDbmwibObytrKyuPVkItHpTTS838HsHFvC7B+axdyiO3/2R9RjJhH9g/XwEegI1Nb8K2gRsWlYzrUxl+Xx+ZVnbzc/Pm/56S0tLqCtIc1eqqDXyNkww08wbq81xWNlHYrQ4kqk0xkaHsf3Wrbhl283YfstW9Pf3IBpxWBF2EAq2eSxSTrCJQIHHf+ybBMA/BCYPAnsIgL/8c8DEEDlvCWgus0Yl4LUWmV/gC6I152jnmCcYBgl7ibsJfj8N9HwMiPgzfbz9+62BC/Wii+JkBXMv53HmH2Zwft+8CTTc4XHNjAod7/i6J95b60GMBzN+nqaVzAgABE8q0w5mP+MlY75rumSVvR/eLl2HThMMBxEmoEWzNDW3ElJ8kFMsPZkgzkCdtpOnLsEfNGbggnfN3gG7WfMClfrLZsmU+1mjyxauL2mqt4VyC2eX6rhQcE3woWHe2419UfSp76LA9zp+/VZW17ssBFq9ofTw//NXlgiB8ygRJP7D3kH86C09cPTQ727zfkkePIHcq6++iieeeMKYoE4ePt8bKJiLxWImoPLlQMeKPsSKn+u1LplMGlP4lVQq5S0zVZNuIpEx0JeIR5AIN5CIVBAN1xB2GojSYqE6oqEanE4ZgXaRhEWo6zBtloAppn93BnixwDJC3m4C4X0xYKNCtzj8poVoiuHHMo3mDWhUdZipjFVriNsl7/KmeVO/P+P9e3tNv/L8KaBwabKK2dcKmNy3gNmjBVSLDcQd3qd+9U0jxEbV/yzQbaL0zFE/NOUVz02p6aOmPEEv/Prttd2V5cZDJo/Y++Qdasj4ml0+yYzvz4CoIJTn74KoYTwtd1Mv75WvdYjjVfLHBj8SxryZNHRrlX+vml8128dStYnzeRfT/BGhad4y/LyMZiMYIVQnuv3+1vits7Ky+j6yEGj1Oukj8fjxZfz+/nlMl5v46Vtz+KXdfehLvn/9AAV48uwJ/F566SXs27cPx48fN0C3adMmTGhwBaFOkKdUJgi80nwo9GFQ6RtaqIlQexZO8zxCNKd5BiH3JIKted6QJr8pasJVmmUaJ1wI5miVFnDkAvDFV4BThMFdDwEfvBXYkQEGCXg8N8D7pm0D/n5KaQEfCAWJTMN93LTX2+YqpQERlfkaFo8WsXi8iKWTJSycL6Kx5CKaDCO1Lo7shgR61qWQmUjCIawZEFJF7oPSG+UFSt38yraryowHzc8rNeu65e8BISgYsZomFZNOo1PL7iXTrBS8DR4JGnkZ83f1U25VfnXxWpRuoby1GoOlJtcw77Gf6geZmVqtm/It9daZ5WA3z48U173VUfyK9zdf1hy//OFVctEgDKb4Q6A/5ZiwL4r9pwFhPKSVldV1IAuBVq/T4dkqfuu5WRycruDB9Sn82l0DuLn/6sHk7UgBlqempgz4CQCff/55MyBDXjvB3+7du3HHHXdgfHzcwJsPdkplmlnDz68uM1CyWgI7hWGpE+Aa52hnaKeB2jGyHssDSSBEIHP6mRL85M0LskYN9nA5xTQBLFaA/YS/rz8JvMZ9PvgR4Ec/CezcAuS0P7fvyAPoewJZS0PHEExruWvvgJYUWDh/toz86RKWTpQwf2wZxekyQjxvfDSK3Pok+m7OoOfmNNIjcUTV3y19bc0nrAEJGpFaJvhpYILyRQKgIFBQSEZBhGBiYEe3+DqT+qGqW6VAv8XX29Yyn9rKq7+eHuCCPB8MPUgUEHogKIA03kPayjbd1INL76aVGy0zxZs8f8VaG7FwwIR7GeCPiFyCnydu/BZZ0srK6hqRhUCrFemTUGJF8Nl9s/ij1/LY3h/FP/1APx7clH7Pmp0kf8CGwq4cOXIEBw8eNDYzM4N4PG4CKN97773Ys2cPNm7caIIpq3n3rYkvygxVbbHmJLQp+HJjkinBr36WRvirn2eNusyalKAbinveuOg2LyhzbBOXNSq3C3KCNw0TnZwCnv0H4BtfBs7yeHfdB3z8Z4FbtwNJQuJ7UFuqmVd9/BSTrjRdxfK5CpYIf4sniigQBJuVNsJZB4nhCPomMhjclUPPxiTivVETikRNtGtZehDpcSTAkQeqRuCrCv6Y+p4/efu0nfGA0ZLRoGmmlMVJPiq73iTYEwg3mrRW24RkMc3f/B2jZd0r3TMBsZ/qu7x6OcB/BgL58TVwqPvHvO5XpAuBusea71fvQTbmYJQ/GASBuq/v5fffysrqBycLgVYrqrKy3X+hjN94/KJp2vv0nf34xC05pFnBvttSXz55/TRSV/H2Dh8+jP379+PAgQNmirXBwUHccsst+MhHPmI8f1pW066ZQ/f7SjWfy6TBGrRE4FugEdrk8VMMvhqtcZTbEQwVcNkZACKEvdhuILGrOwdvmlCoptorXjuvGecJjd8k/D3xRSA/D9zzCPDLvwaMj3O/d/deGShyvVG38vqVpmvIny1h7rUCZg/m0Sg1zWCIhAkonMbwnb0Y3JFDoi9qwpMY5+Ma1gqokNMFNFVCnuan9rx9LRQItnWWG1ghxMZoCkKcixH8aIJAh8BtmqGvc04xD2r+ke9PT21/mQzoQaKA0ICiZ5q6TfdOZVqv7XSvL3kTvXsvb6JSeROTBL6RjIORbMQ0A3f50MrK6jqVhUArI1US5zUryJNT+MqpIv7Z3QP4mV29WMfK4N2UH65F/f0uXLhgPH+PPfYYnn76adOsu2XLFuP1e/jhh80cuurP97qm3NeJH2Hf26fZNozHbxaoX/Sgr3KQ6X6WnWJNlwDCG2kTQFxeO4HfDiC6jt8GNdO+ifQ14XXjJI/3538EPPP33J+g+MingI/Thoe7G74L4qn8uWUVy640VcPSuZKBvskXFpA/U4ITc5AZTaBvaxojd/VieHcP0qNxA35rWXrYGIDhHxN6ROBHyC3X2ygQ+hR8eFnBmLmNgE9eqAStN+HQPPCzc1VfvQR58iBqwJf6VOq+13nfNR1kjcsa+JHg/R7NKd7fDy4ElJWV1fsrC4FWRuoE/pcvL+FffP0ifvX2Pvzq3f24ZTD+rjevKWyLBng8++yzK/Cn5t69e/car9/999+Pm266yfTl+/7w15WZZm0JaBD6ame8adbKzwLF57iyBETGaLeSKmjJ2zxvX3Kr5+kz/fHewnlcnuMcj/2f/h1w8HHgJh7nU79KCPxhIJXqbvTuSNONVebrWCLsTe1fwNkn5jBzJo9AO4Ce4RQGdmQwtqeP8NePzFjCBCG+ViptgUjNbaHUIPQR9jTlmAd+mnM2YLxPGTXxxkMm+LDCkMTN61ODptW7rSsf/vYeW1ndWLIQaGXm//zy8QL+zbemMcwK+Lc/No7bRhPGC/NuVApq+j106BCefPJJPPfcc3jttdfMNGtbt241Xr/bb78dN998s5lLV30A5f37npLHr5kn7B0l9B0BqrT6IUIgIU3TrqnJOPZBIK6m3QnPyxcZAZy+bhMvLahzvMVXtzAHPPl14E9+H5ibAR79KcIfbct2AmXSO987lIItq3/f7Mt5zL1aMP38Fi+U0am3MbA1i4HdWfRtzpiBHsnhGCKEo1A3YPFarrnl7VPTrsKNaH5ZwZ/6nWqAh5y3iUgAuZg36lTNvJp+zOvbB4QIfgrzYrujWVlZWb03shB4g0vNQU+dKeF39s3ihfk6/v09g/jEzh70vsMmITX7arq1V155Bc8Q/DTQ48jhw2ZQx46dO3H7Bz6AW7dvx82bNpnZNgR/l/f308eSZkbxLtJmaZOet0/malQvoU9lausKjxL4thD4NnjAF1WT7xhJIkNIUygWL1SLN5bSkyBEfe0aJRf15aYJqtwoMl1uoMHl2hJTLrfmCZxHDwOnXubxEsCu2zVtCM/H/Lv09dHsGuW5GpanK3AJS8neGPp2pDGwJYvchiRShHJNRxbW1Fzq3b+GwUh9zTTIYLFCsO2Cn/r5yQMob59ALy3oI8SqqVf90NTEq9Gq/G/Az3KflZWV1XsvC4E3sFRZvzJVxf89uICvnS7iwxNpfOa+IYy+lVlB1LOcoGesrVThOtqoEsjOT03hRcLfCy+8gGNMp0+dRC6Vwi2Evt2Evx07d2HDxo3I5rKIhQVngj0ds+J5+BS6xZ1mXkbgU8gWefi0TtZSQGbCYZCgFxxGJzRGm6CtRyc4yEOl0GmF4NYCZp7YRrmNRpXGw9erHTTqATQaITTcgJlKzcwzW22gVSPw1VzmXbRozXLDQGKnyXshU6xAwWSC8PcuDwAR+MQHIkivTyC7MYWeCdomwt9w3ICfgjBrsM5alR4j/D3hNfGWXeS78KcBCvosydOXIOhpIIcgUPCnECQadSqP37XSnG1lZWV1PclC4A0sTQP1+VfyeOxYAcNJB/9qbz/uWJfymt8Eec0mOq6LNtN2S6bJ9rlcKaNdKqFdyKOdXyKTLdLmMMlK/8VaGwcvTuHoodeQP3oEvcUF3Brp4LZNG3H3PXswNr7ezNYRFETpPP7HT2m76kHeZRBI67C8w3N3HDQ7MTQRJ5Nl0QzdgaazGY3AKBqdNNx2hNARgSsAbAYJfi00KwQ7gmCzohG2HYIhGdINmm2aCPJfG07ARThQRxgN5pnSHObDwRpChJbA6Diw/TZ01PTL6+SX5tJ1v0sS5KXHYiaeX2Y8YeapNWEE1zAd6RZopKkGGyhun8BPXQs0qlfrNKtENiavnwZ0ePCnacbMVHUW+qysrKx+4LIQeINIb7P65vlWd1v48uE8/uDAPJZrTfyTnVl8akfaeAfVlNuqVNDK5+EuLaFG2KsXC6ixrFapos7y2uIiKnOzqM7OoDE/RTuLI40wDoQTqBCcNjpN3BWq4a5oA3cmgD7FWu5eiydSgJlOrTt7hjxsGp3rNwlrdCxhQp44Y+0Qyp0cip0BlNGHGgh9SMINJtAIJdFwmA8x78jicMMxBHiscFDBhD0L8/DhSAARXl84TkvQCKhRXqumhYuGXG7nTREXYT4aqsJJOQhs2Qzcex+pJu1d2w0uPTE0mlRx/AR8avIV/KnPnzyaWQKfRvNqUEcubkfzWllZWa1VWQi8DmUgr143Mfhc10WLy02mNZY1aPVGHdOLZXz+uXPYd2wWN6U7+LEtSVbYMLHGarUaqgK8yUnUpiZRnZlCbWEelVoVFYJbORBCMRBEIRDAMghoaBDwqgglcrhr1wbcvzGOvfE8trUnkWot8orUdNodkGHmyyWNhZh3MlwcN333OuEBtAMJXmsILTXRFnm9U1WUzpdRmqliuR5HITyEfGwEpVgfmpEkIryWCIEjStiIpkKIyJKeOYS8aIyAF23R2szzCvj6oglCYMLbNpQk4EV5LRqIombpkCiR1+fImDdB9qzLypcJWtyC8fzJ62dG9tKWCYIKPtwXdzBAaJbJ+2cDDFtZWVmtbVkIvI7ke/s0+4YGYjz11FM4dfo0lgsFVAl/VcKdAK9Wr2FyYRn5mXkEqiUCHDFO+3bb6Mxf5tVbLxdmpZ7Nom9sHfonNiA7PIxsrhdZlmWTQWTDC0gFjiDT2Yf+dBHj60aQ64uSowh/rVkSKY9GeENkJxC/lekmkpjAb5DQlUEHBEHk4LajKEw2MX+khLnDy1g6XkJxuobKNMGzUDdz3fbfnMTIbRkMbE0iMxYn6BE0YiGEYw4cpg6B0KSRtT1w4lqU4kiqyfdivoG5kkv4U/N8Bz0E8PFsBINpNftqDmY7qMPKysrqWpGFwGtdfPvUfKvgy8eOH8czTz+NJ7/1LZwl/E3NzKBJ+EsRDPuJW30BIhctynwcbfQk0+gZHEJ6ZB2SY2NIEfSSExNIrhtHOB5HKOiYKaYiYYJWJIxILAInsAyneRLh+ksIu6/BaZ9HILhMkJxByOlDKLoVwdhWBDRKN6r4fCMEviyBL81PWwqdQILwEIFbCaBwsY6Fo8uY3p9H8VwZ1UUXdQKGW2shSJjITSQxsD2L3q1ppMcSZhaMeDaMcMqbAs30l9P/lfRS3uqdS48GzSKjOH5TRRdLBD+FdtEsEkOpMIbSEdPcq5AuZsAy77299VZWVlbXjiwEXoPqNJtolMtYrtVw+uhRfPeZZ/Cd/ftx6uxZNBYWEM4v4pZoCLtSCUz09CI7MIjYEGGsbwDnWkn88RkgO9qPT9w9jt0b+pBIJeHEE3ASSYQShD+Fa5FHR9OutYsIuNMIVA8hUPkOAo0jLC8h0G6x0o8T8hSaZRuQ6Hr4gjmawrIkDfC1WlG0NBq32kLhXBVLJypYPF5C4XwZdYVfUX8/rnPCASRHY8htTCG7IYksoS+WiyCaCyOq0coaIesEveuyzYzvqRTQWSFe5gh/8vqp35+i8GiOWc0l25sMmbll492wLvbtsLKysro2ZSHwWlDTBQh9tVIJS/k8Zs6dw6EXXsA3T5zE1NQUKmfPoFOpoC+Vwvb+PuxeN4b1N9+E8Q0b0DM4iEgmi1Yqg5NuFP/j1TK+cMHFP757DD9z+yBu6pfHT7U4PwadOtAqeqNzNc9u/TXacS7PEAbz6mxIuHM82IvdDIQJfg7zjpp7B9EJpQl0HTOfbX3ZRXm+geWzFSydKmF5nte/6KJVIlDU2ggQHmK9EaTXxY3HLzUYR7w/SosYj180HTbbWM/e+yP196u5l+BPAz2qDb7fvPfetG0h9CTCSEWCZtSvPjP2bbGysrK6tmUhcC2q0QAKhK7FRVSXFjE5P4+p8+dx5sJFnJidw4XJScwfO4JCKo2eoSHclMlg89gYNm3ahE0jw5gYHkZoZAwgACqmXScUwrlCA397eBmf3T+PW4bi+Mzd/bhtqIlkULH35gh63WDM7gmC3wLTKtqNEtpunewXQSvYh3ZoG9N1aAdH0Q6MoNXOcT3XuW1u24ZbbqE8W8PyTBXlhRoaBMFWsYVmvY1OuI1YOopkX4zAF0OSJujT7Bfp4ThBNWy8fDeS9M1TXzs1uWqwhb6IQisNkBaXK5SKZ/6yX+al4uN3Ip1f59WMHsVGy4zuzVebYNacI0nYy8W9Eb6ayi2hvpZWVlZWVteNLASuBQn6yiWgWDTw15ifQ/7sGcwdP4bz587jO5NTOHT+AmZKZdRTKcQGBgh+aTz8yKO4aft2jA4MorevDzGaCWR8hYqs2L9+tIDPfmcWS8Uq/uP9Gdw1FECsNY125Qw65ZNMz6JVm0GncZpAFyQgbEAzcCua2IxmZxhusweuS2vE0awR+KoNuBX133O9EC48h7vc4jHaBJs2NKoknokgN5JE7+YUshNJJAcIfr1R08wbTmj0bfcCbyDpy9ZcNZG/AiprSrUi76GaXOVhU0QVL/Vt9fKlvFJJiUxe05WU5YJEb50HjF5ZwFyDwrsIPpcqTcxrhC/Pr7AvTiiIAb43A6luk6/p78edraysrKyuO1kIfM/F27tyh5WnaZaNeh2oVo11FubQOn0StWNHUaRdPH0aL83O4DnC33Hy4cVUBm3C3fYtW/HhBz+Eu/Z8EOODgxgi/AWiCR6V0Eaw0DRoHVbkbeXNss7VxtmZKv76xUV87bUFPNxbw8fXLyJUXSC0FWgluKUKGmXArWcJdSmmMbTBc4Zy6AQz6AQiPF4b7abrpTR9bNoBnqNr7WCbwBBF36Y0Bnfl0Lc1g9RIDLFsxDTtOu9wGrprWeYt5x95/dTfTsCl5lbF19N0appVQ+slH+C8PI2pYT2T95pgPaDrgh1NMChQExgqVIv66QkWDTQyb8p8C8HA5nTRNc2+pbqgvYOYE8AQ36cxvl9q8lVsP25uZWVlZXUd6+ohkFtfucNldcVarjhWrv3NXvK7ePHmttLaTQ/6WkwVZM11gcUF4PhxYP8LaB3cD/fiKSwuL+FgYRmPFxp4thbAVCeAfCCKDTdtxSc+8XE8cO+9WD88jqSTRLCt0bVtVPN11Li9+t+ZOW81963mvM1r7lsv3667qBA65GlqtVxkwy1wb16e+ns5BLgwTV45zaurZcJFMOjF30syzYQQzToG5iJZDdJwWOYYsNOADTXjRlMOwinmEwrVokDMGr1LCrnBIUKwpTAqLqF5udbGjA9eBD+Bl0AuFQlgJBPBoO4hQYybwm120DDA2EJDUyebvAeLLj9CiuXY4DYut9X2kvHvde+3EgGiL5O/4iPP3c12vfEQ1uV0/rDp6ydQtLKysrK6MXTVECi4qLEyaze9zv3qx6VwHUEnxDwPyErEhO8IrY2RnPKItQhfLdaeTZrSNmtAebPA/4aFCFxeY9m7qEYDgUIBmJ5G4OKkSXHxAjB1Hp3CItx6G+V6GGcrQbxUjeKUG0aJeNYKJBBxssglBpBL9yEeSiEcjMMJRRDkDTZNe6zRA50WrYlAm+cB047LV+AiFOhasIVa28EFt5cwmUBPzsXmdTX09gUQzmYRyfXRMoikoggnCSDJsEkVSNkhzJmRuOI4vn+CCPM+6r3Ve2pu16Xy1cvSjTyYQ98mAZ6ae+Xxmyk1MVsiiBP89N7JE6dAyhplqxk1MszLW6ewK/5N87+S+ut/O/28WWTGX/Y9jPqd4cOiQNF4HRUkXOU+QLKMl4U2U51/OB1BlhAY5ffVzt9rZWVldePpqiHw5Fcncegr51C4UEE45CAaJUCwMpNnSPHbNBODgQnlBRdalodI3qFwECFjhAmmAo2QYMNfNmU+aPg1Eis8Ak+HtVfbAJxATnmv2VN5zzynG7nIpOq3ptAjzTJhqNhAeamK0nwFlaU6aqyUG5WmqSA7HZFOiOdzWAXLN3NJJs8/ftnr1q2khDKTSt7tDLCi1dy7gYaLQL0BGGO+Uef1NdDgRVZYSVfbRLhAHMFYEqEYgSwSNJNWRJwOouEWnGCdV1UikFURirgIx9oIx13e9yqisSKikUVEYmU4MZ45GkMjFEOd97QRauN4tR9/MrMHiK/DJ3fE8BPbCX3ROAKOIC+CQFjgztcskNc991MBn4WCtyx9g+SdUx87Na+qqXex2kS5oc8uCPEwXjYFVtYgC7+51W/CfSfSp01fYZ1HJsegv+zlvWV9HPl/ZTnC82seX53fvs9WVlZWN6auGgInX1jA2edmDAR26tyV8CVvm+knJi9DkxWQWWbKmof4ZkaGdkJAKBSCQwBxlBJANLODo+ml1IS4MuMDwTDaBULuI/hraeqzupo2u3HlaBqNqlGnLV5Dg3k1oQnq2h1CFa+l7jbgEsBqhK56rU4grKJdrSHQrBGoGoShBqJJF4m0i2S6iXikDfIWmiWgtUwre8bNTUuuXgdfkmlG42lMSsTzygJBNFmZtpwQXEJVk6+vCRoBz1yXMXljeM0E2ng8itGxHG7akkV/XwDJSB3ppKY3q/G+VHmPKnztJd6vAkLBeQLbIgGNMBjpIBhNIRAZ5jX0It9KYJnHzhOI880oFtsZzLezmGolMeOGsFCOo+qM46Nbh/Gzu3LYPpgwsGv1ztXiZ7vGe6+QKrJlfhYVT6/G91k/JQR4Mf64kdcvTeiL8fOuQRYqUx8+y11WVlZWVj9oXTUEqg9adbGBRklg1gWxast41lx53mSVlpcnrLk1lpOims0mobGKTpXwWGNar6NDuOuQ3JouYcmNEN4iaAe8uVsD4bCBxib3dQ3Q0bpgZ9JuXsdFoEVwbCOSYsWbDCEaJ0ySdZxQB06gDUfNpM0GHBJdpFNBJFRFIlpGMraMVCxPKyJGMAyUCXoCwK41NViCEKgmtFa0A5fHbSZocUJnnGAX5XpergDQdQR/Qaa8ZqVEgYa8fII/QppJ+VrVRJdIRLBxoh/bd4xhsD/Aa11ElNDnBAR/LeOlCzqEPSdqADPfDBH0HFoIS26K6ShtCBfqvZisxrBY5vpqGPVOjFCdQjSc4P5R5HhNuwaj+OjmNG4bSZhmP6u3L31V1KyrkComrAqhr8DPuMrUl1IRVDTAIsMfNBpZK4+fwC8i77Z1t1lZWVlZrTFd/cAQhf9QB6Tubvrre/68UakNwl0VbbdCK6PVKJp4c24tj/LSAgqz8yjMLSE/t4yl2QoWZ2sozAdQWoqgVib0uFEemhAUiBKKwoQaWiSAEGErFFK/qqbp+6a+cMF2HaFWFZEAoS5WQypdRzrVRiYdRipOC4doYcRYATuEsABBMkiqC7rcr1FhWZFWgNMqe823wSQQTtEStDjakTg6tDaP1UkG0c6G0M4F0cmy0k+30E7xNUeYBgm4kLmEWBrTTqfJW8WU1tY94fUqbTNVv7BkMoNMdh3hVaN71TQdRK0ZRqkZQ7HZg+UWQa81iIXWAKZrfZipJjBbCWG6HMBS3UEgGCMox9DmjYkFg0iGAgSPIMYzDm7OOhhLq89X2FhvwkFMbZJWr9PKh3/Vt+DSJ9v7uKs/nTx8gr08f9wU+MNG06e1uE5ePTWrKp5eX0Lz58rb5zX1WvCzsrKyslrLunoInJ0Bps8DlZKpJmWsCz3jQpNA5boLaDRmUa1Po9y4SLuAcu0iFgsVzMzVMT3rYna2iYszbZybbKOYByJuALFOCAkiXjwQRIKWDDro7+tFf28OvZkUepJx9BAKewl2GdavOZ49SagL10sIVPIIVhcQJHAGuW9I/d1oCEdhOsyFIoQ8Q5Ld1GHKfEDLzEcJgH2jwMg6YGiYNgQMDAL9/YS+NI/hQN0HeXAaYZdGciTsNQjFZcJvxaRo8b60u6mWO0oLXC7SClxXIEN3CBa9qLTHUOoMYrkzgGJ7AHONLC6Uojhf7ODCcgunltuYc9VPMowIydHvx5UjFG9JOdjWG8ZELoL12YiBvUzMMfAh3hOcBHWtb0ErH4CVzGXZy/RmH5fVpW901kt9PC/XZaWrFt7alV+SOX/3Ii5dC9+nVRemrJa9lACvPE0jeL1Un2O/3Es1ClcePy+ki0Df60cnj1+O91sDLHKEP3n87OAKKysrK6trSVcNgZ2//mO0/s9/RefoQbjcs0L6k5WUcnmxSUakXSDUnSPAHG8GcKwTwAIrT4FinJah5VhZZmlp2gChZYKMNk42G2U6QiYbZn5ATboCGVWsql01XNUh1IVSHthFaGEZy8LcMaKUFuNZ0lmeKEuAyzFPiEul0UnzzCnum0wy75WZvAIs81gdM0rYk39TBAJkNgMKGlXpLXeMF0hmyrvLJtW23EjppTJCxkoZoaLWwoVCA0cX6jixVMcBpvNF1/QzjEZDyEaDGGTaFwtilJCxpS+KTT1RTPREMJ6LYpBlCur7vcRDfU/puvif8lJlVaaM8sb8/OqUf/Q+mgIl3eXuopGuTNBn7mb37TOjmrt5v9zbrmsm7+2jZZV467rHeROZ6zLvi66DZu65rst7n/y81qtZ34yQ5RujWTEUtNkbUbvKuGz6bjJvtuGybrUgT9On9SfCGExpCjXHNK+/GdxaWVlZWVmtdV01BE7/6e/gxB/8Hs6+ehiTrmAPOEvoO8QKM88jcRGdWAyJXA4D/YO0fmSZ781kCHUhjLDSHGW9Odi1ARpZDyGmggI/NQ43QZ8AzYCbB28mL3hLKE9TGtc2TGNM5dUTNvA8pq8ej9Yg3DVaNEKAibHGa1UTX91U9DTSl0m5TuE0NJODt+xto2WF/GiQMOrcV3kNCjDG7WvahkRc4/oKyypcLjItM3VFHiITLne4r8hQrKkBMfIgDTPtiTroIfApVtx4xgO90UzYmLx7wYBIhjtRerP0jvFo3j8felatM8taYInyBkS5nQ9FxvhHqaDUrO9uZ8q66832Zr/uOlPm7a/jeft55Xx5Rnr/5IX0vGJe6BPznqqcy/JOenmVeYMkzDK3M8vdcm2nvEYqX7a/ypjqtevWGpCT8UK9lJ9BXowfIsXlZ9MHPV2vPhrmnMyYY+r45hq9ZVNmzu9dhzyrmj5N4Vw0f26YG2sfrvqecGplZWVlZbXWddUQ+KU/+V/43G//N5w8fRa54REMjYyid2AI2cFhpn3IZLJIZdJIpzPIZbPIEQBT6TQrT8fMXBDlMcK0SDcNv2lN6q1osNKtBUKodUKoqt8cYa5CmKqyUq+ywq80AyZfYWVfFoCRAqoEMgFcjZV/pQtsgrMyy0utlhlNqziHbW7bYblJBQk8ZYeVfpsA0FFFz7yaX5O6bhnzampVWYSUoNejZaU+GDAx185LI6ZogbjCWyxY4ykMMAk6NGq0L+mgj5CXjXl9yeRZkufTMRCifPdYAi0DWzqaB2F614yHsZs359M2ynfLlZf86xI8mZT/vGWvfGVdd1t/O29bfzvt1U1Vbsq03t9Wa71zm+vjP/86/WtZKdM/v8ykfrmW/degBe+eXTrWpf10NrXsh9T0zwvXvfLhTSnfIq731imv6zPlvFhvm24Zl822Kjep1mkb//XS+MefdYOrrKysrKysrgtdNQR++/mD+Mq3voPppWVke3rQ39uDHoJeHy2bySAejyMS0chex4SDCclUW5vKXLqK03FTgZwBPoJbhVY1IzNbBvYqrjcyU1ZimazMcnnuVFmrkpcXza/sTapugMzHCVxx0kBCKSlAgCf4EQjKYWegSvszNb5FlnNXI+5u4Ec8oON6gCBY6AKEv14bdOXDi4BG5V6/siBh0gNNEzBY23d3Mn/5xxTJlKfJg6Xr9PLdbZRXav5p2Vvvb+NDnVnHjMrMcnc75f39vXLPdL9M2t1eW/hlxlRiUq9M0uv0IY//vZRmwLRb7gFrt0zrWWDK+M+Dve69UrpS1t1Wxn+S/54aAGRe9+8SzHnvuf9+yPz7IPmpuQcm1evw00uvx8rKysrK6nrVVUPgyekSDk0VUKg2CXghwosHe2Gaw2V5TaRLlbaqbFNzq9Sseyvyr8pr1vOa89T8Z5r8Wm2v2a9b7qdqujWzJ3BnVf4CLXnqBFg+bHnmxWsThKmDv4Ex9e/qnpeHWAEUPy9I0eXzFOY1qVzr9XIFGxrxq/P53iZ5lHz4FJyY7bgsUPQAowsfXtak2sYHFQNbK2WX1vnrtU7H07rL1l+2j7csmdRfoMwa73932f9zqex16428c16NdJ88+fhmbmX3jyd/myvXe8uXVnZzKxek5EqQ0x+zrH+mwMrKysrKyupKXTUELlVamC23UCWRrVTczFw6zFUd7vtKhzUYydR4i7TcNc+71M2b1NtuxVTW3VcySbfck7e/JFYQPPmeLqXecjcvqONWl9Z75X5zo+fJ88DTh0ADh91lMuZKuX8M/7zeH0+rskaXL1+xlotXbm9lZWVlZWVl9VZ01RD4fkuXJ8Az3jgBHE1947xlr+ySecDneeuu2GZln8vLvQEOHkwJ9ARtvgnYBHd+fzC/2fHSeutpsrKysrKysro2teYh0MrKysrKysrK6t0W8P8B6+TJoLnQZ8cAAAAASUVORK5CYII=;" parent="1" vertex="1">
                    <mxGeometry x="100" y="160" width="459.34" height="220" as="geometry"/>
                </mxCell>
                <mxCell id="jKu1ziQf7KbNOZalDjGE-1" value="&lt;font color=&quot;#99ff33&quot; style=&quot;font-size: 20px;&quot;&gt;TEAM A&lt;/font&gt;" style="text;html=1;strokeColor=none;fillColor=none;align=center;verticalAlign=middle;whiteSpace=wrap;rounded=0;fontColor=#FF6666;" parent="1" vertex="1">
                    <mxGeometry x="130" y="100" width="110" height="30" as="geometry"/>
                </mxCell>
                <mxCell id="jKu1ziQf7KbNOZalDjGE-2" value="&lt;font color=&quot;#99ff33&quot; style=&quot;font-size: 20px;&quot;&gt;TEAM B&lt;/font&gt;" style="text;html=1;strokeColor=none;fillColor=none;align=center;verticalAlign=middle;whiteSpace=wrap;rounded=0;fontColor=#FF6666;" parent="1" vertex="1">
                    <mxGeometry x="425" y="100" width="110" height="30" as="geometry"/>
                </mxCell>
                <mxCell id="FFtnCGyQNyIl1MjCBrQb-1" value="" style="rounded=1;whiteSpace=wrap;html=1;fontSize=20;fontColor=#FF6666;fillColor=none;" parent="1" vertex="1">
                    <mxGeometry x="99.34" y="480" width="460" height="270" as="geometry"/>
                </mxCell>
                <mxCell id="FFtnCGyQNyIl1MjCBrQb-2" value="" style="rounded=0;whiteSpace=wrap;html=1;fontSize=20;fontColor=#FF6666;fillColor=none;" parent="1" vertex="1">
                    <mxGeometry x="124.34" y="520" width="415" height="60" as="geometry"/>
                </mxCell>
                <mxCell id="FFtnCGyQNyIl1MjCBrQb-3" value="" style="rounded=0;whiteSpace=wrap;html=1;fontSize=20;fontColor=#FF6666;fillColor=none;" parent="1" vertex="1">
                    <mxGeometry x="124.34" y="640" width="415" height="60" as="geometry"/>
                </mxCell>
                <mxCell id="FFtnCGyQNyIl1MjCBrQb-4" value="" style="endArrow=none;html=1;fontSize=20;fontColor=#FF6666;" parent="1" edge="1">
                    <mxGeometry width="50" height="50" relative="1" as="geometry">
                        <mxPoint x="199.34" y="580" as="sourcePoint"/>
                        <mxPoint x="199.34" y="520" as="targetPoint"/>
                    </mxGeometry>
                </mxCell>
                <mxCell id="FFtnCGyQNyIl1MjCBrQb-5" value="" style="endArrow=none;html=1;fontSize=20;fontColor=#FF6666;" parent="1" edge="1">
                    <mxGeometry width="50" height="50" relative="1" as="geometry">
                        <mxPoint x="369.34" y="580" as="sourcePoint"/>
                        <mxPoint x="369.34" y="520" as="targetPoint"/>
                    </mxGeometry>
                </mxCell>
                <mxCell id="FFtnCGyQNyIl1MjCBrQb-6" value="" style="endArrow=none;html=1;fontSize=20;fontColor=#FF6666;" parent="1" edge="1">
                    <mxGeometry width="50" height="50" relative="1" as="geometry">
                        <mxPoint x="259.34" y="700" as="sourcePoint"/>
                        <mxPoint x="259.34" y="640" as="targetPoint"/>
                    </mxGeometry>
                </mxCell>
                <mxCell id="FFtnCGyQNyIl1MjCBrQb-7" value="" style="endArrow=none;html=1;fontSize=20;fontColor=#FF6666;" parent="1" edge="1">
                    <mxGeometry width="50" height="50" relative="1" as="geometry">
                        <mxPoint x="469.34" y="700" as="sourcePoint"/>
                        <mxPoint x="469.34" y="640" as="targetPoint"/>
                    </mxGeometry>
                </mxCell>
                <mxCell id="FFtnCGyQNyIl1MjCBrQb-8" value="&lt;font color=&quot;#99ff33&quot;&gt;Stacked bar chart - percentage sentiment (pos, neg, neu)&lt;/font&gt;" style="text;html=1;strokeColor=none;fillColor=none;align=center;verticalAlign=middle;whiteSpace=wrap;rounded=0;fontSize=20;fontColor=#FF6666;" parent="1" vertex="1">
                    <mxGeometry x="130" y="420" width="390.66" height="30" as="geometry"/>
                </mxCell>
                <mxCell id="w6X0AWipDmgRe_jWbfsi-1" value="&lt;b&gt;&lt;font color=&quot;#99ff33&quot;&gt;Mean sentiment over the season team A&lt;/font&gt;&lt;/b&gt;" style="ellipse;whiteSpace=wrap;html=1;aspect=fixed;fontSize=20;fontColor=#FF6666;fillColor=none;" parent="1" vertex="1">
                    <mxGeometry x="620" y="185" width="170" height="170" as="geometry"/>
                </mxCell>
                <mxCell id="TnkA5nAFaViVDVUlfzWD-2" value="&lt;font color=&quot;#99ff33&quot;&gt;Mean sentiment over the season team B&lt;/font&gt;" style="ellipse;whiteSpace=wrap;html=1;aspect=fixed;fontSize=20;fontColor=#FF6666;fillColor=none;" parent="1" vertex="1">
                    <mxGeometry x="610" y="530" width="170" height="170" as="geometry"/>
                </mxCell>
            </root>
        </mxGraphModel>
    </diagram>
</mxfile>